RecursiveSans-CasualMedium.ufo
<glyph name="exclam" format="1">
  <advance width="350"/>
  <unicode hex="0021"/>
  <outline>
    <contour>
      <point x="216" y="264" type="line"/>
      <point x="228" y="336"/>
      <point x="237" y="427"/>
      <point x="237" y="499" type="curve"/>
      <point x="237" y="656" type="line" smooth="yes"/>
      <point x="237" y="695"/>
      <point x="203" y="710"/>
      <point x="147" y="710" type="curve" smooth="yes"/>
      <point x="130" y="710"/>
      <point x="118" y="709"/>
      <point x="103" y="705" type="curve"/>
      <point x="111" y="670"/>
      <point x="113" y="634"/>
      <point x="113" y="595" type="curve" smooth="yes"/>
      <point x="113" y="501" type="line"/>
      <point x="113" y="400"/>
      <point x="122" y="303"/>
      <point x="140" y="285" type="curve" smooth="yes"/>
      <point x="153" y="271"/>
      <point x="177" y="264"/>
      <point x="207" y="264" type="curve"/>
    </contour>
    <contour>
      <point x="257" y="2" type="curve"/>
      <point x="257" y="101" type="line" smooth="yes"/>
      <point x="257" y="149"/>
      <point x="212" y="164"/>
      <point x="157" y="164" type="curve" smooth="yes"/>
      <point x="134" y="164"/>
      <point x="111" y="161"/>
      <point x="93" y="154" type="curve"/>
      <point x="93" y="55" type="line" smooth="yes"/>
      <point x="93" y="7"/>
      <point x="138" y="-8"/>
      <point x="193" y="-8" type="curve" smooth="yes"/>
      <point x="216" y="-8"/>
      <point x="239" y="-4"/>
    </contour>
  </outline>
</glyph>
<glyph name="quotedbl" format="1">
  <advance width="600"/>
  <unicode hex="0022"/>
  <outline>
    <contour>
      <point x="232" y="442" type="curve"/>
      <point x="244" y="665" type="line" smooth="yes"/>
      <point x="248" y="725"/>
      <point x="218" y="754"/>
      <point x="149" y="754" type="curve" smooth="yes"/>
      <point x="134" y="754"/>
      <point x="121" y="752"/>
      <point x="110" y="750" type="curve"/>
      <point x="119" y="726"/>
      <point x="122" y="708"/>
      <point x="125" y="654" type="curve" smooth="yes"/>
      <point x="135" y="486" type="line" smooth="yes"/>
      <point x="137" y="452"/>
      <point x="155" y="439"/>
      <point x="199" y="439" type="curve" smooth="yes"/>
      <point x="212" y="439"/>
      <point x="223" y="440"/>
    </contour>
    <contour>
      <point x="461" y="442" type="curve"/>
      <point x="475" y="659" type="line" smooth="yes"/>
      <point x="479" y="725"/>
      <point x="449" y="754"/>
      <point x="385" y="754" type="curve" smooth="yes"/>
      <point x="372" y="754"/>
      <point x="362" y="753"/>
      <point x="350" y="750" type="curve"/>
      <point x="366" y="486" type="line"/>
      <point x="368" y="452"/>
      <point x="386" y="439"/>
      <point x="430" y="439" type="curve" smooth="yes"/>
      <point x="443" y="439"/>
      <point x="453" y="440"/>
    </contour>
  </outline>
</glyph>
<glyph name="numbersign" format="1">
  <advance width="600"/>
  <unicode hex="0023"/>
  <outline>
    <contour>
      <point x="194" y="715" type="curve"/>
      <point x="194" y="513"/>
      <point x="165" y="239"/>
      <point x="57" y="-11" type="curve"/>
      <point x="67" y="-17"/>
      <point x="75" y="-20"/>
      <point x="93" y="-20" type="curve"/>
      <point x="121" y="-20"/>
      <point x="139" y="-14"/>
      <point x="148" y="7" type="curve" smooth="yes"/>
      <point x="248" y="255"/>
      <point x="276" y="511"/>
      <point x="276" y="693" type="curve" smooth="yes"/>
      <point x="276" y="714"/>
      <point x="255" y="720"/>
      <point x="229" y="720" type="curve" smooth="yes"/>
      <point x="217" y="720"/>
      <point x="205" y="718"/>
    </contour>
    <contour>
      <point x="406" y="715" type="curve"/>
      <point x="406" y="515"/>
      <point x="377" y="239"/>
      <point x="269" y="-11" type="curve"/>
      <point x="279" y="-17"/>
      <point x="287" y="-20"/>
      <point x="305" y="-20" type="curve"/>
      <point x="333" y="-20"/>
      <point x="351" y="-14"/>
      <point x="360" y="7" type="curve" smooth="yes"/>
      <point x="460" y="255"/>
      <point x="488" y="511"/>
      <point x="488" y="693" type="curve" smooth="yes"/>
      <point x="488" y="714"/>
      <point x="467" y="720"/>
      <point x="441" y="720" type="curve" smooth="yes"/>
      <point x="429" y="720"/>
      <point x="417" y="718"/>
    </contour>
    <contour>
      <point x="575" y="435" type="line"/>
      <point x="575" y="440"/>
      <point x="575" y="445"/>
      <point x="575" y="450" type="curve" smooth="yes"/>
      <point x="575" y="481"/>
      <point x="568" y="500"/>
      <point x="556" y="512" type="curve" smooth="yes"/>
      <point x="547" y="521"/>
      <point x="536" y="524"/>
      <point x="511" y="524" type="curve"/>
      <point x="64" y="524" type="line"/>
      <point x="62" y="513"/>
      <point x="61" y="499"/>
      <point x="61" y="489" type="curve" smooth="yes"/>
      <point x="61" y="452"/>
      <point x="71" y="435"/>
      <point x="108" y="435" type="curve"/>
    </contour>
    <contour>
      <point x="25" y="265" type="line"/>
      <point x="25" y="260"/>
      <point x="25" y="255"/>
      <point x="25" y="250" type="curve" smooth="yes"/>
      <point x="25" y="218"/>
      <point x="32" y="200"/>
      <point x="44" y="188" type="curve" smooth="yes"/>
      <point x="53" y="179"/>
      <point x="64" y="176"/>
      <point x="89" y="176" type="curve"/>
      <point x="536" y="176" type="line"/>
      <point x="538" y="187"/>
      <point x="539" y="201"/>
      <point x="539" y="211" type="curve" smooth="yes"/>
      <point x="539" y="247"/>
      <point x="529" y="265"/>
      <point x="492" y="265" type="curve"/>
    </contour>
  </outline>
</glyph>
<glyph name="percent" format="1">
  <advance width="600"/>
  <unicode hex="0025"/>
  <outline>
    <contour>
      <point x="134" y="666" type="curve"/>
      <point x="210" y="666"/>
      <point x="246" y="632"/>
      <point x="246" y="548" type="curve" smooth="yes"/>
      <point x="246" y="543" type="line" smooth="yes"/>
      <point x="246" y="478"/>
      <point x="216" y="441"/>
      <point x="154" y="441" type="curve" smooth="yes"/>
      <point x="123" y="441"/>
      <point x="106" y="450"/>
      <point x="84" y="476" type="curve"/>
      <point x="42" y="431"/>
      <point x="114" y="356"/>
      <point x="170" y="356" type="curve" smooth="yes"/>
      <point x="267" y="356"/>
      <point x="329" y="424"/>
      <point x="329" y="531" type="curve" smooth="yes"/>
      <point x="329" y="537" type="line" smooth="yes"/>
      <point x="329" y="639"/>
      <point x="266" y="710"/>
      <point x="177" y="710" type="curve" smooth="yes"/>
      <point x="152" y="710"/>
      <point x="134" y="691"/>
    </contour>
    <contour>
      <point x="203" y="405" type="curve"/>
      <point x="133" y="405"/>
      <point x="90" y="453"/>
      <point x="90" y="521" type="curve" smooth="yes"/>
      <point x="90" y="526" type="line" smooth="yes"/>
      <point x="90" y="595"/>
      <point x="126" y="642"/>
      <point x="180" y="642" type="curve" smooth="yes"/>
      <point x="215" y="642"/>
      <point x="233" y="637"/>
      <point x="262" y="611" type="curve"/>
      <point x="294" y="644"/>
      <point x="234" y="710"/>
      <point x="177" y="710" type="curve" smooth="yes"/>
      <point x="83" y="710"/>
      <point x="20" y="637"/>
      <point x="20" y="529" type="curve" smooth="yes"/>
      <point x="20" y="523" type="line" smooth="yes"/>
      <point x="20" y="420"/>
      <point x="77" y="356"/>
      <point x="170" y="356" type="curve" smooth="yes"/>
      <point x="193" y="356"/>
      <point x="203" y="378"/>
    </contour>
    <contour>
      <point x="385" y="300" type="curve"/>
      <point x="461" y="300"/>
      <point x="498" y="266"/>
      <point x="498" y="182" type="curve" smooth="yes"/>
      <point x="498" y="177" type="line" smooth="yes"/>
      <point x="498" y="112"/>
      <point x="467" y="75"/>
      <point x="405" y="75" type="curve" smooth="yes"/>
      <point x="375" y="75"/>
      <point x="358" y="84"/>
      <point x="336" y="110" type="curve"/>
      <point x="293" y="65"/>
      <point x="365" y="-10"/>
      <point x="421" y="-10" type="curve" smooth="yes"/>
      <point x="518" y="-10"/>
      <point x="580" y="58"/>
      <point x="580" y="165" type="curve" smooth="yes"/>
      <point x="580" y="171" type="line" smooth="yes"/>
      <point x="580" y="273"/>
      <point x="518" y="344"/>
      <point x="428" y="344" type="curve" smooth="yes"/>
      <point x="403" y="344"/>
      <point x="385" y="325"/>
    </contour>
    <contour>
      <point x="455" y="39" type="curve"/>
      <point x="384" y="39"/>
      <point x="342" y="87"/>
      <point x="342" y="155" type="curve" smooth="yes"/>
      <point x="342" y="160" type="line" smooth="yes"/>
      <point x="342" y="229"/>
      <point x="378" y="276"/>
      <point x="431" y="276" type="curve" smooth="yes"/>
      <point x="466" y="276"/>
      <point x="485" y="271"/>
      <point x="513" y="245" type="curve"/>
      <point x="545" y="278"/>
      <point x="486" y="344"/>
      <point x="428" y="344" type="curve" smooth="yes"/>
      <point x="334" y="344"/>
      <point x="271" y="271"/>
      <point x="271" y="163" type="curve" smooth="yes"/>
      <point x="271" y="157" type="line" smooth="yes"/>
      <point x="271" y="54"/>
      <point x="328" y="-10"/>
      <point x="421" y="-10" type="curve" smooth="yes"/>
      <point x="444" y="-10"/>
      <point x="455" y="12"/>
    </contour>
    <contour>
      <point x="358" y="414" type="curve"/>
      <point x="372" y="406"/>
      <point x="388" y="402"/>
      <point x="409" y="402" type="curve" smooth="yes"/>
      <point x="431" y="402"/>
      <point x="440" y="406"/>
      <point x="455" y="420" type="curve" smooth="yes"/>
      <point x="520" y="486"/>
      <point x="562" y="582"/>
      <point x="562" y="663" type="curve" smooth="yes"/>
      <point x="562" y="692"/>
      <point x="540" y="709"/>
      <point x="498" y="709" type="curve" smooth="yes"/>
      <point x="480" y="709"/>
      <point x="470" y="708"/>
      <point x="456" y="703" type="curve"/>
      <point x="447" y="594"/>
      <point x="424" y="506"/>
    </contour>
    <contour>
      <point x="242" y="285" type="curve"/>
      <point x="228" y="294"/>
      <point x="212" y="298"/>
      <point x="191" y="298" type="curve" smooth="yes"/>
      <point x="169" y="298"/>
      <point x="160" y="293"/>
      <point x="145" y="279" type="curve" smooth="yes"/>
      <point x="80" y="214"/>
      <point x="38" y="118"/>
      <point x="38" y="37" type="curve" smooth="yes"/>
      <point x="38" y="8"/>
      <point x="60" y="-10"/>
      <point x="102" y="-10" type="curve" smooth="yes"/>
      <point x="120" y="-10"/>
      <point x="130" y="-8"/>
      <point x="144" y="-3" type="curve"/>
      <point x="153" y="105"/>
      <point x="177" y="193"/>
    </contour>
  </outline>
</glyph>
<glyph name="quotesingle" format="1">
  <advance width="250"/>
  <unicode hex="0027"/>
  <outline>
    <contour>
      <point x="179" y="442" type="curve"/>
      <point x="191" y="659" type="line" smooth="yes"/>
      <point x="195" y="725"/>
      <point x="166" y="754"/>
      <point x="94" y="754" type="curve" smooth="yes"/>
      <point x="82" y="754"/>
      <point x="69" y="752"/>
      <point x="58" y="750" type="curve"/>
      <point x="67" y="726"/>
      <point x="70" y="708"/>
      <point x="73" y="654" type="curve" smooth="yes"/>
      <point x="83" y="486" type="line" smooth="yes"/>
      <point x="85" y="452"/>
      <point x="102" y="439"/>
      <point x="147" y="439" type="curve" smooth="yes"/>
      <point x="159" y="439"/>
      <point x="171" y="440"/>
    </contour>
  </outline>
</glyph>
<glyph name="parenleft" format="1">
  <advance width="400"/>
  <unicode hex="0028"/>
  <outline>
    <contour>
      <point x="263" y="740" type="curve" smooth="yes"/>
      <point x="157" y="633"/>
      <point x="97" y="478"/>
      <point x="97" y="302" type="curve" smooth="yes"/>
      <point x="97" y="296" type="line" smooth="yes"/>
      <point x="97" y="120"/>
      <point x="157" y="-36"/>
      <point x="263" y="-142" type="curve" smooth="yes"/>
      <point x="284" y="-163"/>
      <point x="303" y="-172"/>
      <point x="326" y="-172" type="curve" smooth="yes"/>
      <point x="361" y="-172"/>
      <point x="387" y="-162"/>
      <point x="406" y="-149" type="curve"/>
      <point x="406" y="-145" type="line"/>
      <point x="270" y="-29"/>
      <point x="206" y="125"/>
      <point x="206" y="296" type="curve" smooth="yes"/>
      <point x="206" y="302" type="line" smooth="yes"/>
      <point x="206" y="471"/>
      <point x="270" y="627"/>
      <point x="406" y="742" type="curve"/>
      <point x="406" y="746" type="line"/>
      <point x="387" y="760"/>
      <point x="361" y="770"/>
      <point x="326" y="770" type="curve" smooth="yes"/>
      <point x="303" y="770"/>
      <point x="284" y="761"/>
    </contour>
  </outline>
</glyph>
<glyph name="parenright" format="1">
  <advance width="400"/>
  <unicode hex="0029"/>
  <outline>
    <contour>
      <point x="137" y="-140" type="curve" smooth="yes"/>
      <point x="243" y="-34"/>
      <point x="303" y="122"/>
      <point x="303" y="297" type="curve" smooth="yes"/>
      <point x="303" y="304" type="line" smooth="yes"/>
      <point x="303" y="480"/>
      <point x="243" y="636"/>
      <point x="137" y="741" type="curve" smooth="yes"/>
      <point x="116" y="763"/>
      <point x="97" y="772"/>
      <point x="74" y="772" type="curve" smooth="yes"/>
      <point x="39" y="772"/>
      <point x="13" y="761"/>
      <point x="-6" y="748" type="curve"/>
      <point x="-6" y="744" type="line"/>
      <point x="130" y="629"/>
      <point x="194" y="474"/>
      <point x="194" y="304" type="curve" smooth="yes"/>
      <point x="194" y="297" type="line" smooth="yes"/>
      <point x="194" y="128"/>
      <point x="130" y="-28"/>
      <point x="-6" y="-143" type="curve"/>
      <point x="-6" y="-147" type="line"/>
      <point x="13" y="-160"/>
      <point x="39" y="-171"/>
      <point x="74" y="-171" type="curve" smooth="yes"/>
      <point x="97" y="-171"/>
      <point x="116" y="-161"/>
    </contour>
  </outline>
</glyph>
<glyph name="asterisk" format="1">
  <advance width="500"/>
  <unicode hex="002A"/>
  <outline>
    <contour>
      <point x="204" y="764" type="curve"/>
      <point x="210" y="746"/>
      <point x="215" y="729"/>
      <point x="218" y="704" type="curve" smooth="yes"/>
      <point x="232" y="556" type="line"/>
      <point x="211" y="412" type="line" smooth="yes"/>
      <point x="203" y="368"/>
      <point x="218" y="342"/>
      <point x="263" y="342" type="curve"/>
      <point x="274" y="342"/>
      <point x="286" y="344"/>
      <point x="296" y="348" type="curve"/>
      <point x="290" y="366"/>
      <point x="285" y="383"/>
      <point x="282" y="407" type="curve" smooth="yes"/>
      <point x="268" y="556" type="line"/>
      <point x="289" y="699" type="line" smooth="yes"/>
      <point x="297" y="745"/>
      <point x="282" y="770"/>
      <point x="237" y="770" type="curve" smooth="yes"/>
      <point x="226" y="769"/>
      <point x="215" y="768"/>
    </contour>
    <contour>
      <point x="413" y="694" type="curve"/>
      <point x="238" y="573" type="line"/>
      <point x="78" y="503" type="line" smooth="yes"/>
      <point x="58" y="494"/>
      <point x="54" y="469"/>
      <point x="69" y="444" type="curve"/>
      <point x="75" y="434"/>
      <point x="81" y="427"/>
      <point x="88" y="420" type="curve"/>
      <point x="262" y="542" type="line"/>
      <point x="422" y="613" type="line" smooth="yes"/>
      <point x="443" y="622"/>
      <point x="446" y="644"/>
      <point x="431" y="671" type="curve" smooth="yes"/>
      <point x="427" y="679"/>
      <point x="422" y="686"/>
    </contour>
    <contour>
      <point x="450" y="486" type="curve"/>
      <point x="262" y="572" type="line"/>
      <point x="117" y="677" type="line" smooth="yes"/>
      <point x="97" y="691"/>
      <point x="77" y="683"/>
      <point x="61" y="657" type="curve"/>
      <point x="56" y="649"/>
      <point x="53" y="638"/>
      <point x="50" y="629" type="curve"/>
      <point x="237" y="542" type="line"/>
      <point x="383" y="437" type="line" smooth="yes"/>
      <point x="403" y="422"/>
      <point x="423" y="431"/>
      <point x="439" y="458" type="curve"/>
      <point x="443" y="466"/>
      <point x="447" y="474"/>
    </contour>
  </outline>
</glyph>
<glyph name="plus" format="1">
  <advance width="600"/>
  <unicode hex="002B"/>
  <outline>
    <contour>
      <point x="55" y="349" type="line"/>
      <point x="55" y="345"/>
      <point x="55" y="340"/>
      <point x="55" y="335" type="curve" smooth="yes"/>
      <point x="55" y="298"/>
      <point x="60" y="276"/>
      <point x="73" y="263" type="curve" smooth="yes"/>
      <point x="82" y="254"/>
      <point x="94" y="251"/>
      <point x="118" y="251" type="curve"/>
      <point x="547" y="251" type="line"/>
      <point x="549" y="262"/>
      <point x="550" y="276"/>
      <point x="550" y="286" type="curve" smooth="yes"/>
      <point x="550" y="330"/>
      <point x="539" y="349"/>
      <point x="503" y="349" type="curve"/>
    </contour>
    <contour>
      <point x="350" y="58" type="curve"/>
      <point x="350" y="451" type="line" smooth="yes"/>
      <point x="350" y="490"/>
      <point x="345" y="509"/>
      <point x="329" y="525" type="curve" smooth="yes"/>
      <point x="314" y="540"/>
      <point x="289" y="545"/>
      <point x="268" y="545" type="curve" smooth="yes"/>
      <point x="259" y="545"/>
      <point x="249" y="544"/>
      <point x="239" y="541" type="curve"/>
      <point x="248" y="510"/>
      <point x="251" y="488"/>
      <point x="251" y="445" type="curve" smooth="yes"/>
      <point x="251" y="97" type="line" smooth="yes"/>
      <point x="251" y="62"/>
      <point x="277" y="55"/>
      <point x="316" y="55" type="curve" smooth="yes"/>
      <point x="329" y="55"/>
      <point x="341" y="56"/>
    </contour>
  </outline>
</glyph>
<glyph name="comma" format="1">
  <advance width="350"/>
  <unicode hex="002C"/>
  <outline>
    <contour>
      <point x="143" y="-195" type="curve" smooth="yes"/>
      <point x="160" y="-195"/>
      <point x="168" y="-192"/>
      <point x="177" y="-183" type="curve"/>
      <point x="230" y="-130"/>
      <point x="280" y="-20"/>
      <point x="280" y="90" type="curve"/>
      <point x="280" y="131"/>
      <point x="250" y="146"/>
      <point x="197" y="146" type="curve" smooth="yes"/>
      <point x="177" y="146"/>
      <point x="163" y="144"/>
      <point x="144" y="139" type="curve"/>
      <point x="144" y="-3"/>
      <point x="124" y="-84"/>
      <point x="70" y="-172" type="curve"/>
      <point x="92" y="-188"/>
      <point x="112" y="-195"/>
    </contour>
  </outline>
</glyph>
<glyph name="hyphen" format="1">
  <advance width="600"/>
  <unicode hex="002D"/>
  <outline>
    <contour>
      <point x="105" y="349" type="line"/>
      <point x="105" y="344"/>
      <point x="105" y="339"/>
      <point x="105" y="334" type="curve" smooth="yes"/>
      <point x="105" y="297"/>
      <point x="111" y="275"/>
      <point x="123" y="263" type="curve" smooth="yes"/>
      <point x="132" y="254"/>
      <point x="144" y="250"/>
      <point x="169" y="250" type="curve"/>
      <point x="497" y="250" type="line"/>
      <point x="499" y="262"/>
      <point x="501" y="275"/>
      <point x="501" y="286" type="curve" smooth="yes"/>
      <point x="501" y="329"/>
      <point x="490" y="349"/>
      <point x="453" y="349" type="curve"/>
    </contour>
  </outline>
</glyph>
<glyph name="period" format="1">
  <advance width="300"/>
  <unicode hex="002E"/>
  <outline>
    <contour>
      <point x="232" y="2" type="curve"/>
      <point x="232" y="101" type="line" smooth="yes"/>
      <point x="232" y="149"/>
      <point x="187" y="164"/>
      <point x="132" y="164" type="curve" smooth="yes"/>
      <point x="109" y="164"/>
      <point x="86" y="161"/>
      <point x="68" y="154" type="curve"/>
      <point x="68" y="55" type="line" smooth="yes"/>
      <point x="68" y="7"/>
      <point x="113" y="-8"/>
      <point x="168" y="-8" type="curve" smooth="yes"/>
      <point x="191" y="-8"/>
      <point x="214" y="-4"/>
    </contour>
  </outline>
</glyph>
<glyph name="zero" format="1">
  <advance width="600"/>
  <unicode hex="0030"/>
  <outline>
    <contour>
      <point x="308" y="720" type="curve" smooth="yes"/>
      <point x="167" y="720"/>
      <point x="63" y="586"/>
      <point x="63" y="358" type="curve" smooth="yes"/>
      <point x="63" y="313" type="line" smooth="yes"/>
      <point x="63" y="103"/>
      <point x="157" y="-20"/>
      <point x="292" y="-20" type="curve"/>
      <point x="328" y="-20"/>
      <point x="346" y="8"/>
      <point x="346" y="41" type="curve"/>
      <point x="202" y="51"/>
      <point x="161" y="166"/>
      <point x="161" y="299" type="curve" smooth="yes"/>
      <point x="161" y="343" type="line" smooth="yes"/>
      <point x="161" y="502"/>
      <point x="214" y="622"/>
      <point x="316" y="622" type="curve" smooth="yes"/>
      <point x="365" y="622"/>
      <point x="385" y="616"/>
      <point x="417" y="598" type="curve"/>
      <point x="440" y="638"/>
      <point x="381" y="720"/>
    </contour>
    <contour>
      <point x="292" y="-20" type="curve" smooth="yes"/>
      <point x="433" y="-20"/>
      <point x="537" y="104"/>
      <point x="537" y="318" type="curve" smooth="yes"/>
      <point x="537" y="363" type="line" smooth="yes"/>
      <point x="537" y="588"/>
      <point x="447" y="720"/>
      <point x="308" y="720" type="curve"/>
      <point x="272" y="720"/>
      <point x="254" y="692"/>
      <point x="254" y="659" type="curve"/>
      <point x="398" y="649"/>
      <point x="439" y="527"/>
      <point x="439" y="377" type="curve" smooth="yes"/>
      <point x="439" y="333" type="line" smooth="yes"/>
      <point x="439" y="188"/>
      <point x="386" y="78"/>
      <point x="284" y="78" type="curve" smooth="yes"/>
      <point x="235" y="78"/>
      <point x="215" y="84"/>
      <point x="183" y="102" type="curve"/>
      <point x="160" y="62"/>
      <point x="222" y="-20"/>
    </contour>
  </outline>
</glyph>
<glyph name="one" format="1">
  <advance width="600"/>
  <unicode hex="0031"/>
  <outline>
    <contour>
      <point x="384" y="50" type="curve"/>
      <point x="384" y="260"/>
      <point x="384" y="469"/>
      <point x="384" y="676" type="curve" smooth="yes"/>
      <point x="384" y="702"/>
      <point x="347" y="710"/>
      <point x="303" y="710" type="curve" smooth="yes"/>
      <point x="286" y="710" type="line"/>
      <point x="286" y="529"/>
      <point x="286" y="344"/>
      <point x="286" y="163" type="curve" smooth="yes"/>
      <point x="286" y="80"/>
      <point x="327" y="50"/>
    </contour>
    <contour>
      <point x="79" y="98" type="line"/>
      <point x="78" y="93"/>
      <point x="78" y="88"/>
      <point x="78" y="81" type="curve" smooth="yes"/>
      <point x="78" y="47"/>
      <point x="83" y="26"/>
      <point x="95" y="13" type="curve" smooth="yes"/>
      <point x="105" y="3"/>
      <point x="117" y="0"/>
      <point x="145" y="0" type="curve" smooth="yes"/>
      <point x="555" y="0" type="line"/>
      <point x="557" y="8"/>
      <point x="558" y="16"/>
      <point x="558" y="25" type="curve" smooth="yes"/>
      <point x="558" y="67"/>
      <point x="487" y="98"/>
      <point x="367" y="98" type="curve" smooth="yes"/>
    </contour>
    <contour>
      <point x="122" y="443" type="curve" smooth="yes"/>
      <point x="149" y="443"/>
      <point x="196" y="474"/>
      <point x="232" y="510" type="curve" smooth="yes"/>
      <point x="278" y="556"/>
      <point x="311" y="622"/>
      <point x="311" y="667" type="curve" smooth="yes"/>
      <point x="311" y="696"/>
      <point x="299" y="710"/>
      <point x="288" y="710" type="curve"/>
      <point x="273" y="710" type="line"/>
      <point x="251" y="675"/>
      <point x="229" y="645"/>
      <point x="200" y="615" type="curve"/>
      <point x="164" y="580"/>
      <point x="128" y="554"/>
      <point x="87" y="534" type="curve"/>
      <point x="87" y="519" type="line" smooth="yes"/>
      <point x="87" y="468"/>
      <point x="104" y="443"/>
    </contour>
  </outline>
</glyph>
<glyph name="two" format="1">
  <advance width="600"/>
  <unicode hex="0032"/>
  <outline>
    <contour>
      <point x="369" y="639" type="curve"/>
      <point x="406" y="602"/>
      <point x="422" y="577"/>
      <point x="422" y="526" type="curve" smooth="yes"/>
      <point x="422" y="452"/>
      <point x="382" y="396"/>
      <point x="273" y="327" type="curve" smooth="yes"/>
      <point x="138" y="241"/>
      <point x="63" y="169"/>
      <point x="63" y="79" type="curve" smooth="yes"/>
      <point x="63" y="54"/>
      <point x="84" y="45"/>
      <point x="144" y="45" type="curve"/>
      <point x="144" y="125"/>
      <point x="177" y="166"/>
      <point x="325" y="255" type="curve" smooth="yes"/>
      <point x="452" y="333"/>
      <point x="522" y="414"/>
      <point x="522" y="521" type="curve" smooth="yes"/>
      <point x="522" y="526" type="line" smooth="yes"/>
      <point x="522" y="611"/>
      <point x="462" y="674"/>
    </contour>
    <contour>
      <point x="535" y="0" type="line"/>
      <point x="537" y="11"/>
      <point x="538" y="24"/>
      <point x="538" y="36" type="curve" smooth="yes"/>
      <point x="538" y="79"/>
      <point x="527" y="98"/>
      <point x="491" y="98" type="curve" smooth="yes"/>
      <point x="162" y="98" type="line" smooth="yes"/>
      <point x="121" y="98"/>
      <point x="91" y="94"/>
      <point x="63" y="79" type="curve"/>
      <point x="63" y="77"/>
      <point x="63" y="76"/>
      <point x="63" y="75" type="curve" smooth="yes"/>
      <point x="63" y="44"/>
      <point x="86" y="0"/>
      <point x="110" y="0" type="curve" smooth="yes"/>
    </contour>
    <contour>
      <point x="305" y="720" type="curve" smooth="yes"/>
      <point x="227" y="720"/>
      <point x="166" y="698"/>
      <point x="131" y="663" type="curve" smooth="yes"/>
      <point x="103" y="636"/>
      <point x="87" y="598"/>
      <point x="87" y="559" type="curve" smooth="yes"/>
      <point x="87" y="536"/>
      <point x="96" y="516"/>
      <point x="108" y="505" type="curve"/>
      <point x="112" y="505" type="line"/>
      <point x="152" y="584"/>
      <point x="218" y="622"/>
      <point x="308" y="622" type="curve" smooth="yes"/>
      <point x="401" y="622"/>
      <point x="460" y="578"/>
      <point x="460" y="519" type="curve" smooth="yes"/>
      <point x="460" y="499"/>
      <point x="457" y="481"/>
      <point x="451" y="462" type="curve"/>
      <point x="492" y="462"/>
      <point x="522" y="491"/>
      <point x="522" y="526" type="curve" smooth="yes"/>
      <point x="522" y="644"/>
      <point x="433" y="720"/>
    </contour>
  </outline>
</glyph>
<glyph name="three" format="1">
  <advance width="600"/>
  <unicode hex="0033"/>
  <outline>
    <contour>
      <point x="290" y="621" type="curve" smooth="yes"/>
      <point x="404" y="621"/>
      <point x="462" y="562"/>
      <point x="462" y="482" type="curve" smooth="yes"/>
      <point x="462" y="473"/>
      <point x="461" y="462"/>
      <point x="458" y="451" type="curve"/>
      <point x="487" y="452"/>
      <point x="527" y="502"/>
      <point x="527" y="533" type="curve" smooth="yes"/>
      <point x="527" y="544" type="line" smooth="yes"/>
      <point x="527" y="645"/>
      <point x="440" y="719"/>
      <point x="300" y="719" type="curve" smooth="yes"/>
      <point x="213" y="719"/>
      <point x="143" y="691"/>
      <point x="111" y="659" type="curve" smooth="yes"/>
      <point x="87" y="636"/>
      <point x="80" y="617"/>
      <point x="80" y="579" type="curve" smooth="yes"/>
      <point x="80" y="559"/>
      <point x="81" y="545"/>
      <point x="87" y="528" type="curve"/>
      <point x="91" y="528" type="line"/>
      <point x="143" y="592"/>
      <point x="200" y="621"/>
    </contour>
    <contour>
      <point x="207" y="310" type="curve" smooth="yes"/>
      <point x="409" y="310"/>
      <point x="526" y="418"/>
      <point x="526" y="533" type="curve" smooth="yes"/>
      <point x="526" y="565"/>
      <point x="472" y="598"/>
      <point x="441" y="600" type="curve"/>
      <point x="442" y="590"/>
      <point x="442" y="582"/>
      <point x="442" y="569" type="curve" smooth="yes"/>
      <point x="442" y="434"/>
      <point x="334" y="371"/>
      <point x="174" y="371" type="curve"/>
      <point x="171" y="359"/>
      <point x="170" y="351"/>
      <point x="170" y="336" type="curve" smooth="yes"/>
      <point x="170" y="319"/>
      <point x="193" y="310"/>
    </contour>
    <contour>
      <point x="204" y="281" type="curve" smooth="yes"/>
      <point x="345" y="277"/>
      <point x="453" y="229"/>
      <point x="453" y="143" type="curve" smooth="yes"/>
      <point x="453" y="132"/>
      <point x="453" y="126"/>
      <point x="452" y="118" type="curve"/>
      <point x="490" y="121"/>
      <point x="537" y="144"/>
      <point x="537" y="166" type="curve" smooth="yes"/>
      <point x="537" y="287"/>
      <point x="395" y="348"/>
      <point x="174" y="348" type="curve"/>
      <point x="172" y="343"/>
      <point x="170" y="341"/>
      <point x="170" y="336" type="curve" smooth="yes"/>
      <point x="170" y="301"/>
      <point x="178" y="282"/>
    </contour>
    <contour>
      <point x="290" y="78" type="curve" smooth="yes"/>
      <point x="193" y="78"/>
      <point x="130" y="106"/>
      <point x="75" y="171" type="curve"/>
      <point x="71" y="171" type="line"/>
      <point x="66" y="155"/>
      <point x="65" y="141"/>
      <point x="65" y="120" type="curve" smooth="yes"/>
      <point x="65" y="84"/>
      <point x="71" y="63"/>
      <point x="92" y="42" type="curve" smooth="yes"/>
      <point x="129" y="5"/>
      <point x="207" y="-20"/>
      <point x="300" y="-20" type="curve" smooth="yes"/>
      <point x="446" y="-20"/>
      <point x="537" y="54"/>
      <point x="537" y="156" type="curve" smooth="yes"/>
      <point x="537" y="166" type="line" smooth="yes"/>
      <point x="537" y="197"/>
      <point x="496" y="237"/>
      <point x="468" y="239" type="curve"/>
      <point x="469" y="231"/>
      <point x="469" y="222"/>
      <point x="469" y="212" type="curve" smooth="yes"/>
      <point x="469" y="130"/>
      <point x="412" y="78"/>
    </contour>
  </outline>
</glyph>
<glyph name="four" format="1">
  <advance width="600"/>
  <unicode hex="0034"/>
  <outline>
    <contour>
      <point x="125" y="211" type="curve"/>
      <point x="188" y="377"/>
      <point x="355" y="588"/>
      <point x="506" y="681" type="curve"/>
      <point x="506" y="685" type="line"/>
      <point x="489" y="702"/>
      <point x="459" y="713"/>
      <point x="413" y="713" type="curve" smooth="yes"/>
      <point x="381" y="713"/>
      <point x="360" y="705"/>
      <point x="307" y="652" type="curve" smooth="yes"/>
      <point x="172" y="517"/>
      <point x="46" y="323"/>
      <point x="46" y="239" type="curve" smooth="yes"/>
      <point x="46" y="220"/>
      <point x="91" y="211"/>
    </contour>
    <contour>
      <point x="565" y="150" type="line"/>
      <point x="567" y="159"/>
      <point x="568" y="169"/>
      <point x="568" y="178" type="curve" smooth="yes"/>
      <point x="568" y="211"/>
      <point x="560" y="248"/>
      <point x="534" y="248" type="curve" smooth="yes"/>
      <point x="317" y="248" type="line"/>
      <point x="237" y="248"/>
      <point x="132" y="246"/>
      <point x="46" y="239" type="curve"/>
      <point x="46" y="229" type="line" smooth="yes"/>
      <point x="46" y="197"/>
      <point x="55" y="173"/>
      <point x="69" y="159" type="curve" smooth="yes"/>
      <point x="76" y="152"/>
      <point x="82" y="150"/>
      <point x="97" y="150" type="curve" smooth="yes"/>
    </contour>
    <contour>
      <point x="496" y="-4" type="curve"/>
      <point x="488" y="30"/>
      <point x="485" y="55"/>
      <point x="485" y="98" type="curve" smooth="yes"/>
      <point x="485" y="357" type="line" smooth="yes"/>
      <point x="485" y="375"/>
      <point x="455" y="396"/>
      <point x="417" y="396" type="curve" smooth="yes"/>
      <point x="410" y="396" type="line"/>
      <point x="396" y="334"/>
      <point x="381" y="255"/>
      <point x="381" y="192" type="curve"/>
      <point x="381" y="53" type="line" smooth="yes"/>
      <point x="381" y="4"/>
      <point x="422" y="-8"/>
      <point x="461" y="-8" type="curve" smooth="yes"/>
      <point x="474" y="-8"/>
      <point x="486" y="-7"/>
    </contour>
  </outline>
</glyph>
<glyph name="six" format="1">
  <advance width="600"/>
  <unicode hex="0036"/>
  <outline>
    <contour>
      <point x="145" y="142" type="curve"/>
      <point x="126" y="68"/>
      <point x="214" y="-20"/>
      <point x="310" y="-20" type="curve"/>
      <point x="446" y="-20"/>
      <point x="539" y="65"/>
      <point x="539" y="190" type="curve" smooth="yes"/>
      <point x="539" y="195" type="line" smooth="yes"/>
      <point x="539" y="299"/>
      <point x="453" y="357"/>
      <point x="399" y="324" type="curve"/>
      <point x="429" y="289"/>
      <point x="440" y="250"/>
      <point x="440" y="200" type="curve" smooth="yes"/>
      <point x="440" y="195" type="line" smooth="yes"/>
      <point x="440" y="124"/>
      <point x="390" y="77"/>
      <point x="303" y="77" type="curve" smooth="yes"/>
      <point x="239" y="77"/>
      <point x="193" y="95"/>
    </contour>
    <contour>
      <point x="173" y="544" type="curve"/>
      <point x="223" y="597"/>
      <point x="280" y="622"/>
      <point x="354" y="622" type="curve" smooth="yes"/>
      <point x="417" y="622"/>
      <point x="460" y="608"/>
      <point x="502" y="578" type="curve"/>
      <point x="506" y="578" type="line"/>
      <point x="509" y="589"/>
      <point x="510" y="600"/>
      <point x="510" y="616" type="curve" smooth="yes"/>
      <point x="510" y="653"/>
      <point x="499" y="672"/>
      <point x="489" y="683" type="curve" smooth="yes"/>
      <point x="469" y="703"/>
      <point x="427" y="720"/>
      <point x="350" y="720" type="curve" smooth="yes"/>
      <point x="238" y="720"/>
      <point x="129" y="637"/>
    </contour>
    <contour>
      <point x="63" y="320" type="curve" smooth="yes"/>
      <point x="63" y="312" type="line" smooth="yes"/>
      <point x="63" y="87"/>
      <point x="154" y="-20"/>
      <point x="310" y="-20" type="curve" smooth="yes"/>
      <point x="320" y="-20"/>
      <point x="340" y="-10"/>
      <point x="340" y="26" type="curve"/>
      <point x="212" y="41"/>
      <point x="163" y="129"/>
      <point x="163" y="309" type="curve" smooth="yes"/>
      <point x="163" y="317" type="line" smooth="yes"/>
      <point x="163" y="540"/>
      <point x="223" y="639"/>
      <point x="381" y="676" type="curve"/>
      <point x="381" y="701"/>
      <point x="369" y="720"/>
      <point x="350" y="720" type="curve" smooth="yes"/>
      <point x="181" y="720"/>
      <point x="63" y="599"/>
    </contour>
    <contour>
      <point x="329" y="392" type="curve" smooth="yes"/>
      <point x="264" y="392"/>
      <point x="187" y="367"/>
      <point x="153" y="333" type="curve" smooth="yes"/>
      <point x="139" y="319"/>
      <point x="135" y="298"/>
      <point x="133" y="252" type="curve"/>
      <point x="188" y="287"/>
      <point x="251" y="306"/>
      <point x="315" y="306" type="curve" smooth="yes"/>
      <point x="423" y="306"/>
      <point x="484" y="249"/>
      <point x="484" y="165" type="curve" smooth="yes"/>
      <point x="484" y="152"/>
      <point x="483" y="139"/>
      <point x="479" y="129" type="curve"/>
      <point x="509" y="129"/>
      <point x="539" y="163"/>
      <point x="539" y="194" type="curve" smooth="yes"/>
      <point x="539" y="320"/>
      <point x="454" y="392"/>
    </contour>
  </outline>
</glyph>
<glyph name="seven" format="1">
  <advance width="600"/>
  <unicode hex="0037"/>
  <outline>
    <contour>
      <point x="438" y="602" type="line" smooth="yes"/>
      <point x="475" y="602"/>
      <point x="505" y="603"/>
      <point x="535" y="608" type="curve"/>
      <point x="535" y="616" type="line"/>
      <point x="535" y="651"/>
      <point x="522" y="700"/>
      <point x="497" y="700" type="curve"/>
      <point x="100" y="700" type="line"/>
      <point x="100" y="682" type="line" smooth="yes"/>
      <point x="100" y="631"/>
      <point x="111" y="602"/>
      <point x="139" y="602" type="curve" smooth="yes"/>
    </contour>
    <contour>
      <point x="324" y="-10" type="line"/>
      <point x="324" y="233"/>
      <point x="535" y="464"/>
      <point x="535" y="608" type="curve" smooth="yes"/>
      <point x="535" y="625"/>
      <point x="493" y="633"/>
      <point x="437" y="633" type="curve"/>
      <point x="437" y="488"/>
      <point x="228" y="238"/>
      <point x="228" y="43" type="curve" smooth="yes"/>
      <point x="228" y="7"/>
      <point x="271" y="-10"/>
      <point x="307" y="-10" type="curve" smooth="yes"/>
    </contour>
    <contour>
      <point x="166" y="465" type="curve"/>
      <point x="166" y="575"/>
      <point x="186" y="647"/>
      <point x="186" y="682" type="curve"/>
      <point x="186" y="708"/>
      <point x="142" y="720"/>
      <point x="102" y="720" type="curve" smooth="yes"/>
      <point x="94" y="720" type="line"/>
      <point x="76" y="649"/>
      <point x="68" y="576"/>
      <point x="68" y="504" type="curve"/>
      <point x="68" y="469"/>
      <point x="94" y="463"/>
      <point x="132" y="463" type="curve" smooth="yes"/>
      <point x="145" y="463"/>
      <point x="157" y="464"/>
    </contour>
  </outline>
</glyph>
<glyph name="eight" format="1">
  <advance width="600"/>
  <unicode hex="0038"/>
  <outline>
    <contour>
      <point x="381" y="335" type="curve" smooth="yes"/>
      <point x="291" y="367" type="line" smooth="yes"/>
      <point x="194" y="403"/>
      <point x="168" y="448"/>
      <point x="168" y="504" type="curve" smooth="yes"/>
      <point x="168" y="525"/>
      <point x="169" y="553"/>
      <point x="175" y="586" type="curve"/>
      <point x="125" y="580"/>
      <point x="77" y="560"/>
      <point x="77" y="510" type="curve" smooth="yes"/>
      <point x="77" y="434"/>
      <point x="120" y="352"/>
      <point x="262" y="300" type="curve" smooth="yes"/>
      <point x="351" y="267" type="line" smooth="yes"/>
      <point x="436" y="235"/>
      <point x="458" y="201"/>
      <point x="458" y="126" type="curve" smooth="yes"/>
      <point x="458" y="117"/>
      <point x="458" y="108"/>
      <point x="458" y="98" type="curve"/>
      <point x="494" y="100"/>
      <point x="542" y="139"/>
      <point x="542" y="166" type="curve"/>
      <point x="542" y="220"/>
      <point x="504" y="291"/>
    </contour>
    <contour>
      <point x="295" y="-20" type="curve" smooth="yes"/>
      <point x="447" y="-20"/>
      <point x="542" y="56"/>
      <point x="542" y="161" type="curve" smooth="yes"/>
      <point x="542" y="166" type="line" smooth="yes"/>
      <point x="542" y="185"/>
      <point x="504" y="206"/>
      <point x="477" y="208" type="curve"/>
      <point x="477" y="204"/>
      <point x="477" y="200"/>
      <point x="477" y="196" type="curve" smooth="yes"/>
      <point x="477" y="122"/>
      <point x="410" y="77"/>
      <point x="295" y="77" type="curve" smooth="yes"/>
      <point x="201" y="77"/>
      <point x="152" y="110"/>
      <point x="117" y="181" type="curve"/>
      <point x="47" y="113"/>
      <point x="130" y="-20"/>
    </contour>
    <contour>
      <point x="317" y="720" type="curve" smooth="yes"/>
      <point x="180" y="720"/>
      <point x="77" y="630"/>
      <point x="77" y="514" type="curve" smooth="yes"/>
      <point x="77" y="510" type="line" smooth="yes"/>
      <point x="77" y="476"/>
      <point x="127" y="443"/>
      <point x="174" y="440" type="curve"/>
      <point x="171" y="459"/>
      <point x="168" y="480"/>
      <point x="168" y="504" type="curve" smooth="yes"/>
      <point x="168" y="589"/>
      <point x="255" y="628"/>
      <point x="318" y="628" type="curve" smooth="yes"/>
      <point x="376" y="628"/>
      <point x="424" y="612"/>
      <point x="464" y="569" type="curve"/>
      <point x="515" y="631"/>
      <point x="411" y="720"/>
    </contour>
    <contour>
      <point x="351" y="319" type="curve" smooth="yes"/>
      <point x="429" y="319"/>
      <point x="539" y="411"/>
      <point x="539" y="517" type="curve" smooth="yes"/>
      <point x="539" y="522" type="line" smooth="yes"/>
      <point x="539" y="638"/>
      <point x="440" y="720"/>
      <point x="317" y="720" type="curve" smooth="yes"/>
      <point x="302" y="720"/>
      <point x="281" y="712"/>
      <point x="278" y="670" type="curve"/>
      <point x="383" y="670"/>
      <point x="445" y="615"/>
      <point x="445" y="522" type="curve" smooth="yes"/>
      <point x="445" y="518" type="line" smooth="yes"/>
      <point x="445" y="443"/>
      <point x="391" y="384"/>
      <point x="282" y="342" type="curve"/>
      <point x="305" y="327"/>
      <point x="325" y="319"/>
    </contour>
    <contour>
      <point x="343" y="33" type="curve"/>
      <point x="214" y="33"/>
      <point x="152" y="88"/>
      <point x="152" y="134" type="curve" smooth="yes"/>
      <point x="152" y="137" type="line" smooth="yes"/>
      <point x="152" y="210"/>
      <point x="209" y="267"/>
      <point x="317" y="304" type="curve"/>
      <point x="297" y="322"/>
      <point x="287" y="332"/>
      <point x="257" y="332" type="curve" smooth="yes"/>
      <point x="169" y="332"/>
      <point x="62" y="255"/>
      <point x="62" y="157" type="curve" smooth="yes"/>
      <point x="62" y="152" type="line" smooth="yes"/>
      <point x="62" y="55"/>
      <point x="154" y="-20"/>
      <point x="295" y="-20" type="curve" smooth="yes"/>
      <point x="316" y="-20"/>
      <point x="343" y="2"/>
    </contour>
  </outline>
</glyph>
<glyph name="nine" format="1">
  <advance width="600"/>
  <unicode hex="0039"/>
  <outline>
    <contour>
      <point x="455" y="558" type="curve"/>
      <point x="487" y="628"/>
      <point x="386" y="720"/>
      <point x="291" y="720" type="curve"/>
      <point x="155" y="720"/>
      <point x="62" y="619"/>
      <point x="62" y="462" type="curve" smooth="yes"/>
      <point x="62" y="457" type="line" smooth="yes"/>
      <point x="62" y="342"/>
      <point x="148" y="277"/>
      <point x="204" y="310" type="curve"/>
      <point x="170" y="350"/>
      <point x="160" y="395"/>
      <point x="160" y="452" type="curve" smooth="yes"/>
      <point x="160" y="457" type="line" smooth="yes"/>
      <point x="160" y="557"/>
      <point x="212" y="623"/>
      <point x="301" y="623" type="curve" smooth="yes"/>
      <point x="364" y="623"/>
      <point x="408" y="605"/>
    </contour>
    <contour>
      <point x="435" y="156" type="curve"/>
      <point x="383" y="102"/>
      <point x="323" y="78"/>
      <point x="247" y="78" type="curve" smooth="yes"/>
      <point x="183" y="78"/>
      <point x="141" y="92"/>
      <point x="99" y="122" type="curve"/>
      <point x="95" y="122" type="line"/>
      <point x="92" y="111"/>
      <point x="90" y="100"/>
      <point x="90" y="84" type="curve" smooth="yes"/>
      <point x="90" y="47"/>
      <point x="101" y="28"/>
      <point x="112" y="17" type="curve" smooth="yes"/>
      <point x="131" y="-3"/>
      <point x="174" y="-20"/>
      <point x="252" y="-20" type="curve" smooth="yes"/>
      <point x="368" y="-20"/>
      <point x="475" y="70"/>
    </contour>
    <contour>
      <point x="538" y="380" type="curve" smooth="yes"/>
      <point x="538" y="388" type="line" smooth="yes"/>
      <point x="538" y="613"/>
      <point x="446" y="720"/>
      <point x="291" y="720" type="curve" smooth="yes"/>
      <point x="280" y="720"/>
      <point x="261" y="709"/>
      <point x="261" y="674" type="curve"/>
      <point x="389" y="659"/>
      <point x="437" y="571"/>
      <point x="437" y="391" type="curve" smooth="yes"/>
      <point x="437" y="383" type="line" smooth="yes"/>
      <point x="437" y="160"/>
      <point x="378" y="60"/>
      <point x="221" y="24" type="curve"/>
      <point x="221" y="-1"/>
      <point x="233" y="-20"/>
      <point x="252" y="-20" type="curve" smooth="yes"/>
      <point x="423" y="-20"/>
      <point x="538" y="93"/>
    </contour>
    <contour>
      <point x="270" y="230" type="curve" smooth="yes"/>
      <point x="336" y="230"/>
      <point x="413" y="256"/>
      <point x="447" y="289" type="curve" smooth="yes"/>
      <point x="462" y="304"/>
      <point x="466" y="324"/>
      <point x="468" y="370" type="curve"/>
      <point x="412" y="335"/>
      <point x="349" y="316"/>
      <point x="284" y="316" type="curve" smooth="yes"/>
      <point x="177" y="316"/>
      <point x="117" y="381"/>
      <point x="117" y="478" type="curve" smooth="yes"/>
      <point x="117" y="498"/>
      <point x="118" y="513"/>
      <point x="124" y="530" type="curve"/>
      <point x="92" y="530"/>
      <point x="62" y="498"/>
      <point x="62" y="458" type="curve" smooth="yes"/>
      <point x="62" y="313"/>
      <point x="146" y="230"/>
    </contour>
  </outline>
</glyph>
<glyph name="colon" format="1">
  <advance width="300"/>
  <unicode hex="003A"/>
  <outline>
    <contour>
      <point x="232" y="380" type="curve"/>
      <point x="232" y="478" type="line" smooth="yes"/>
      <point x="232" y="526"/>
      <point x="187" y="542"/>
      <point x="132" y="542" type="curve" smooth="yes"/>
      <point x="109" y="542"/>
      <point x="86" y="538"/>
      <point x="68" y="532" type="curve"/>
      <point x="68" y="433" type="line" smooth="yes"/>
      <point x="68" y="385"/>
      <point x="113" y="370"/>
      <point x="168" y="370" type="curve" smooth="yes"/>
      <point x="191" y="370"/>
      <point x="214" y="373"/>
    </contour>
    <contour>
      <point x="232" y="2" type="curve"/>
      <point x="232" y="101" type="line" smooth="yes"/>
      <point x="232" y="149"/>
      <point x="187" y="164"/>
      <point x="132" y="164" type="curve" smooth="yes"/>
      <point x="109" y="164"/>
      <point x="86" y="161"/>
      <point x="68" y="154" type="curve"/>
      <point x="68" y="55" type="line" smooth="yes"/>
      <point x="68" y="7"/>
      <point x="113" y="-8"/>
      <point x="168" y="-8" type="curve" smooth="yes"/>
      <point x="191" y="-8"/>
      <point x="214" y="-4"/>
    </contour>
  </outline>
</glyph>
<glyph name="semicolon" format="1">
  <advance width="350"/>
  <unicode hex="003B"/>
  <outline>
    <contour>
      <point x="255" y="378" type="curve"/>
      <point x="255" y="477" type="line" smooth="yes"/>
      <point x="255" y="525"/>
      <point x="210" y="540"/>
      <point x="154" y="540" type="curve" smooth="yes"/>
      <point x="132" y="540"/>
      <point x="109" y="537"/>
      <point x="90" y="530" type="curve"/>
      <point x="90" y="431" type="line" smooth="yes"/>
      <point x="90" y="383"/>
      <point x="136" y="368"/>
      <point x="191" y="368" type="curve" smooth="yes"/>
      <point x="213" y="368"/>
      <point x="236" y="372"/>
    </contour>
    <contour>
      <point x="111" y="-195" type="curve" smooth="yes"/>
      <point x="127" y="-195"/>
      <point x="136" y="-192"/>
      <point x="144" y="-183" type="curve"/>
      <point x="198" y="-130"/>
      <point x="247" y="-20"/>
      <point x="247" y="90" type="curve"/>
      <point x="247" y="131"/>
      <point x="218" y="146"/>
      <point x="164" y="146" type="curve" smooth="yes"/>
      <point x="144" y="146"/>
      <point x="131" y="144"/>
      <point x="112" y="139" type="curve"/>
      <point x="112" y="-3"/>
      <point x="91" y="-84"/>
      <point x="38" y="-172" type="curve"/>
      <point x="59" y="-188"/>
      <point x="79" y="-195"/>
    </contour>
  </outline>
</glyph>
<glyph name="greater" format="1">
  <advance width="550"/>
  <unicode hex="003E"/>
  <outline>
    <contour>
      <point x="73" y="113" type="curve"/>
      <point x="73" y="97" type="line"/>
      <point x="73" y="63"/>
      <point x="91" y="26"/>
      <point x="116" y="26" type="curve" smooth="yes"/>
      <point x="129" y="26"/>
      <point x="160" y="34"/>
      <point x="203" y="50" type="curve" smooth="yes"/>
      <point x="344" y="103"/>
      <point x="455" y="183"/>
      <point x="531" y="274" type="curve"/>
      <point x="531" y="300" type="line"/>
      <point x="531" y="324"/>
      <point x="505" y="333"/>
      <point x="451" y="325" type="curve"/>
      <point x="351" y="221"/>
      <point x="269" y="159"/>
    </contour>
    <contour>
      <point x="80" y="581" type="curve"/>
      <point x="76" y="571"/>
      <point x="75" y="560"/>
      <point x="75" y="545" type="curve" smooth="yes"/>
      <point x="75" y="510"/>
      <point x="84" y="482"/>
      <point x="103" y="476" type="curve" smooth="yes"/>
      <point x="277" y="424"/>
      <point x="353" y="374"/>
      <point x="460" y="270" type="curve" smooth="yes"/>
      <point x="467" y="263"/>
      <point x="469" y="256"/>
      <point x="469" y="251" type="curve" smooth="yes"/>
      <point x="469" y="247"/>
      <point x="469" y="241"/>
      <point x="469" y="233" type="curve"/>
      <point x="513" y="257"/>
      <point x="531" y="279"/>
      <point x="531" y="296" type="curve" smooth="yes"/>
      <point x="531" y="306" type="line" smooth="yes"/>
      <point x="531" y="329"/>
      <point x="524" y="342"/>
      <point x="493" y="370" type="curve" smooth="yes"/>
      <point x="390" y="460"/>
      <point x="287" y="533"/>
    </contour>
  </outline>
</glyph>
<glyph name="A" format="1">
  <advance width="600"/>
  <unicode hex="0041"/>
  <outline>
    <contour>
      <point x="165" y="-7" type="curve"/>
      <point x="174" y="335"/>
      <point x="218" y="502"/>
      <point x="320" y="631" type="curve"/>
      <point x="341" y="655"/>
      <point x="323" y="710"/>
      <point x="279" y="710" type="curve"/>
      <point x="255" y="710" type="line"/>
      <point x="131" y="563"/>
      <point x="61" y="315"/>
      <point x="61" y="34" type="curve"/>
      <point x="61" y="1"/>
      <point x="94" y="-10"/>
      <point x="136" y="-10" type="curve" smooth="yes"/>
      <point x="150" y="-10"/>
      <point x="156" y="-9"/>
    </contour>
    <contour>
      <point x="540" y="-7" type="curve"/>
      <point x="535" y="254"/>
      <point x="481" y="474"/>
      <point x="415" y="604" type="curve"/>
      <point x="394" y="647"/>
      <point x="374" y="673"/>
      <point x="355" y="692" type="curve" smooth="yes"/>
      <point x="345" y="702"/>
      <point x="316" y="710"/>
      <point x="279" y="710" type="curve"/>
      <point x="259" y="710"/>
      <point x="236" y="672"/>
      <point x="236" y="647" type="curve"/>
      <point x="243" y="647"/>
      <point x="249" y="647"/>
      <point x="255" y="647" type="curve" smooth="yes"/>
      <point x="271" y="647"/>
      <point x="276" y="647"/>
      <point x="294" y="620" type="curve"/>
      <point x="382" y="495"/>
      <point x="425" y="308"/>
      <point x="433" y="36" type="curve"/>
      <point x="434" y="24"/>
      <point x="436" y="18"/>
      <point x="443" y="11" type="curve" smooth="yes"/>
      <point x="457" y="-3"/>
      <point x="485" y="-10"/>
      <point x="511" y="-10" type="curve" smooth="yes"/>
      <point x="523" y="-10"/>
      <point x="531" y="-9"/>
    </contour>
    <contour>
      <point x="38" y="280" type="line"/>
      <point x="38" y="262" type="line" smooth="yes"/>
      <point x="38" y="233"/>
      <point x="43" y="207"/>
      <point x="58" y="193" type="curve" smooth="yes"/>
      <point x="62" y="188"/>
      <point x="66" y="186"/>
      <point x="72" y="186" type="curve"/>
      <point x="449" y="186" type="line"/>
      <point x="449" y="249"/>
      <point x="412" y="280"/>
      <point x="336" y="280" type="curve" smooth="yes"/>
    </contour>
    <contour>
      <point x="300" y="710" type="move" name="top"/>
    </contour>
    <contour>
      <point x="541" y="-7" type="move" name="ogonek"/>
    </contour>
    <contour>
      <point x="299" y="705" type="move" name="ring"/>
    </contour>
    <contour>
      <point x="294" y="-1" type="move" name="bottom"/>
    </contour>
  </outline>
</glyph>
<glyph name="B" format="1">
  <advance width="600"/>
  <unicode hex="0042"/>
  <outline>
    <contour>
      <point x="191" y="23" type="curve"/>
      <point x="191" y="555" type="line" smooth="yes"/>
      <point x="191" y="620"/>
      <point x="158" y="648"/>
      <point x="88" y="648" type="curve"/>
      <point x="88" y="56" type="line"/>
      <point x="88" y="36"/>
      <point x="135" y="23"/>
    </contour>
    <contour>
      <point x="38" y="700" type="curve"/>
      <point x="36" y="690"/>
      <point x="35" y="680"/>
      <point x="35" y="667" type="curve" smooth="yes"/>
      <point x="35" y="638"/>
      <point x="40" y="620"/>
      <point x="51" y="608" type="curve" smooth="yes"/>
      <point x="57" y="603"/>
      <point x="63" y="602"/>
      <point x="70" y="602" type="curve" smooth="yes"/>
      <point x="78" y="602"/>
      <point x="91" y="604"/>
      <point x="115" y="607" type="curve" smooth="yes"/>
      <point x="163" y="615"/>
      <point x="226" y="622"/>
      <point x="286" y="622" type="curve" smooth="yes"/>
      <point x="372" y="622"/>
      <point x="414" y="607"/>
      <point x="464" y="563" type="curve"/>
      <point x="530" y="629"/>
      <point x="426" y="720"/>
      <point x="303" y="720" type="curve" smooth="yes"/>
      <point x="218" y="720"/>
      <point x="134" y="716"/>
    </contour>
    <contour>
      <point x="532" y="508" type="curve" smooth="yes"/>
      <point x="532" y="528" type="line" smooth="yes"/>
      <point x="532" y="624"/>
      <point x="455" y="720"/>
      <point x="303" y="720" type="curve" smooth="yes"/>
      <point x="288" y="720"/>
      <point x="275" y="706"/>
      <point x="275" y="671" type="curve"/>
      <point x="376" y="671"/>
      <point x="434" y="607"/>
      <point x="434" y="516" type="curve" smooth="yes"/>
      <point x="434" y="498" type="line" smooth="yes"/>
      <point x="434" y="409"/>
      <point x="357" y="362"/>
      <point x="232" y="362" type="curve" smooth="yes"/>
      <point x="199" y="362"/>
      <point x="186" y="365"/>
      <point x="165" y="377" type="curve"/>
      <point x="157" y="370"/>
      <point x="153" y="358"/>
      <point x="153" y="347" type="curve" smooth="yes"/>
      <point x="153" y="313"/>
      <point x="192" y="280"/>
      <point x="230" y="280" type="curve" smooth="yes"/>
      <point x="243" y="280" type="line" smooth="yes"/>
      <point x="400" y="280"/>
      <point x="532" y="367"/>
    </contour>
    <contour>
      <point x="527" y="194" type="curve" smooth="yes"/>
      <point x="527" y="215" type="line" smooth="yes"/>
      <point x="527" y="286"/>
      <point x="458" y="352"/>
      <point x="392" y="352" type="curve" smooth="yes"/>
      <point x="386" y="352" type="line" smooth="yes"/>
      <point x="352" y="352"/>
      <point x="329" y="334"/>
      <point x="329" y="320" type="curve"/>
      <point x="329" y="317" type="line"/>
      <point x="336" y="317" type="line"/>
      <point x="385" y="317"/>
      <point x="428" y="271"/>
      <point x="428" y="218" type="curve" smooth="yes"/>
      <point x="428" y="202" type="line" smooth="yes"/>
      <point x="428" y="125"/>
      <point x="356" y="86"/>
      <point x="272" y="86" type="curve" smooth="yes"/>
      <point x="184" y="86"/>
      <point x="147" y="93"/>
      <point x="104" y="111" type="curve"/>
      <point x="92" y="93"/>
      <point x="88" y="72"/>
      <point x="88" y="56" type="curve" smooth="yes"/>
      <point x="88" y="23"/>
      <point x="157" y="-10"/>
      <point x="265" y="-10" type="curve" smooth="yes"/>
      <point x="275" y="-10" type="line" smooth="yes"/>
      <point x="411" y="-10"/>
      <point x="527" y="65"/>
    </contour>
  </outline>
</glyph>
<glyph name="C" format="1">
  <advance width="600"/>
  <unicode hex="0043"/>
  <outline>
    <contour>
      <point x="372" y="628" type="curve" smooth="yes"/>
      <point x="427" y="628"/>
      <point x="471" y="604"/>
      <point x="483" y="508" type="curve"/>
      <point x="516" y="508"/>
      <point x="525" y="515"/>
      <point x="525" y="528" type="curve" smooth="yes"/>
      <point x="525" y="598"/>
      <point x="509" y="647"/>
      <point x="478" y="678" type="curve" smooth="yes"/>
      <point x="452" y="705"/>
      <point x="414" y="720"/>
      <point x="362" y="720" type="curve" smooth="yes"/>
      <point x="191" y="720"/>
      <point x="71" y="538"/>
      <point x="71" y="287" type="curve" smooth="yes"/>
      <point x="71" y="261" type="line" smooth="yes"/>
      <point x="71" y="208"/>
      <point x="124" y="147"/>
      <point x="179" y="149" type="curve"/>
      <point x="172" y="179"/>
      <point x="168" y="229"/>
      <point x="168" y="267" type="curve" smooth="yes"/>
      <point x="168" y="281" type="line" smooth="yes"/>
      <point x="168" y="480"/>
      <point x="260" y="628"/>
    </contour>
    <contour>
      <point x="329" y="-20" type="curve" smooth="yes"/>
      <point x="408" y="-20"/>
      <point x="472" y="2"/>
      <point x="510" y="40" type="curve" smooth="yes"/>
      <point x="531" y="61"/>
      <point x="540" y="89"/>
      <point x="540" y="131" type="curve" smooth="yes"/>
      <point x="540" y="144"/>
      <point x="538" y="159"/>
      <point x="535" y="175" type="curve"/>
      <point x="531" y="175" type="line"/>
      <point x="482" y="110"/>
      <point x="420" y="78"/>
      <point x="328" y="78" type="curve" smooth="yes"/>
      <point x="203" y="78"/>
      <point x="162" y="177"/>
      <point x="162" y="318" type="curve"/>
      <point x="98" y="319"/>
      <point x="71" y="303"/>
      <point x="71" y="261" type="curve" smooth="yes"/>
      <point x="71" y="99"/>
      <point x="166" y="-20"/>
    </contour>
    <contour>
      <point x="525" y="415" type="curve"/>
      <point x="525" y="528" type="line" smooth="yes"/>
      <point x="525" y="626"/>
      <point x="471" y="675"/>
      <point x="418" y="664" type="curve"/>
      <point x="422" y="607"/>
      <point x="421" y="573"/>
      <point x="421" y="523" type="curve" smooth="yes"/>
      <point x="421" y="454" type="line"/>
      <point x="421" y="442"/>
      <point x="425" y="433"/>
      <point x="432" y="425" type="curve" smooth="yes"/>
      <point x="442" y="415"/>
      <point x="460" y="411"/>
      <point x="489" y="411" type="curve"/>
      <point x="504" y="411"/>
      <point x="516" y="412"/>
    </contour>
    <contour>
      <point x="330" y="711" type="move" name="top"/>
    </contour>
    <contour>
      <point x="329" y="-6" type="move" name="bottom"/>
    </contour>
  </outline>
</glyph>
<glyph name="D" format="1">
  <advance width="650"/>
  <unicode hex="0044"/>
  <outline>
    <contour>
      <point x="191" y="29" type="curve"/>
      <point x="191" y="555" type="line" smooth="yes"/>
      <point x="191" y="621"/>
      <point x="158" y="648"/>
      <point x="88" y="648" type="curve"/>
      <point x="88" y="66" type="line" smooth="yes"/>
      <point x="88" y="46"/>
      <point x="132" y="29"/>
    </contour>
    <contour>
      <point x="39" y="700" type="curve"/>
      <point x="36" y="690"/>
      <point x="35" y="680"/>
      <point x="35" y="667" type="curve"/>
      <point x="35" y="638"/>
      <point x="40" y="620"/>
      <point x="51" y="608" type="curve" smooth="yes"/>
      <point x="57" y="603"/>
      <point x="63" y="602"/>
      <point x="70" y="602" type="curve" smooth="yes"/>
      <point x="78" y="602"/>
      <point x="91" y="604"/>
      <point x="115" y="607" type="curve" smooth="yes"/>
      <point x="163" y="615"/>
      <point x="226" y="622"/>
      <point x="286" y="622" type="curve"/>
      <point x="389" y="622"/>
      <point x="436" y="602"/>
      <point x="498" y="541" type="curve"/>
      <point x="562" y="620"/>
      <point x="445" y="720"/>
      <point x="294" y="720" type="curve" smooth="yes"/>
      <point x="212" y="720"/>
      <point x="130" y="715"/>
    </contour>
    <contour>
      <point x="587" y="389" type="curve" smooth="yes"/>
      <point x="587" y="408" type="line" smooth="yes"/>
      <point x="587" y="620"/>
      <point x="493" y="720"/>
      <point x="294" y="720" type="curve" smooth="yes"/>
      <point x="271" y="720"/>
      <point x="244" y="707"/>
      <point x="244" y="671" type="curve"/>
      <point x="451" y="662"/>
      <point x="485" y="567"/>
      <point x="485" y="400" type="curve" smooth="yes"/>
      <point x="485" y="389" type="line" smooth="yes"/>
      <point x="485" y="209"/>
      <point x="389" y="91"/>
      <point x="246" y="91" type="curve" smooth="yes"/>
      <point x="187" y="91"/>
      <point x="154" y="96"/>
      <point x="108" y="119" type="curve"/>
      <point x="94" y="108"/>
      <point x="88" y="92"/>
      <point x="88" y="66" type="curve" smooth="yes"/>
      <point x="88" y="30"/>
      <point x="162" y="-10"/>
      <point x="245" y="-10" type="curve" smooth="yes"/>
      <point x="250" y="-10" type="line" smooth="yes"/>
      <point x="446" y="-10"/>
      <point x="587" y="151"/>
    </contour>
    <contour>
      <point x="311" y="711" type="move" name="top"/>
    </contour>
  </outline>
</glyph>
<glyph name="E" format="1">
  <advance width="550"/>
  <unicode hex="0045"/>
  <outline>
    <contour>
      <point x="38" y="700" type="line"/>
      <point x="38" y="695"/>
      <point x="38" y="688"/>
      <point x="38" y="683" type="curve" smooth="yes"/>
      <point x="38" y="651"/>
      <point x="42" y="620"/>
      <point x="55" y="608" type="curve" smooth="yes"/>
      <point x="59" y="604"/>
      <point x="63" y="602"/>
      <point x="69" y="602" type="curve" smooth="yes"/>
      <point x="500" y="602" type="line"/>
      <point x="503" y="611"/>
      <point x="505" y="623"/>
      <point x="505" y="636" type="curve" smooth="yes"/>
      <point x="505" y="651"/>
      <point x="501" y="678"/>
      <point x="488" y="692" type="curve" smooth="yes"/>
      <point x="482" y="698"/>
      <point x="476" y="700"/>
      <point x="465" y="700" type="curve" smooth="yes"/>
    </contour>
    <contour>
      <point x="191" y="50" type="curve"/>
      <point x="191" y="541" type="line" smooth="yes"/>
      <point x="191" y="606"/>
      <point x="165" y="631"/>
      <point x="88" y="631" type="curve"/>
      <point x="88" y="88" type="line"/>
      <point x="88" y="58"/>
      <point x="134" y="50"/>
    </contour>
    <contour>
      <point x="88" y="98" type="line"/>
      <point x="88" y="85" type="line" smooth="yes"/>
      <point x="88" y="46"/>
      <point x="124" y="0"/>
      <point x="156" y="0" type="curve" smooth="yes"/>
      <point x="502" y="0" type="line"/>
      <point x="504" y="9"/>
      <point x="505" y="21"/>
      <point x="505" y="33" type="curve" smooth="yes"/>
      <point x="505" y="79"/>
      <point x="492" y="98"/>
      <point x="463" y="98" type="curve" smooth="yes"/>
    </contour>
    <contour>
      <point x="132" y="374" type="line"/>
      <point x="132" y="312"/>
      <point x="141" y="285"/>
      <point x="171" y="285" type="curve" smooth="yes"/>
      <point x="439" y="285" type="line"/>
      <point x="439" y="291"/>
      <point x="439" y="297"/>
      <point x="439" y="303" type="curve" smooth="yes"/>
      <point x="439" y="323"/>
      <point x="432" y="347"/>
      <point x="414" y="364" type="curve" smooth="yes"/>
      <point x="406" y="373"/>
      <point x="402" y="374"/>
      <point x="391" y="374" type="curve" smooth="yes"/>
    </contour>
    <contour>
      <point x="272" y="711" type="move" name="top"/>
    </contour>
    <contour>
      <point x="503" y="0" type="move" name="ogonek"/>
    </contour>
    <contour>
      <point x="272" y="-1" type="move" name="bottom"/>
    </contour>
  </outline>
</glyph>
<glyph name="F" format="1">
  <advance width="550"/>
  <unicode hex="0046"/>
  <outline>
    <contour>
      <point x="210" y="-7" type="curve"/>
      <point x="202" y="26"/>
      <point x="201" y="48"/>
      <point x="201" y="88" type="curve" smooth="yes"/>
      <point x="201" y="541" type="line"/>
      <point x="201" y="609"/>
      <point x="174" y="635"/>
      <point x="98" y="635" type="curve"/>
      <point x="98" y="48" type="line" smooth="yes"/>
      <point x="98" y="10"/>
      <point x="128" y="-7"/>
      <point x="200" y="-7" type="curve" smooth="yes"/>
      <point x="204" y="-7"/>
      <point x="207" y="-7"/>
    </contour>
    <contour>
      <point x="38" y="700" type="line"/>
      <point x="38" y="695"/>
      <point x="38" y="688"/>
      <point x="38" y="683" type="curve" smooth="yes"/>
      <point x="38" y="646"/>
      <point x="44" y="619"/>
      <point x="55" y="608" type="curve" smooth="yes"/>
      <point x="60" y="603"/>
      <point x="63" y="602"/>
      <point x="69" y="602" type="curve"/>
      <point x="505" y="602" type="line"/>
      <point x="508" y="610"/>
      <point x="510" y="622"/>
      <point x="510" y="636" type="curve" smooth="yes"/>
      <point x="510" y="658"/>
      <point x="504" y="681"/>
      <point x="493" y="692" type="curve" smooth="yes"/>
      <point x="487" y="698"/>
      <point x="482" y="700"/>
      <point x="470" y="700" type="curve"/>
    </contour>
    <contour>
      <point x="118" y="324" type="line"/>
      <point x="118" y="262"/>
      <point x="126" y="226"/>
      <point x="156" y="226" type="curve"/>
      <point x="463" y="226" type="line"/>
      <point x="464" y="232"/>
      <point x="465" y="238"/>
      <point x="465" y="245" type="curve"/>
      <point x="465" y="270"/>
      <point x="455" y="296"/>
      <point x="440" y="311" type="curve" smooth="yes"/>
      <point x="429" y="322"/>
      <point x="422" y="324"/>
      <point x="405" y="324" type="curve"/>
    </contour>
  </outline>
</glyph>
<glyph name="H" format="1">
  <advance width="650"/>
  <unicode hex="0048"/>
  <outline>
    <contour>
      <point x="83" y="705" type="curve"/>
      <point x="91" y="670"/>
      <point x="93" y="634"/>
      <point x="93" y="595" type="curve" smooth="yes"/>
      <point x="93" y="34" type="line" smooth="yes"/>
      <point x="93" y="3"/>
      <point x="122" y="-10"/>
      <point x="173" y="-10" type="curve" smooth="yes"/>
      <point x="183" y="-10"/>
      <point x="191" y="-10"/>
      <point x="196" y="-9" type="curve"/>
      <point x="196" y="645" type="line" smooth="yes"/>
      <point x="196" y="669"/>
      <point x="193" y="684"/>
      <point x="182" y="695" type="curve" smooth="yes"/>
      <point x="172" y="706"/>
      <point x="156" y="710"/>
      <point x="124" y="710" type="curve" smooth="yes"/>
      <point x="109" y="710"/>
      <point x="97" y="709"/>
    </contour>
    <contour>
      <point x="577" y="-5" type="curve"/>
      <point x="569" y="30"/>
      <point x="567" y="66"/>
      <point x="567" y="105" type="curve" smooth="yes"/>
      <point x="567" y="666" type="line" smooth="yes"/>
      <point x="567" y="696"/>
      <point x="534" y="710"/>
      <point x="477" y="710" type="curve" smooth="yes"/>
      <point x="472" y="710"/>
      <point x="467" y="710"/>
      <point x="464" y="710" type="curve"/>
      <point x="464" y="55" type="line" smooth="yes"/>
      <point x="464" y="31"/>
      <point x="467" y="16"/>
      <point x="478" y="5" type="curve" smooth="yes"/>
      <point x="488" y="-6"/>
      <point x="504" y="-10"/>
      <point x="536" y="-10" type="curve" smooth="yes"/>
      <point x="551" y="-10"/>
      <point x="563" y="-9"/>
    </contour>
    <contour>
      <point x="38" y="348" type="line"/>
      <point x="38" y="331" type="line" smooth="yes"/>
      <point x="38" y="298"/>
      <point x="46" y="273"/>
      <point x="62" y="256" type="curve" smooth="yes"/>
      <point x="67" y="252"/>
      <point x="70" y="250"/>
      <point x="76" y="250" type="curve"/>
      <point x="496" y="250" type="line"/>
      <point x="496" y="323"/>
      <point x="468" y="348"/>
      <point x="404" y="348" type="curve" smooth="yes"/>
    </contour>
    <contour>
      <point x="307" y="711" type="move" name="top"/>
    </contour>
  </outline>
</glyph>
<glyph name="I" format="1">
  <advance width="500"/>
  <unicode hex="0049"/>
  <outline>
    <contour>
      <point x="302" y="55" type="curve"/>
      <point x="302" y="541" type="line" smooth="yes"/>
      <point x="302" y="606"/>
      <point x="277" y="631"/>
      <point x="198" y="631" type="curve"/>
      <point x="198" y="161" type="line" smooth="yes"/>
      <point x="198" y="89"/>
      <point x="223" y="55"/>
    </contour>
    <contour>
      <point x="60" y="700" type="line"/>
      <point x="57" y="694"/>
      <point x="56" y="685"/>
      <point x="56" y="674" type="curve"/>
      <point x="56" y="650"/>
      <point x="62" y="631"/>
      <point x="75" y="618" type="curve" smooth="yes"/>
      <point x="88" y="605"/>
      <point x="105" y="602"/>
      <point x="143" y="602" type="curve" smooth="yes"/>
      <point x="441" y="602" type="line"/>
      <point x="444" y="613"/>
      <point x="445" y="626"/>
      <point x="445" y="637" type="curve" smooth="yes"/>
      <point x="445" y="674"/>
      <point x="437" y="700"/>
      <point x="403" y="700" type="curve" smooth="yes"/>
    </contour>
    <contour>
      <point x="61" y="98" type="line"/>
      <point x="57" y="89"/>
      <point x="56" y="77"/>
      <point x="56" y="65" type="curve"/>
      <point x="56" y="44"/>
      <point x="59" y="24"/>
      <point x="72" y="12" type="curve" smooth="yes"/>
      <point x="81" y="3"/>
      <point x="89" y="0"/>
      <point x="111" y="0" type="curve" smooth="yes"/>
      <point x="442" y="0" type="line"/>
      <point x="444" y="9"/>
      <point x="445" y="21"/>
      <point x="445" y="33" type="curve" smooth="yes"/>
      <point x="445" y="72"/>
      <point x="437" y="98"/>
      <point x="403" y="98" type="curve" smooth="yes"/>
    </contour>
    <contour>
      <point x="250" y="711" type="move" name="top"/>
    </contour>
    <contour>
      <point x="443" y="0" type="move" name="ogonek"/>
    </contour>
    <contour>
      <point x="250" y="-1" type="move" name="bottom"/>
    </contour>
  </outline>
</glyph>
<glyph name="J" format="1">
  <advance width="500"/>
  <unicode hex="004A"/>
  <outline>
    <contour>
      <point x="75" y="700" type="line"/>
      <point x="74" y="694"/>
      <point x="73" y="686"/>
      <point x="73" y="677" type="curve" smooth="yes"/>
      <point x="73" y="651"/>
      <point x="79" y="631"/>
      <point x="93" y="617" type="curve" smooth="yes"/>
      <point x="105" y="605"/>
      <point x="120" y="602"/>
      <point x="155" y="602" type="curve" smooth="yes"/>
      <point x="387" y="602" type="line"/>
      <point x="387" y="673"/>
      <point x="372" y="700"/>
      <point x="339" y="700" type="curve"/>
    </contour>
    <contour>
      <point x="434" y="210" type="curve" smooth="yes"/>
      <point x="434" y="664" type="line" smooth="yes"/>
      <point x="434" y="686"/>
      <point x="410" y="700"/>
      <point x="353" y="700" type="curve" smooth="yes"/>
      <point x="332" y="700" type="line"/>
      <point x="332" y="230" type="line" smooth="yes"/>
      <point x="332" y="136"/>
      <point x="315" y="93"/>
      <point x="265" y="44" type="curve"/>
      <point x="337" y="14"/>
      <point x="434" y="104"/>
    </contour>
    <contour>
      <point x="217" y="78" type="curve" smooth="yes"/>
      <point x="140" y="78"/>
      <point x="113" y="92"/>
      <point x="51" y="125" type="curve"/>
      <point x="47" y="125" type="line"/>
      <point x="46" y="115"/>
      <point x="45" y="105"/>
      <point x="45" y="95" type="curve"/>
      <point x="45" y="54"/>
      <point x="55" y="28"/>
      <point x="67" y="16" type="curve" smooth="yes"/>
      <point x="92" y="-8"/>
      <point x="140" y="-20"/>
      <point x="203" y="-20" type="curve" smooth="yes"/>
      <point x="210" y="-20" type="line" smooth="yes"/>
      <point x="348" y="-20"/>
      <point x="434" y="89"/>
      <point x="434" y="210" type="curve"/>
      <point x="434" y="231"/>
      <point x="422" y="254"/>
      <point x="368" y="271" type="curve"/>
      <point x="368" y="129"/>
      <point x="314" y="78"/>
    </contour>
    <contour>
      <point x="254" y="711" type="move" name="top"/>
    </contour>
  </outline>
</glyph>
<glyph name="L" format="1">
  <advance width="550"/>
  <unicode hex="004C"/>
  <outline>
    <contour>
      <point x="186" y="46" type="curve"/>
      <point x="186" y="645" type="line" smooth="yes"/>
      <point x="186" y="669"/>
      <point x="183" y="684"/>
      <point x="172" y="695" type="curve" smooth="yes"/>
      <point x="162" y="706"/>
      <point x="146" y="710"/>
      <point x="114" y="710" type="curve" smooth="yes"/>
      <point x="99" y="710"/>
      <point x="87" y="709"/>
      <point x="73" y="705" type="curve"/>
      <point x="81" y="670"/>
      <point x="83" y="634"/>
      <point x="83" y="595" type="curve" smooth="yes"/>
      <point x="83" y="89" type="line" smooth="yes"/>
      <point x="83" y="58"/>
      <point x="124" y="46"/>
    </contour>
    <contour>
      <point x="83" y="98" type="line"/>
      <point x="83" y="85" type="line" smooth="yes"/>
      <point x="83" y="46"/>
      <point x="119" y="0"/>
      <point x="151" y="0" type="curve" smooth="yes"/>
      <point x="502" y="0" type="line"/>
      <point x="504" y="9"/>
      <point x="505" y="21"/>
      <point x="505" y="33" type="curve" smooth="yes"/>
      <point x="505" y="79"/>
      <point x="492" y="98"/>
      <point x="463" y="98" type="curve" smooth="yes"/>
    </contour>
    <contour>
      <point x="393" y="551" type="move" name="caronslovak"/>
    </contour>
    <contour>
      <point x="136" y="711" type="move" name="top"/>
    </contour>
    <contour>
      <point x="439" y="400" type="move" name="dot"/>
    </contour>
    <contour>
      <point x="289" y="-1" type="move" name="bottom"/>
    </contour>
  </outline>
</glyph>
<glyph name="M" format="1">
  <advance width="800"/>
  <unicode hex="004D"/>
  <outline>
    <contour>
      <point x="166" y="-9" type="curve"/>
      <point x="163" y="28"/>
      <point x="162" y="64"/>
      <point x="162" y="102" type="curve" smooth="yes"/>
      <point x="162" y="264"/>
      <point x="179" y="477"/>
      <point x="213" y="659" type="curve" smooth="yes"/>
      <point x="216" y="674"/>
      <point x="211" y="687"/>
      <point x="205" y="694" type="curve" smooth="yes"/>
      <point x="193" y="706"/>
      <point x="174" y="710"/>
      <point x="141" y="710" type="curve" smooth="yes"/>
      <point x="126" y="710"/>
      <point x="114" y="709"/>
      <point x="100" y="706" type="curve"/>
      <point x="106" y="666"/>
      <point x="106" y="642"/>
      <point x="100" y="597" type="curve" smooth="yes"/>
      <point x="77" y="409"/>
      <point x="63" y="232"/>
      <point x="63" y="34" type="curve" smooth="yes"/>
      <point x="63" y="24"/>
      <point x="66" y="15"/>
      <point x="73" y="9" type="curve" smooth="yes"/>
      <point x="86" y="-4"/>
      <point x="109" y="-10"/>
      <point x="143" y="-10" type="curve" smooth="yes"/>
      <point x="153" y="-10"/>
      <point x="161" y="-10"/>
    </contour>
    <contour>
      <point x="744" y="-5" type="curve"/>
      <point x="735" y="32"/>
      <point x="732" y="72"/>
      <point x="732" y="111" type="curve" smooth="yes"/>
      <point x="729" y="309"/>
      <point x="710" y="483"/>
      <point x="685" y="657" type="curve"/>
      <point x="683" y="672"/>
      <point x="679" y="682"/>
      <point x="671" y="689" type="curve" smooth="yes"/>
      <point x="657" y="703"/>
      <point x="618" y="710"/>
      <point x="579" y="710" type="curve" smooth="yes"/>
      <point x="576" y="710" type="line"/>
      <point x="580" y="689"/>
      <point x="582" y="667"/>
      <point x="586" y="645" type="curve"/>
      <point x="614" y="475"/>
      <point x="628" y="301"/>
      <point x="630" y="162" type="curve" smooth="yes"/>
      <point x="631" y="122"/>
      <point x="630" y="85"/>
      <point x="629" y="52" type="curve" smooth="yes"/>
      <point x="629" y="24"/>
      <point x="634" y="14"/>
      <point x="642" y="5" type="curve" smooth="yes"/>
      <point x="653" y="-6"/>
      <point x="670" y="-10"/>
      <point x="701" y="-10" type="curve" smooth="yes"/>
      <point x="717" y="-10"/>
      <point x="730" y="-9"/>
    </contour>
    <contour>
      <point x="263" y="672" type="curve" smooth="yes"/>
      <point x="259" y="694"/>
      <point x="217" y="710"/>
      <point x="151" y="710" type="curve"/>
      <point x="142" y="710" type="line"/>
      <point x="165" y="688"/>
      <point x="183" y="659"/>
      <point x="186" y="637" type="curve" smooth="yes"/>
      <point x="224" y="348"/>
      <point x="328" y="163"/>
      <point x="363" y="128" type="curve"/>
      <point x="375" y="115"/>
      <point x="384" y="112"/>
      <point x="405" y="112" type="curve" smooth="yes"/>
      <point x="425" y="112"/>
      <point x="440" y="133"/>
      <point x="439" y="172" type="curve"/>
      <point x="351" y="320"/>
      <point x="310" y="437"/>
    </contour>
    <contour>
      <point x="538" y="706" type="curve"/>
      <point x="496" y="463"/>
      <point x="443" y="320"/>
      <point x="369" y="195" type="curve"/>
      <point x="355" y="170"/>
      <point x="378" y="112"/>
      <point x="405" y="112" type="curve"/>
      <point x="429" y="112" type="line"/>
      <point x="534" y="279"/>
      <point x="609" y="555"/>
      <point x="609" y="670" type="curve" smooth="yes"/>
      <point x="609" y="695"/>
      <point x="599" y="710"/>
      <point x="576" y="710" type="curve" smooth="yes"/>
      <point x="561" y="710"/>
      <point x="552" y="709"/>
    </contour>
  </outline>
</glyph>
<glyph name="P" format="1">
  <advance width="600"/>
  <unicode hex="0050"/>
  <outline>
    <contour>
      <point x="201" y="-5" type="curve"/>
      <point x="194" y="30"/>
      <point x="191" y="66"/>
      <point x="191" y="105" type="curve" smooth="yes"/>
      <point x="191" y="555" type="line" smooth="yes"/>
      <point x="191" y="621"/>
      <point x="158" y="648"/>
      <point x="88" y="648" type="curve"/>
      <point x="88" y="55" type="line" smooth="yes"/>
      <point x="88" y="31"/>
      <point x="91" y="16"/>
      <point x="102" y="5" type="curve" smooth="yes"/>
      <point x="113" y="-6"/>
      <point x="128" y="-10"/>
      <point x="160" y="-10" type="curve" smooth="yes"/>
      <point x="175" y="-10"/>
      <point x="187" y="-9"/>
    </contour>
    <contour>
      <point x="38" y="700" type="curve"/>
      <point x="36" y="690"/>
      <point x="35" y="680"/>
      <point x="35" y="667" type="curve"/>
      <point x="35" y="638"/>
      <point x="40" y="620"/>
      <point x="51" y="608" type="curve" smooth="yes"/>
      <point x="57" y="603"/>
      <point x="63" y="602"/>
      <point x="70" y="602" type="curve" smooth="yes"/>
      <point x="78" y="602"/>
      <point x="91" y="604"/>
      <point x="115" y="607" type="curve" smooth="yes"/>
      <point x="161" y="615"/>
      <point x="222" y="622"/>
      <point x="280" y="622" type="curve" smooth="yes"/>
      <point x="369" y="622"/>
      <point x="408" y="602"/>
      <point x="458" y="550" type="curve"/>
      <point x="530" y="622"/>
      <point x="418" y="720"/>
      <point x="292" y="720" type="curve" smooth="yes"/>
      <point x="211" y="720"/>
      <point x="130" y="715"/>
    </contour>
    <contour>
      <point x="537" y="480" type="curve" smooth="yes"/>
      <point x="537" y="519" type="line" smooth="yes"/>
      <point x="537" y="635"/>
      <point x="435" y="720"/>
      <point x="292" y="720" type="curve"/>
      <point x="263" y="720"/>
      <point x="253" y="703"/>
      <point x="253" y="675" type="curve"/>
      <point x="374" y="666"/>
      <point x="435" y="620"/>
      <point x="435" y="511" type="curve" smooth="yes"/>
      <point x="435" y="479" type="line" smooth="yes"/>
      <point x="435" y="346"/>
      <point x="345" y="266"/>
      <point x="237" y="266" type="curve" smooth="yes"/>
      <point x="203" y="266"/>
      <point x="192" y="268"/>
      <point x="176" y="271" type="curve"/>
      <point x="171" y="265"/>
      <point x="169" y="260"/>
      <point x="169" y="250" type="curve" smooth="yes"/>
      <point x="169" y="218"/>
      <point x="214" y="172"/>
      <point x="256" y="172" type="curve" smooth="yes"/>
      <point x="260" y="172" type="line" smooth="yes"/>
      <point x="406" y="172"/>
      <point x="537" y="293"/>
    </contour>
  </outline>
</glyph>
<glyph name="Q" format="1">
  <advance width="650"/>
  <unicode hex="0051"/>
  <outline>
    <contour>
      <point x="325" y="720" type="curve" smooth="yes"/>
      <point x="161" y="720"/>
      <point x="63" y="591"/>
      <point x="63" y="354" type="curve" smooth="yes"/>
      <point x="63" y="320" type="line" smooth="yes"/>
      <point x="63" y="95"/>
      <point x="152" y="-20"/>
      <point x="324" y="-20" type="curve" smooth="yes"/>
      <point x="353" y="-20"/>
      <point x="373" y="9"/>
      <point x="373" y="53" type="curve"/>
      <point x="224" y="56"/>
      <point x="161" y="143"/>
      <point x="161" y="316" type="curve" smooth="yes"/>
      <point x="161" y="344" type="line" smooth="yes"/>
      <point x="161" y="538"/>
      <point x="220" y="622"/>
      <point x="329" y="622" type="curve" smooth="yes"/>
      <point x="376" y="622"/>
      <point x="411" y="613"/>
      <point x="452" y="590" type="curve"/>
      <point x="493" y="629"/>
      <point x="407" y="720"/>
    </contour>
    <contour>
      <point x="324" y="-20" type="curve" smooth="yes"/>
      <point x="489" y="-20"/>
      <point x="587" y="109"/>
      <point x="587" y="346" type="curve" smooth="yes"/>
      <point x="587" y="380" type="line" smooth="yes"/>
      <point x="587" y="604"/>
      <point x="495" y="720"/>
      <point x="325" y="720" type="curve" smooth="yes"/>
      <point x="296" y="720"/>
      <point x="277" y="691"/>
      <point x="277" y="647" type="curve"/>
      <point x="426" y="644"/>
      <point x="489" y="557"/>
      <point x="489" y="384" type="curve" smooth="yes"/>
      <point x="489" y="356" type="line" smooth="yes"/>
      <point x="489" y="162"/>
      <point x="430" y="78"/>
      <point x="321" y="78" type="curve" smooth="yes"/>
      <point x="274" y="78"/>
      <point x="241" y="88"/>
      <point x="200" y="110" type="curve"/>
      <point x="157" y="69"/>
      <point x="244" y="-20"/>
    </contour>
    <contour>
      <point x="446" y="94" type="line"/>
      <point x="389" y="62"/>
      <point x="375" y="37"/>
      <point x="385" y="19" type="curve" smooth="yes"/>
      <point x="445" y="-78" type="line" smooth="yes"/>
      <point x="484" y="-139"/>
      <point x="519" y="-170"/>
      <point x="564" y="-170" type="curve" smooth="yes"/>
      <point x="568" y="-170" type="line" smooth="yes"/>
      <point x="611" y="-170"/>
      <point x="634" y="-142"/>
      <point x="634" y="-90" type="curve" smooth="yes"/>
      <point x="634" y="-68"/>
      <point x="632" y="-54"/>
      <point x="629" y="-39" type="curve"/>
      <point x="625" y="-39" type="line"/>
      <point x="614" y="-48"/>
      <point x="602" y="-52"/>
      <point x="585" y="-52" type="curve" smooth="yes"/>
      <point x="557" y="-52"/>
      <point x="538" y="-41"/>
      <point x="517" y="-12" type="curve" smooth="yes"/>
    </contour>
  </outline>
</glyph>
<glyph name="U" format="1">
  <advance width="650"/>
  <unicode hex="0055"/>
  <outline>
    <contour>
      <point x="67" y="704" type="curve"/>
      <point x="76" y="669"/>
      <point x="80" y="629"/>
      <point x="80" y="579" type="curve" smooth="yes"/>
      <point x="80" y="149" type="line"/>
      <point x="80" y="109"/>
      <point x="111" y="92"/>
      <point x="162" y="102" type="curve"/>
      <point x="182" y="288"/>
      <point x="196" y="399"/>
      <point x="196" y="546" type="curve"/>
      <point x="196" y="552" type="line"/>
      <point x="196" y="673"/>
      <point x="162" y="710"/>
      <point x="108" y="710" type="curve"/>
      <point x="93" y="710"/>
      <point x="81" y="708"/>
    </contour>
    <contour>
      <point x="231" y="-15" type="curve" smooth="yes"/>
      <point x="313" y="-15"/>
      <point x="403" y="31"/>
      <point x="468" y="127" type="curve" smooth="yes"/>
      <point x="494" y="172"/>
      <point x="504" y="192"/>
      <point x="476" y="245" type="curve"/>
      <point x="394" y="128"/>
      <point x="325" y="93"/>
      <point x="247" y="93" type="curve" smooth="yes"/>
      <point x="191" y="93"/>
      <point x="161" y="124"/>
      <point x="152" y="198" type="curve"/>
      <point x="119" y="193"/>
      <point x="80" y="172"/>
      <point x="80" y="149" type="curve" smooth="yes"/>
      <point x="80" y="67"/>
      <point x="146" y="-15"/>
    </contour>
    <contour>
      <point x="574" y="-7" type="curve"/>
      <point x="568" y="28"/>
      <point x="567" y="63"/>
      <point x="567" y="100" type="curve" smooth="yes"/>
      <point x="567" y="669" type="line" smooth="yes"/>
      <point x="567" y="698"/>
      <point x="539" y="710"/>
      <point x="491" y="710" type="curve" smooth="yes"/>
      <point x="481" y="710"/>
      <point x="472" y="709"/>
      <point x="464" y="707" type="curve"/>
      <point x="464" y="68" type="line" smooth="yes"/>
      <point x="464" y="41"/>
      <point x="468" y="23"/>
      <point x="483" y="8" type="curve" smooth="yes"/>
      <point x="495" y="-4"/>
      <point x="518" y="-10"/>
      <point x="544" y="-10" type="curve" smooth="yes"/>
      <point x="556" y="-10"/>
      <point x="564" y="-9"/>
    </contour>
    <contour>
      <point x="320" y="711" type="move" name="top"/>
    </contour>
    <contour>
      <point x="575" y="-7" type="move" name="ogonek"/>
    </contour>
    <contour>
      <point x="320" y="706" type="move" name="ring"/>
    </contour>
    <contour>
      <point x="320" y="-1" type="move" name="bottom"/>
    </contour>
  </outline>
</glyph>
<glyph name="V" format="1">
  <advance width="650"/>
  <unicode hex="0056"/>
  <outline>
    <contour>
      <point x="73" y="710" type="curve"/>
      <point x="56" y="710" type="line"/>
      <point x="71" y="329"/>
      <point x="130" y="153"/>
      <point x="258" y="25" type="curve"/>
      <point x="287" y="-3"/>
      <point x="310" y="-10"/>
      <point x="333" y="-10" type="curve"/>
      <point x="364" y="-10"/>
      <point x="384" y="7"/>
      <point x="397" y="46" type="curve"/>
      <point x="392" y="46"/>
      <point x="389" y="46"/>
      <point x="385" y="46" type="curve" smooth="yes"/>
      <point x="379" y="46"/>
      <point x="373" y="48"/>
      <point x="366" y="53" type="curve"/>
      <point x="233" y="169"/>
      <point x="178" y="287"/>
      <point x="161" y="676" type="curve"/>
      <point x="160" y="696"/>
      <point x="118" y="710"/>
    </contour>
    <contour>
      <point x="509" y="710" type="curve"/>
      <point x="492" y="710" type="line"/>
      <point x="469" y="314"/>
      <point x="432" y="183"/>
      <point x="299" y="67" type="curve"/>
      <point x="280" y="51"/>
      <point x="290" y="-10"/>
      <point x="333" y="-10" type="curve"/>
      <point x="368" y="-10" type="line"/>
      <point x="511" y="113"/>
      <point x="574" y="311"/>
      <point x="592" y="660" type="curve"/>
      <point x="594" y="688"/>
      <point x="554" y="710"/>
    </contour>
  </outline>
</glyph>
<glyph name="W" format="1">
  <advance width="900"/>
  <unicode hex="0057"/>
  <outline>
    <contour>
      <point x="50" y="710" type="curve"/>
      <point x="57" y="344"/>
      <point x="91" y="161"/>
      <point x="194" y="34" type="curve"/>
      <point x="218" y="5"/>
      <point x="242" y="-10"/>
      <point x="264" y="-10" type="curve"/>
      <point x="285" y="-10" type="line" smooth="yes"/>
      <point x="299" y="-10"/>
      <point x="306" y="13"/>
      <point x="306" y="44" type="curve"/>
      <point x="206" y="139"/>
      <point x="173" y="274"/>
      <point x="157" y="670" type="curve"/>
      <point x="157" y="682"/>
      <point x="155" y="685"/>
      <point x="150" y="690" type="curve" smooth="yes"/>
      <point x="136" y="704"/>
      <point x="100" y="710"/>
      <point x="67" y="710" type="curve"/>
      <point x="62" y="710"/>
      <point x="56" y="710"/>
    </contour>
    <contour>
      <point x="750" y="710" type="curve"/>
      <point x="737" y="339"/>
      <point x="708" y="184"/>
      <point x="602" y="67" type="curve"/>
      <point x="581" y="45"/>
      <point x="599" y="-10"/>
      <point x="638" y="-10" type="curve"/>
      <point x="672" y="-10" type="line"/>
      <point x="790" y="112"/>
      <point x="843" y="353"/>
      <point x="849" y="659" type="curve" smooth="yes"/>
      <point x="849" y="669"/>
      <point x="849" y="675"/>
      <point x="844" y="680" type="curve" smooth="yes"/>
      <point x="826" y="697"/>
      <point x="798" y="710"/>
      <point x="767" y="710" type="curve"/>
      <point x="761" y="710"/>
      <point x="755" y="710"/>
    </contour>
    <contour>
      <point x="432" y="617" type="curve"/>
      <point x="405" y="617" type="line"/>
      <point x="371" y="335"/>
      <point x="328" y="175"/>
      <point x="239" y="61" type="curve"/>
      <point x="219" y="40"/>
      <point x="236" y="-10"/>
      <point x="264" y="-10" type="curve"/>
      <point x="299" y="-10" type="line"/>
      <point x="391" y="106"/>
      <point x="450" y="311"/>
      <point x="477" y="557" type="curve" smooth="yes"/>
      <point x="480" y="588"/>
      <point x="458" y="617"/>
    </contour>
    <contour>
      <point x="436" y="617" type="curve"/>
      <point x="423" y="617" type="line"/>
      <point x="454" y="314"/>
      <point x="492" y="138"/>
      <point x="572" y="25" type="curve" smooth="yes"/>
      <point x="593" y="0"/>
      <point x="613" y="-10"/>
      <point x="638" y="-10" type="curve"/>
      <point x="657" y="-10" type="line"/>
      <point x="666" y="-10"/>
      <point x="674" y="14"/>
      <point x="668" y="44" type="curve"/>
      <point x="571" y="159"/>
      <point x="539" y="286"/>
      <point x="506" y="581" type="curve" smooth="yes"/>
      <point x="503" y="600"/>
      <point x="472" y="617"/>
    </contour>
    <contour>
      <point x="449" y="711" type="move" name="top"/>
    </contour>
  </outline>
</glyph>
<glyph name="X" format="1">
  <advance width="650"/>
  <unicode hex="0058"/>
  <outline>
    <contour>
      <point x="575" y="-8" type="curve" smooth="yes"/>
      <point x="595" y="-8"/>
      <point x="611" y="-5"/>
      <point x="625" y="0" type="curve"/>
      <point x="543" y="77"/>
      <point x="448" y="198"/>
      <point x="363" y="323" type="curve" smooth="yes"/>
      <point x="356" y="334"/>
      <point x="349" y="345"/>
      <point x="342" y="356" type="curve" smooth="yes"/>
      <point x="263" y="473"/>
      <point x="195" y="591"/>
      <point x="161" y="676" type="curve" smooth="yes"/>
      <point x="150" y="701"/>
      <point x="114" y="708"/>
      <point x="43" y="708" type="curve" smooth="yes"/>
      <point x="25" y="708" type="line"/>
      <point x="78" y="588"/>
      <point x="169" y="435"/>
      <point x="263" y="298" type="curve" smooth="yes"/>
      <point x="270" y="288"/>
      <point x="277" y="277"/>
      <point x="284" y="267" type="curve" smooth="yes"/>
      <point x="355" y="168"/>
      <point x="425" y="80"/>
      <point x="480" y="25" type="curve" smooth="yes"/>
      <point x="500" y="1"/>
      <point x="533" y="-8"/>
    </contour>
    <contour>
      <point x="526" y="708" type="curve" smooth="yes"/>
      <point x="511" y="708" type="line"/>
      <point x="468" y="553"/>
      <point x="410" y="449"/>
      <point x="312" y="352" type="curve"/>
      <point x="284" y="321"/>
      <point x="315" y="281"/>
      <point x="362" y="284" type="curve"/>
      <point x="489" y="399"/>
      <point x="557" y="509"/>
      <point x="608" y="664" type="curve"/>
      <point x="611" y="673"/>
      <point x="610" y="679"/>
      <point x="606" y="683" type="curve" smooth="yes"/>
      <point x="588" y="701"/>
      <point x="557" y="708"/>
    </contour>
    <contour>
      <point x="119" y="-8" type="curve"/>
      <point x="134" y="-8" type="line"/>
      <point x="175" y="98"/>
      <point x="236" y="184"/>
      <point x="314" y="258" type="curve"/>
      <point x="340" y="284"/>
      <point x="313" y="336"/>
      <point x="270" y="338" type="curve"/>
      <point x="159" y="234"/>
      <point x="85" y="139"/>
      <point x="35" y="39" type="curve" smooth="yes"/>
      <point x="29" y="28"/>
      <point x="32" y="21"/>
      <point x="37" y="16" type="curve" smooth="yes"/>
      <point x="53" y="-1"/>
      <point x="84" y="-8"/>
    </contour>
  </outline>
</glyph>
<glyph name="bracketleft" format="1">
  <advance width="400"/>
  <unicode hex="005B"/>
  <outline>
    <contour>
      <point x="50" y="645" type="curve" smooth="yes"/>
      <point x="50" y="-64" type="line" smooth="yes"/>
      <point x="50" y="-95"/>
      <point x="106" y="-101"/>
      <point x="153" y="-101" type="curve"/>
      <point x="153" y="705" type="line" smooth="yes"/>
      <point x="153" y="745"/>
      <point x="140" y="760"/>
      <point x="86" y="760" type="curve" smooth="yes"/>
      <point x="69" y="760"/>
      <point x="55" y="759"/>
      <point x="40" y="755" type="curve"/>
      <point x="47" y="719"/>
      <point x="50" y="684"/>
    </contour>
    <contour>
      <point x="355" y="662" type="line"/>
      <point x="358" y="671"/>
      <point x="360" y="683"/>
      <point x="360" y="696" type="curve" smooth="yes"/>
      <point x="360" y="711"/>
      <point x="356" y="738"/>
      <point x="343" y="752" type="curve" smooth="yes"/>
      <point x="337" y="758"/>
      <point x="331" y="760"/>
      <point x="320" y="760" type="curve" smooth="yes"/>
      <point x="86" y="760" type="line"/>
      <point x="86" y="698"/>
      <point x="115" y="662"/>
      <point x="201" y="662" type="curve"/>
    </contour>
    <contour>
      <point x="357" y="-161" type="line"/>
      <point x="359" y="-152"/>
      <point x="360" y="-140"/>
      <point x="360" y="-128" type="curve" smooth="yes"/>
      <point x="360" y="-82"/>
      <point x="348" y="-63"/>
      <point x="318" y="-63" type="curve" smooth="yes"/>
      <point x="50" y="-63" type="line"/>
      <point x="50" y="-76" type="line" smooth="yes"/>
      <point x="50" y="-115"/>
      <point x="86" y="-161"/>
      <point x="117" y="-161" type="curve" smooth="yes"/>
    </contour>
  </outline>
</glyph>
<glyph name="bracketright" format="1">
  <advance width="400"/>
  <unicode hex="005D"/>
  <outline>
    <contour>
      <point x="350" y="-46" type="curve" smooth="yes"/>
      <point x="350" y="663" type="line" smooth="yes"/>
      <point x="350" y="694"/>
      <point x="294" y="700"/>
      <point x="247" y="700" type="curve"/>
      <point x="247" y="-106" type="line" smooth="yes"/>
      <point x="247" y="-146"/>
      <point x="260" y="-161"/>
      <point x="314" y="-161" type="curve" smooth="yes"/>
      <point x="331" y="-161"/>
      <point x="345" y="-160"/>
      <point x="360" y="-156" type="curve"/>
      <point x="353" y="-120"/>
      <point x="350" y="-85"/>
    </contour>
    <contour>
      <point x="45" y="-63" type="line"/>
      <point x="42" y="-72"/>
      <point x="40" y="-84"/>
      <point x="40" y="-97" type="curve" smooth="yes"/>
      <point x="40" y="-112"/>
      <point x="44" y="-139"/>
      <point x="57" y="-153" type="curve" smooth="yes"/>
      <point x="63" y="-159"/>
      <point x="69" y="-161"/>
      <point x="80" y="-161" type="curve" smooth="yes"/>
      <point x="314" y="-161" type="line"/>
      <point x="314" y="-99"/>
      <point x="285" y="-63"/>
      <point x="199" y="-63" type="curve"/>
    </contour>
    <contour>
      <point x="43" y="760" type="line"/>
      <point x="41" y="751"/>
      <point x="40" y="739"/>
      <point x="40" y="727" type="curve" smooth="yes"/>
      <point x="40" y="681"/>
      <point x="52" y="662"/>
      <point x="82" y="662" type="curve" smooth="yes"/>
      <point x="350" y="662" type="line"/>
      <point x="350" y="675" type="line" smooth="yes"/>
      <point x="350" y="714"/>
      <point x="314" y="760"/>
      <point x="283" y="760" type="curve" smooth="yes"/>
    </contour>
  </outline>
</glyph>
<glyph name="grave" format="1">
  <advance width="350"/>
  <unicode hex="0060"/>
  <outline>
    <contour>
      <point x="280" y="402" type="curve"/>
      <point x="226" y="490"/>
      <point x="206" y="571"/>
      <point x="206" y="712" type="curve"/>
      <point x="187" y="718"/>
      <point x="173" y="720"/>
      <point x="153" y="720" type="curve" smooth="yes"/>
      <point x="105" y="720"/>
      <point x="70" y="709"/>
      <point x="70" y="664" type="curve" smooth="yes"/>
      <point x="70" y="554"/>
      <point x="120" y="444"/>
      <point x="173" y="390" type="curve" smooth="yes"/>
      <point x="182" y="382"/>
      <point x="191" y="379"/>
      <point x="207" y="379" type="curve" smooth="yes"/>
      <point x="238" y="379"/>
      <point x="258" y="385"/>
    </contour>
  </outline>
</glyph>
<glyph name="c" format="1">
  <advance width="500"/>
  <unicode hex="0063"/>
  <outline>
    <contour>
      <point x="321" y="544" type="curve" smooth="yes"/>
      <point x="164" y="544"/>
      <point x="61" y="424"/>
      <point x="61" y="243" type="curve" smooth="yes"/>
      <point x="61" y="229" type="line" smooth="yes"/>
      <point x="61" y="66"/>
      <point x="158" y="-12"/>
      <point x="298" y="-11" type="curve" smooth="yes"/>
      <point x="318" y="-11"/>
      <point x="322" y="4"/>
      <point x="322" y="38" type="curve"/>
      <point x="213" y="47"/>
      <point x="159" y="126"/>
      <point x="159" y="222" type="curve" smooth="yes"/>
      <point x="159" y="235" type="line" smooth="yes"/>
      <point x="159" y="355"/>
      <point x="213" y="443"/>
      <point x="312" y="443" type="curve" smooth="yes"/>
      <point x="367" y="443"/>
      <point x="398" y="431"/>
      <point x="436" y="399" type="curve"/>
      <point x="440" y="399" type="line"/>
      <point x="447" y="416"/>
      <point x="450" y="433"/>
      <point x="450" y="455" type="curve"/>
      <point x="450" y="483"/>
      <point x="445" y="499"/>
      <point x="431" y="512" type="curve" smooth="yes"/>
      <point x="411" y="533"/>
      <point x="373" y="544"/>
    </contour>
    <contour>
      <point x="298" y="-11" type="curve" smooth="yes"/>
      <point x="360" y="-11"/>
      <point x="411" y="5"/>
      <point x="432" y="26" type="curve" smooth="yes"/>
      <point x="449" y="43"/>
      <point x="455" y="70"/>
      <point x="455" y="105" type="curve"/>
      <point x="455" y="120"/>
      <point x="454" y="129"/>
      <point x="452" y="138" type="curve"/>
      <point x="448" y="138" type="line"/>
      <point x="406" y="101"/>
      <point x="367" y="85"/>
      <point x="302" y="85" type="curve" smooth="yes"/>
      <point x="236" y="85"/>
      <point x="191" y="105"/>
      <point x="144" y="159" type="curve"/>
      <point x="96" y="83"/>
      <point x="177" y="-11"/>
    </contour>
    <contour>
      <point x="283" y="544" type="move" name="top"/>
    </contour>
    <contour>
      <point x="285" y="-1" type="move" name="bottom"/>
    </contour>
  </outline>
</glyph>
<glyph name="f" format="1">
  <advance width="400"/>
  <unicode hex="0066"/>
  <outline>
    <contour>
      <point x="218" y="-3" type="curve"/>
      <point x="209" y="30"/>
      <point x="206" y="58"/>
      <point x="206" y="101" type="curve" smooth="yes"/>
      <point x="206" y="526" type="line" smooth="yes"/>
      <point x="200" y="555"/>
      <point x="197" y="580"/>
      <point x="197" y="613" type="curve" smooth="yes"/>
      <point x="197" y="689"/>
      <point x="230" y="728"/>
      <point x="308" y="727" type="curve"/>
      <point x="308" y="750"/>
      <point x="300" y="764"/>
      <point x="282" y="764" type="curve" smooth="yes"/>
      <point x="175" y="764"/>
      <point x="103" y="692"/>
      <point x="103" y="584" type="curve" smooth="yes"/>
      <point x="103" y="58" type="line" smooth="yes"/>
      <point x="103" y="6"/>
      <point x="132" y="-8"/>
      <point x="180" y="-8" type="curve" smooth="yes"/>
      <point x="193" y="-8"/>
      <point x="207" y="-7"/>
    </contour>
    <contour>
      <point x="158" y="625" type="curve"/>
      <point x="193" y="661"/>
      <point x="227" y="673"/>
      <point x="278" y="673" type="curve" smooth="yes"/>
      <point x="323" y="673"/>
      <point x="359" y="665"/>
      <point x="394" y="648" type="curve"/>
      <point x="398" y="648" type="line"/>
      <point x="401" y="657"/>
      <point x="402" y="669"/>
      <point x="402" y="681" type="curve"/>
      <point x="402" y="709"/>
      <point x="397" y="727"/>
      <point x="385" y="739" type="curve" smooth="yes"/>
      <point x="372" y="752"/>
      <point x="341" y="764"/>
      <point x="282" y="764" type="curve" smooth="yes"/>
      <point x="186" y="764"/>
      <point x="125" y="687"/>
    </contour>
    <contour>
      <point x="25" y="533" type="curve"/>
      <point x="25" y="528"/>
      <point x="25" y="523"/>
      <point x="25" y="518" type="curve" smooth="yes"/>
      <point x="25" y="485"/>
      <point x="31" y="465"/>
      <point x="44" y="452" type="curve" smooth="yes"/>
      <point x="56" y="440"/>
      <point x="68" y="434"/>
      <point x="103" y="434" type="curve" smooth="yes"/>
      <point x="201" y="434"/>
      <point x="280" y="434"/>
      <point x="369" y="434" type="curve"/>
      <point x="371" y="444"/>
      <point x="372" y="457"/>
      <point x="372" y="470" type="curve" smooth="yes"/>
      <point x="372" y="513"/>
      <point x="361" y="533"/>
      <point x="325" y="533" type="curve" smooth="yes"/>
      <point x="253" y="533"/>
      <point x="127" y="533"/>
    </contour>
  </outline>
</glyph>
<glyph name="g" format="1">
  <advance width="600"/>
  <unicode hex="0067"/>
  <outline>
    <contour>
      <point x="319" y="459" type="curve" smooth="yes"/>
      <point x="453" y="459"/>
      <point x="497" y="446"/>
      <point x="533" y="446" type="curve" smooth="yes"/>
      <point x="559" y="446"/>
      <point x="569" y="471"/>
      <point x="569" y="505" type="curve" smooth="yes"/>
      <point x="569" y="517"/>
      <point x="567" y="528"/>
      <point x="565" y="535" type="curve"/>
      <point x="487" y="542"/>
      <point x="418" y="547"/>
      <point x="327" y="547" type="curve" smooth="yes"/>
      <point x="168" y="547"/>
      <point x="75" y="468"/>
      <point x="75" y="352" type="curve" smooth="yes"/>
      <point x="75" y="345" type="line" smooth="yes"/>
      <point x="75" y="228"/>
      <point x="167" y="154"/>
      <point x="299" y="156" type="curve"/>
      <point x="331" y="156"/>
      <point x="338" y="168"/>
      <point x="338" y="202" type="curve"/>
      <point x="211" y="204"/>
      <point x="167" y="276"/>
      <point x="167" y="333" type="curve" smooth="yes"/>
      <point x="167" y="339" type="line" smooth="yes"/>
      <point x="167" y="420"/>
      <point x="221" y="459"/>
    </contour>
    <contour>
      <point x="293" y="241" type="curve" smooth="yes"/>
      <point x="235" y="241"/>
      <point x="203" y="252"/>
      <point x="158" y="281" type="curve"/>
      <point x="135" y="229"/>
      <point x="205" y="156"/>
      <point x="299" y="156" type="curve" smooth="yes"/>
      <point x="421" y="156"/>
      <point x="509" y="224"/>
      <point x="509" y="322" type="curve" smooth="yes"/>
      <point x="509" y="329" type="line" smooth="yes"/>
      <point x="509" y="405"/>
      <point x="455" y="457"/>
      <point x="395" y="475" type="curve" smooth="yes"/>
      <point x="372" y="484"/>
      <point x="340" y="480"/>
      <point x="332" y="471" type="curve"/>
      <point x="400" y="444"/>
      <point x="421" y="393"/>
      <point x="421" y="352" type="curve" smooth="yes"/>
      <point x="421" y="344" type="line" smooth="yes"/>
      <point x="421" y="275"/>
      <point x="374" y="241"/>
    </contour>
    <contour>
      <point x="170" y="76" type="curve" smooth="yes"/>
      <point x="170" y="71" type="line" smooth="yes"/>
      <point x="170" y="11"/>
      <point x="213" y="-26"/>
      <point x="289" y="-31" type="curve" smooth="yes"/>
      <point x="397" y="-38" type="line" smooth="yes"/>
      <point x="439" y="-41"/>
      <point x="459" y="-64"/>
      <point x="459" y="-100" type="curve" smooth="yes"/>
      <point x="459" y="-104" type="line" smooth="yes"/>
      <point x="459" y="-170"/>
      <point x="403" y="-210"/>
      <point x="258" y="-210" type="curve"/>
      <point x="258" y="-239"/>
      <point x="263" y="-250"/>
      <point x="282" y="-250" type="curve" smooth="yes"/>
      <point x="460" y="-250"/>
      <point x="557" y="-193"/>
      <point x="557" y="-75" type="curve" smooth="yes"/>
      <point x="557" y="-67" type="line" smooth="yes"/>
      <point x="557" y="3"/>
      <point x="507" y="47"/>
      <point x="424" y="53" type="curve" smooth="yes"/>
      <point x="305" y="61" type="line" smooth="yes"/>
      <point x="276" y="63"/>
      <point x="263" y="76"/>
      <point x="263" y="99" type="curve" smooth="yes"/>
      <point x="263" y="102" type="line" smooth="yes"/>
      <point x="263" y="128"/>
      <point x="272" y="151"/>
      <point x="297" y="175" type="curve"/>
      <point x="295" y="188"/>
      <point x="288" y="192"/>
      <point x="272" y="192" type="curve" smooth="yes"/>
      <point x="228" y="192"/>
      <point x="170" y="136"/>
    </contour>
    <contour>
      <point x="498" y="-127" type="curve"/>
      <point x="444" y="-165"/>
      <point x="395" y="-176"/>
      <point x="291" y="-176" type="curve" smooth="yes"/>
      <point x="259" y="-176" type="line" smooth="yes"/>
      <point x="183" y="-176"/>
      <point x="146" y="-154"/>
      <point x="146" y="-105" type="curve" smooth="yes"/>
      <point x="146" y="-100" type="line" smooth="yes"/>
      <point x="146" y="-46"/>
      <point x="175" y="-13"/>
      <point x="238" y="4" type="curve"/>
      <point x="236" y="22"/>
      <point x="219" y="34"/>
      <point x="197" y="34" type="curve" smooth="yes"/>
      <point x="106" y="29"/>
      <point x="45" y="-29"/>
      <point x="45" y="-109" type="curve" smooth="yes"/>
      <point x="45" y="-115" type="line" smooth="yes"/>
      <point x="45" y="-191"/>
      <point x="119" y="-250"/>
      <point x="254" y="-250" type="curve" smooth="yes"/>
      <point x="282" y="-250" type="line" smooth="yes"/>
      <point x="431" y="-250"/>
      <point x="515" y="-185"/>
    </contour>
  </outline>
</glyph>
<glyph name="i" format="1">
  <advance width="350"/>
  <unicode hex="0069"/>
  <outline>
    <contour>
      <point x="35" y="536" type="curve"/>
      <point x="33" y="527"/>
      <point x="32" y="515"/>
      <point x="32" y="502" type="curve" smooth="yes"/>
      <point x="32" y="456"/>
      <point x="46" y="437"/>
      <point x="65" y="437" type="curve" smooth="yes"/>
      <point x="82" y="437"/>
      <point x="114" y="448"/>
      <point x="179" y="448" type="curve"/>
      <point x="179" y="503"/>
      <point x="179" y="543"/>
      <point x="146" y="543" type="curve" smooth="yes"/>
      <point x="113" y="543"/>
      <point x="78" y="541"/>
    </contour>
    <contour>
      <point x="256" y="-3" type="curve"/>
      <point x="247" y="30"/>
      <point x="244" y="58"/>
      <point x="244" y="101" type="curve" smooth="yes"/>
      <point x="244" y="503" type="line" smooth="yes"/>
      <point x="244" y="530"/>
      <point x="218" y="543"/>
      <point x="155" y="543" type="curve" smooth="yes"/>
      <point x="146" y="543" type="line"/>
      <point x="146" y="58" type="line" smooth="yes"/>
      <point x="146" y="6"/>
      <point x="171" y="-8"/>
      <point x="219" y="-8" type="curve" smooth="yes"/>
      <point x="233" y="-8"/>
      <point x="245" y="-7"/>
    </contour>
    <contour>
      <point x="258" y="630" type="curve"/>
      <point x="258" y="697" type="line" smooth="yes"/>
      <point x="258" y="734"/>
      <point x="227" y="745"/>
      <point x="183" y="745" type="curve" smooth="yes"/>
      <point x="166" y="745"/>
      <point x="146" y="743"/>
      <point x="130" y="740" type="curve"/>
      <point x="130" y="673" type="line" smooth="yes"/>
      <point x="130" y="636"/>
      <point x="162" y="625"/>
      <point x="205" y="625" type="curve" smooth="yes"/>
      <point x="222" y="625"/>
      <point x="242" y="627"/>
    </contour>
    <contour>
      <point x="257" y="-3" type="move" name="ogonek"/>
    </contour>
    <contour>
      <point x="199" y="-1" type="move" name="bottom"/>
    </contour>
  </outline>
</glyph>
<glyph name="j" format="1">
  <advance width="350"/>
  <unicode hex="006A"/>
  <outline>
    <contour>
      <point x="43" y="535" type="curve"/>
      <point x="41" y="526"/>
      <point x="40" y="514"/>
      <point x="40" y="501" type="curve" smooth="yes"/>
      <point x="40" y="455"/>
      <point x="54" y="436"/>
      <point x="73" y="436" type="curve" smooth="yes"/>
      <point x="90" y="436"/>
      <point x="134" y="448"/>
      <point x="199" y="448" type="curve"/>
      <point x="199" y="512"/>
      <point x="191" y="543"/>
      <point x="166" y="543" type="curve" smooth="yes"/>
      <point x="136" y="543"/>
      <point x="80" y="538"/>
    </contour>
    <contour>
      <point x="265" y="-47" type="curve" smooth="yes"/>
      <point x="265" y="497" type="line" smooth="yes"/>
      <point x="265" y="508"/>
      <point x="262" y="514"/>
      <point x="254" y="522" type="curve" smooth="yes"/>
      <point x="240" y="536"/>
      <point x="207" y="543"/>
      <point x="174" y="543" type="curve" smooth="yes"/>
      <point x="166" y="543" type="line"/>
      <point x="166" y="-27" type="line" smooth="yes"/>
      <point x="166" y="-107"/>
      <point x="155" y="-146"/>
      <point x="119" y="-189" type="curve"/>
      <point x="170" y="-207"/>
      <point x="265" y="-132"/>
    </contour>
    <contour>
      <point x="95" y="-152" type="curve" smooth="yes"/>
      <point x="62" y="-152"/>
      <point x="43" y="-147"/>
      <point x="16" y="-131" type="curve"/>
      <point x="12" y="-131" type="line"/>
      <point x="9" y="-140"/>
      <point x="8" y="-148"/>
      <point x="8" y="-159" type="curve" smooth="yes"/>
      <point x="8" y="-187"/>
      <point x="15" y="-215"/>
      <point x="29" y="-229" type="curve" smooth="yes"/>
      <point x="43" y="-243"/>
      <point x="66" y="-250"/>
      <point x="100" y="-250" type="curve" smooth="yes"/>
      <point x="200" y="-250"/>
      <point x="265" y="-161"/>
      <point x="265" y="-47" type="curve" smooth="yes"/>
      <point x="265" y="-14"/>
      <point x="250" y="-11"/>
      <point x="235" y="-11" type="curve"/>
      <point x="215" y="-105"/>
      <point x="162" y="-152"/>
    </contour>
    <contour>
      <point x="275" y="630" type="curve"/>
      <point x="275" y="697" type="line" smooth="yes"/>
      <point x="275" y="734"/>
      <point x="243" y="745"/>
      <point x="199" y="745" type="curve" smooth="yes"/>
      <point x="182" y="745"/>
      <point x="162" y="743"/>
      <point x="146" y="740" type="curve"/>
      <point x="146" y="673" type="line" smooth="yes"/>
      <point x="146" y="636"/>
      <point x="178" y="625"/>
      <point x="221" y="625" type="curve" smooth="yes"/>
      <point x="239" y="625"/>
      <point x="258" y="627"/>
    </contour>
  </outline>
</glyph>
<glyph name="l" format="1">
  <advance width="300"/>
  <unicode hex="006C"/>
  <outline>
    <contour>
      <point x="78" y="657" type="curve"/>
      <point x="78" y="131" type="line" smooth="yes"/>
      <point x="78" y="57"/>
      <point x="148" y="10"/>
      <point x="199" y="23" type="curve"/>
      <point x="182" y="66"/>
      <point x="179" y="103"/>
      <point x="179" y="165" type="curve" smooth="yes"/>
      <point x="179" y="663" type="line" smooth="yes"/>
      <point x="179" y="701"/>
      <point x="177" y="719"/>
      <point x="160" y="736" type="curve" smooth="yes"/>
      <point x="144" y="752"/>
      <point x="123" y="757"/>
      <point x="95" y="757" type="curve" smooth="yes"/>
      <point x="85" y="757"/>
      <point x="76" y="756"/>
      <point x="66" y="754" type="curve"/>
      <point x="75" y="722"/>
      <point x="78" y="701"/>
    </contour>
    <contour>
      <point x="279" y="106" type="curve"/>
      <point x="275" y="106" type="line"/>
      <point x="261" y="95"/>
      <point x="243" y="88"/>
      <point x="219" y="88" type="curve" smooth="yes"/>
      <point x="175" y="88"/>
      <point x="154" y="112"/>
      <point x="145" y="168" type="curve"/>
      <point x="98" y="168"/>
      <point x="78" y="153"/>
      <point x="78" y="131" type="curve" smooth="yes"/>
      <point x="78" y="45"/>
      <point x="126" y="-10"/>
      <point x="199" y="-10" type="curve" smooth="yes"/>
      <point x="206" y="-10" type="line" smooth="yes"/>
      <point x="231" y="-10"/>
      <point x="251" y="-5"/>
      <point x="265" y="8" type="curve" smooth="yes"/>
      <point x="276" y="20"/>
      <point x="283" y="34"/>
      <point x="283" y="73" type="curve" smooth="yes"/>
      <point x="283" y="85"/>
      <point x="282" y="97"/>
    </contour>
    <contour>
      <point x="324" y="711" type="move" name="caronslovak"/>
    </contour>
    <contour>
      <point x="127" y="737" type="move" name="top"/>
    </contour>
    <contour>
      <point x="324" y="400" type="move" name="dot"/>
    </contour>
    <contour>
      <point x="174" y="-1" type="move" name="bottom"/>
    </contour>
  </outline>
</glyph>
<glyph name="m" format="1">
  <advance width="850"/>
  <unicode hex="006D"/>
  <outline>
    <contour>
      <point x="186" y="-3" type="curve"/>
      <point x="186" y="444" type="line" smooth="yes"/>
      <point x="186" y="483"/>
      <point x="182" y="502"/>
      <point x="166" y="518" type="curve" smooth="yes"/>
      <point x="150" y="534"/>
      <point x="120" y="538"/>
      <point x="100" y="538" type="curve" smooth="yes"/>
      <point x="90" y="538"/>
      <point x="80" y="537"/>
      <point x="71" y="535" type="curve"/>
      <point x="80" y="503"/>
      <point x="83" y="482"/>
      <point x="83" y="439" type="curve" smooth="yes"/>
      <point x="83" y="36" type="line" smooth="yes"/>
      <point x="83" y="0"/>
      <point x="114" y="-6"/>
      <point x="153" y="-6" type="curve" smooth="yes"/>
      <point x="166" y="-6"/>
      <point x="178" y="-5"/>
    </contour>
    <contour>
      <point x="359" y="544" type="curve" smooth="yes"/>
      <point x="268" y="544"/>
      <point x="197" y="456"/>
      <point x="169" y="358" type="curve" smooth="yes"/>
      <point x="155" y="305"/>
      <point x="148" y="256"/>
      <point x="167" y="214" type="curve"/>
      <point x="207" y="376"/>
      <point x="269" y="438"/>
      <point x="327" y="438" type="curve" smooth="yes"/>
      <point x="370" y="438"/>
      <point x="395" y="406"/>
      <point x="408" y="345" type="curve"/>
      <point x="455" y="346"/>
      <point x="477" y="368"/>
      <point x="477" y="391" type="curve" smooth="yes"/>
      <point x="477" y="467"/>
      <point x="428" y="544"/>
    </contour>
    <contour>
      <point x="477" y="0" type="curve"/>
      <point x="477" y="391" type="line"/>
      <point x="477" y="420"/>
      <point x="455" y="436"/>
      <point x="395" y="435" type="curve"/>
      <point x="381" y="311"/>
      <point x="369" y="218"/>
      <point x="369" y="129" type="curve" smooth="yes"/>
      <point x="369" y="124" type="line" smooth="yes"/>
      <point x="369" y="18"/>
      <point x="397" y="-4"/>
      <point x="449" y="-4" type="curve" smooth="yes"/>
      <point x="460" y="-4"/>
      <point x="468" y="-3"/>
    </contour>
    <contour>
      <point x="650" y="544" type="curve" smooth="yes"/>
      <point x="559" y="544"/>
      <point x="486" y="458"/>
      <point x="457" y="360" type="curve" smooth="yes"/>
      <point x="444" y="307"/>
      <point x="437" y="256"/>
      <point x="456" y="214" type="curve"/>
      <point x="496" y="376"/>
      <point x="559" y="438"/>
      <point x="619" y="438" type="curve" smooth="yes"/>
      <point x="660" y="438"/>
      <point x="686" y="406"/>
      <point x="698" y="345" type="curve"/>
      <point x="746" y="346"/>
      <point x="767" y="368"/>
      <point x="767" y="391" type="curve" smooth="yes"/>
      <point x="767" y="467"/>
      <point x="719" y="544"/>
    </contour>
    <contour>
      <point x="783" y="0" type="curve"/>
      <point x="770" y="51"/>
      <point x="767" y="86"/>
      <point x="767" y="141" type="curve" smooth="yes"/>
      <point x="767" y="391" type="line"/>
      <point x="767" y="421"/>
      <point x="745" y="439"/>
      <point x="686" y="437" type="curve"/>
      <point x="670" y="304"/>
      <point x="660" y="228"/>
      <point x="660" y="135" type="curve" smooth="yes"/>
      <point x="660" y="130" type="line" smooth="yes"/>
      <point x="660" y="24"/>
      <point x="694" y="-4"/>
      <point x="749" y="-4" type="curve" smooth="yes"/>
      <point x="761" y="-4"/>
      <point x="772" y="-2"/>
    </contour>
  </outline>
</glyph>
<glyph name="n" format="1">
  <advance width="600"/>
  <unicode hex="006E"/>
  <outline>
    <contour>
      <point x="183" y="-3" type="curve"/>
      <point x="183" y="412" type="line" smooth="yes"/>
      <point x="183" y="465"/>
      <point x="174" y="496"/>
      <point x="153" y="517" type="curve" smooth="yes"/>
      <point x="137" y="534"/>
      <point x="118" y="539"/>
      <point x="97" y="539" type="curve" smooth="yes"/>
      <point x="88" y="539"/>
      <point x="79" y="538"/>
      <point x="71" y="535" type="curve"/>
      <point x="80" y="504"/>
      <point x="83" y="482"/>
      <point x="83" y="439" type="curve" smooth="yes"/>
      <point x="83" y="36" type="line" smooth="yes"/>
      <point x="83" y="1"/>
      <point x="111" y="-5"/>
      <point x="150" y="-5" type="curve" smooth="yes"/>
      <point x="162" y="-5"/>
      <point x="174" y="-5"/>
    </contour>
    <contour>
      <point x="397" y="544" type="curve" smooth="yes"/>
      <point x="304" y="544"/>
      <point x="215" y="452"/>
      <point x="172" y="336" type="curve" smooth="yes"/>
      <point x="154" y="277"/>
      <point x="155" y="225"/>
      <point x="174" y="173" type="curve"/>
      <point x="216" y="347"/>
      <point x="294" y="438"/>
      <point x="369" y="438" type="curve" smooth="yes"/>
      <point x="407" y="438"/>
      <point x="433" y="406"/>
      <point x="445" y="345" type="curve"/>
      <point x="493" y="346"/>
      <point x="514" y="368"/>
      <point x="514" y="391" type="curve" smooth="yes"/>
      <point x="514" y="467"/>
      <point x="466" y="544"/>
    </contour>
    <contour>
      <point x="530" y="0" type="curve"/>
      <point x="518" y="51"/>
      <point x="514" y="86"/>
      <point x="514" y="141" type="curve" smooth="yes"/>
      <point x="514" y="391" type="line"/>
      <point x="514" y="421"/>
      <point x="492" y="439"/>
      <point x="433" y="437" type="curve"/>
      <point x="418" y="304"/>
      <point x="407" y="228"/>
      <point x="407" y="135" type="curve" smooth="yes"/>
      <point x="407" y="130" type="line" smooth="yes"/>
      <point x="407" y="24"/>
      <point x="441" y="-4"/>
      <point x="496" y="-4" type="curve" smooth="yes"/>
      <point x="508" y="-4"/>
      <point x="519" y="-2"/>
    </contour>
    <contour>
      <point x="84" y="711" type="move" name="caronslovak"/>
    </contour>
    <contour>
      <point x="300" y="544" type="move" name="top"/>
    </contour>
    <contour>
      <point x="301" y="-1" type="move" name="bottom"/>
    </contour>
  </outline>
</glyph>
<glyph name="o" format="1">
  <advance width="600"/>
  <unicode hex="006F"/>
  <outline>
    <contour>
      <point x="302" y="544" type="curve" smooth="yes"/>
      <point x="163" y="544"/>
      <point x="63" y="427"/>
      <point x="63" y="244" type="curve" smooth="yes"/>
      <point x="63" y="233" type="line" smooth="yes"/>
      <point x="63" y="71"/>
      <point x="162" y="-11"/>
      <point x="298" y="-11" type="curve" smooth="yes"/>
      <point x="324" y="-11"/>
      <point x="337" y="11"/>
      <point x="337" y="36" type="curve"/>
      <point x="205" y="46"/>
      <point x="159" y="123"/>
      <point x="159" y="232" type="curve" smooth="yes"/>
      <point x="159" y="238" type="line" smooth="yes"/>
      <point x="159" y="366"/>
      <point x="209" y="450"/>
      <point x="313" y="450" type="curve" smooth="yes"/>
      <point x="361" y="450"/>
      <point x="391" y="439"/>
      <point x="428" y="416" type="curve"/>
      <point x="482" y="449"/>
      <point x="401" y="544"/>
    </contour>
    <contour>
      <point x="298" y="-11" type="curve" smooth="yes"/>
      <point x="441" y="-11"/>
      <point x="537" y="83"/>
      <point x="537" y="234" type="curve" smooth="yes"/>
      <point x="537" y="245" type="line" smooth="yes"/>
      <point x="537" y="436"/>
      <point x="431" y="544"/>
      <point x="302" y="544" type="curve" smooth="yes"/>
      <point x="278" y="544"/>
      <point x="267" y="522"/>
      <point x="267" y="494" type="curve"/>
      <point x="384" y="488"/>
      <point x="441" y="397"/>
      <point x="441" y="246" type="curve" smooth="yes"/>
      <point x="441" y="240" type="line" smooth="yes"/>
      <point x="441" y="141"/>
      <point x="392" y="83"/>
      <point x="285" y="83" type="curve" smooth="yes"/>
      <point x="237" y="83"/>
      <point x="205" y="95"/>
      <point x="167" y="117" type="curve"/>
      <point x="130" y="79"/>
      <point x="195" y="-11"/>
    </contour>
    <contour>
      <point x="300" y="544" type="move" name="top"/>
    </contour>
    <contour>
      <point x="398" y="17" type="move" name="ogonek"/>
    </contour>
    <contour>
      <point x="300" y="-1" type="move" name="bottom"/>
    </contour>
  </outline>
</glyph>
<glyph name="p" format="1">
  <advance width="600"/>
  <unicode hex="0070"/>
  <outline>
    <contour>
      <point x="187" y="-210" type="curve"/>
      <point x="187" y="395" type="line" smooth="yes"/>
      <point x="187" y="463"/>
      <point x="180" y="493"/>
      <point x="157" y="517" type="curve" smooth="yes"/>
      <point x="141" y="532"/>
      <point x="122" y="538"/>
      <point x="103" y="538" type="curve"/>
      <point x="94" y="538"/>
      <point x="86" y="537"/>
      <point x="76" y="535" type="curve"/>
      <point x="85" y="503"/>
      <point x="88" y="482"/>
      <point x="88" y="439" type="curve" smooth="yes"/>
      <point x="88" y="-172" type="line" smooth="yes"/>
      <point x="88" y="-208"/>
      <point x="116" y="-214"/>
      <point x="151" y="-214" type="curve"/>
      <point x="165" y="-214"/>
      <point x="177" y="-213"/>
    </contour>
    <contour>
      <point x="385" y="544" type="curve" smooth="yes"/>
      <point x="294" y="544"/>
      <point x="204" y="462"/>
      <point x="172" y="355" type="curve" smooth="yes"/>
      <point x="160" y="313"/>
      <point x="164" y="264"/>
      <point x="178" y="233" type="curve"/>
      <point x="234" y="387"/>
      <point x="299" y="440"/>
      <point x="378" y="440" type="curve" smooth="yes"/>
      <point x="421" y="440"/>
      <point x="463" y="399"/>
      <point x="498" y="318" type="curve"/>
      <point x="530" y="320"/>
      <point x="542" y="329"/>
      <point x="542" y="337" type="curve" smooth="yes"/>
      <point x="542" y="457"/>
      <point x="474" y="544"/>
    </contour>
    <contour>
      <point x="328" y="-11" type="curve" smooth="yes"/>
      <point x="446" y="-11"/>
      <point x="542" y="87"/>
      <point x="542" y="318" type="curve" smooth="yes"/>
      <point x="542" y="337" type="line" smooth="yes"/>
      <point x="542" y="390"/>
      <point x="505" y="471"/>
      <point x="448" y="471" type="curve" smooth="yes"/>
      <point x="430" y="471"/>
      <point x="417" y="463"/>
      <point x="416" y="439" type="curve"/>
      <point x="437" y="404"/>
      <point x="441" y="373"/>
      <point x="441" y="317" type="curve" smooth="yes"/>
      <point x="441" y="307" type="line" smooth="yes"/>
      <point x="441" y="161"/>
      <point x="397" y="85"/>
      <point x="304" y="85" type="curve" smooth="yes"/>
      <point x="247" y="85"/>
      <point x="214" y="106"/>
      <point x="175" y="149" type="curve"/>
      <point x="165" y="135"/>
      <point x="162" y="105"/>
      <point x="173" y="86" type="curve" smooth="yes"/>
      <point x="185" y="40"/>
      <point x="250" y="-11"/>
    </contour>
  </outline>
</glyph>
<glyph name="t" format="1">
  <advance width="500"/>
  <unicode hex="0074"/>
  <outline>
    <contour>
      <point x="138" y="700" type="curve"/>
      <point x="138" y="148" type="line" smooth="yes"/>
      <point x="138" y="62"/>
      <point x="221" y="-2"/>
      <point x="280" y="26" type="curve"/>
      <point x="249" y="61"/>
      <point x="236" y="106"/>
      <point x="236" y="168" type="curve" smooth="yes"/>
      <point x="236" y="663" type="line" smooth="yes"/>
      <point x="236" y="697"/>
      <point x="207" y="704"/>
      <point x="174" y="704" type="curve" smooth="yes"/>
      <point x="160" y="704"/>
      <point x="148" y="703"/>
    </contour>
    <contour>
      <point x="435" y="121" type="curve"/>
      <point x="431" y="121" type="line"/>
      <point x="390" y="94"/>
      <point x="357" y="82"/>
      <point x="303" y="82" type="curve" smooth="yes"/>
      <point x="244" y="82"/>
      <point x="205" y="105"/>
      <point x="170" y="178" type="curve"/>
      <point x="148" y="177"/>
      <point x="138" y="166"/>
      <point x="138" y="148" type="curve" smooth="yes"/>
      <point x="138" y="51"/>
      <point x="209" y="-16"/>
      <point x="299" y="-16" type="curve" smooth="yes"/>
      <point x="309" y="-16" type="line" smooth="yes"/>
      <point x="367" y="-16"/>
      <point x="400" y="0"/>
      <point x="415" y="15" type="curve" smooth="yes"/>
      <point x="430" y="30"/>
      <point x="439" y="59"/>
      <point x="439" y="91" type="curve" smooth="yes"/>
      <point x="439" y="102"/>
      <point x="438" y="111"/>
    </contour>
    <contour>
      <point x="41" y="533" type="line"/>
      <point x="41" y="528"/>
      <point x="41" y="523"/>
      <point x="41" y="518" type="curve" smooth="yes"/>
      <point x="41" y="485"/>
      <point x="47" y="465"/>
      <point x="59" y="452" type="curve" smooth="yes"/>
      <point x="73" y="439"/>
      <point x="91" y="434"/>
      <point x="138" y="434" type="curve"/>
      <point x="434" y="434" type="line"/>
      <point x="436" y="444"/>
      <point x="437" y="457"/>
      <point x="437" y="470" type="curve" smooth="yes"/>
      <point x="437" y="513"/>
      <point x="426" y="533"/>
      <point x="390" y="533" type="curve"/>
    </contour>
    <contour>
      <point x="389" y="711" type="move" name="caronslovak"/>
    </contour>
    <contour>
      <point x="274" y="-1" type="move" name="bottom"/>
    </contour>
  </outline>
</glyph>
<glyph name="u" format="1">
  <advance width="600"/>
  <unicode hex="0075"/>
  <outline>
    <contour>
      <point x="415" y="536" type="curve"/>
      <point x="415" y="122" type="line" smooth="yes"/>
      <point x="415" y="69"/>
      <point x="423" y="37"/>
      <point x="444" y="17" type="curve" smooth="yes"/>
      <point x="461" y="0"/>
      <point x="479" y="-5"/>
      <point x="500" y="-5" type="curve" smooth="yes"/>
      <point x="509" y="-5"/>
      <point x="518" y="-4"/>
      <point x="527" y="-2" type="curve"/>
      <point x="518" y="30"/>
      <point x="515" y="52"/>
      <point x="515" y="95" type="curve" smooth="yes"/>
      <point x="515" y="497" type="line" smooth="yes"/>
      <point x="515" y="533"/>
      <point x="486" y="539"/>
      <point x="448" y="539" type="curve" smooth="yes"/>
      <point x="435" y="539"/>
      <point x="423" y="538"/>
    </contour>
    <contour>
      <point x="201" y="-11" type="curve" smooth="yes"/>
      <point x="294" y="-11"/>
      <point x="383" y="82"/>
      <point x="426" y="197" type="curve" smooth="yes"/>
      <point x="443" y="257"/>
      <point x="443" y="309"/>
      <point x="424" y="361" type="curve"/>
      <point x="381" y="186"/>
      <point x="303" y="96"/>
      <point x="228" y="96" type="curve" smooth="yes"/>
      <point x="191" y="96"/>
      <point x="165" y="127"/>
      <point x="153" y="189" type="curve"/>
      <point x="105" y="188"/>
      <point x="84" y="166"/>
      <point x="84" y="143" type="curve" smooth="yes"/>
      <point x="84" y="67"/>
      <point x="132" y="-11"/>
    </contour>
    <contour>
      <point x="68" y="534" type="curve"/>
      <point x="80" y="483"/>
      <point x="84" y="448"/>
      <point x="84" y="393" type="curve" smooth="yes"/>
      <point x="84" y="143" type="line"/>
      <point x="84" y="112"/>
      <point x="105" y="95"/>
      <point x="165" y="96" type="curve"/>
      <point x="180" y="230"/>
      <point x="191" y="305"/>
      <point x="191" y="399" type="curve" smooth="yes"/>
      <point x="191" y="404" type="line" smooth="yes"/>
      <point x="191" y="510"/>
      <point x="157" y="538"/>
      <point x="102" y="538" type="curve" smooth="yes"/>
      <point x="89" y="538"/>
      <point x="79" y="536"/>
    </contour>
    <contour>
      <point x="300" y="544" type="move" name="top"/>
    </contour>
    <contour>
      <point x="528" y="-2" type="move" name="ogonek"/>
    </contour>
    <contour>
      <point x="301" y="-1" type="move" name="bottom"/>
    </contour>
  </outline>
</glyph>
<glyph name="w" format="1">
  <advance width="800"/>
  <unicode hex="0077"/>
  <outline>
    <contour>
      <point x="56" y="540" type="curve"/>
      <point x="72" y="235"/>
      <point x="107" y="114"/>
      <point x="172" y="33" type="curve"/>
      <point x="197" y="2"/>
      <point x="216" y="-10"/>
      <point x="238" y="-10" type="curve"/>
      <point x="256" y="-10" type="line" smooth="yes"/>
      <point x="266" y="-10"/>
      <point x="279" y="20"/>
      <point x="279" y="43" type="curve"/>
      <point x="213" y="112"/>
      <point x="183" y="188"/>
      <point x="163" y="499" type="curve"/>
      <point x="162" y="514"/>
      <point x="159" y="520"/>
      <point x="153" y="526" type="curve" smooth="yes"/>
      <point x="142" y="537"/>
      <point x="113" y="543"/>
      <point x="82" y="543" type="curve"/>
      <point x="74" y="543"/>
      <point x="63" y="542"/>
    </contour>
    <contour>
      <point x="352" y="514" type="curve"/>
      <point x="327" y="261"/>
      <point x="289" y="141"/>
      <point x="225" y="56" type="curve"/>
      <point x="212" y="39"/>
      <point x="234" y="-10"/>
      <point x="251" y="-10" type="curve"/>
      <point x="275" y="-10" type="line"/>
      <point x="349" y="84"/>
      <point x="399" y="253"/>
      <point x="425" y="457" type="curve"/>
      <point x="428" y="482"/>
      <point x="413" y="517"/>
      <point x="379" y="517" type="curve" smooth="yes"/>
      <point x="370" y="517"/>
      <point x="361" y="516"/>
    </contour>
    <contour>
      <point x="366" y="512" type="curve"/>
      <point x="392" y="292"/>
      <point x="444" y="101"/>
      <point x="511" y="14" type="curve"/>
      <point x="529" y="-7"/>
      <point x="548" y="-10"/>
      <point x="567" y="-10" type="curve"/>
      <point x="584" y="-10" type="line" smooth="yes"/>
      <point x="588" y="-10"/>
      <point x="589" y="20"/>
      <point x="589" y="42" type="curve"/>
      <point x="511" y="122"/>
      <point x="483" y="259"/>
      <point x="457" y="476" type="curve"/>
      <point x="454" y="508"/>
      <point x="422" y="517"/>
      <point x="379" y="517" type="curve" smooth="yes"/>
      <point x="373" y="517"/>
      <point x="368" y="516"/>
    </contour>
    <contour>
      <point x="650" y="540" type="curve"/>
      <point x="625" y="216"/>
      <point x="604" y="154"/>
      <point x="536" y="65" type="curve"/>
      <point x="520" y="47"/>
      <point x="545" y="-10"/>
      <point x="576" y="-10" type="curve"/>
      <point x="596" y="-10" type="line"/>
      <point x="694" y="101"/>
      <point x="726" y="248"/>
      <point x="749" y="488" type="curve"/>
      <point x="750" y="501"/>
      <point x="748" y="511"/>
      <point x="740" y="519" type="curve" smooth="yes"/>
      <point x="726" y="532"/>
      <point x="707" y="543"/>
      <point x="675" y="543" type="curve"/>
      <point x="667" y="543"/>
      <point x="657" y="542"/>
    </contour>
    <contour>
      <point x="402" y="544" type="move" name="top"/>
    </contour>
  </outline>
</glyph>
<glyph name="z" format="1">
  <advance width="550"/>
  <unicode hex="007A"/>
  <outline>
    <contour>
      <point x="59" y="533" type="line"/>
      <point x="57" y="525"/>
      <point x="57" y="517"/>
      <point x="57" y="508" type="curve" smooth="yes"/>
      <point x="57" y="480"/>
      <point x="64" y="458"/>
      <point x="77" y="445" type="curve" smooth="yes"/>
      <point x="84" y="438"/>
      <point x="91" y="434"/>
      <point x="104" y="434" type="curve" smooth="yes"/>
      <point x="314" y="434" type="line" smooth="yes"/>
      <point x="368" y="434"/>
      <point x="438" y="437"/>
      <point x="491" y="448" type="curve"/>
      <point x="491" y="453" type="line" smooth="yes"/>
      <point x="491" y="484"/>
      <point x="479" y="505"/>
      <point x="462" y="522" type="curve" smooth="yes"/>
      <point x="454" y="530"/>
      <point x="446" y="533"/>
      <point x="432" y="533" type="curve" smooth="yes"/>
    </contour>
    <contour>
      <point x="410" y="486" type="curve"/>
      <point x="331" y="347"/>
      <point x="210" y="200"/>
      <point x="57" y="90" type="curve"/>
      <point x="57" y="58"/>
      <point x="110" y="50"/>
      <point x="148" y="70" type="curve" smooth="yes"/>
      <point x="315" y="175"/>
      <point x="491" y="406"/>
      <point x="491" y="448" type="curve"/>
      <point x="491" y="475"/>
      <point x="461" y="486"/>
    </contour>
    <contour>
      <point x="488" y="0" type="line"/>
      <point x="489" y="10"/>
      <point x="491" y="23"/>
      <point x="491" y="36" type="curve"/>
      <point x="491" y="80"/>
      <point x="480" y="98"/>
      <point x="443" y="98" type="curve" smooth="yes"/>
      <point x="246" y="98" type="line" smooth="yes"/>
      <point x="181" y="98"/>
      <point x="118" y="96"/>
      <point x="57" y="90" type="curve"/>
      <point x="57" y="81" type="line" smooth="yes"/>
      <point x="57" y="49"/>
      <point x="64" y="23"/>
      <point x="80" y="8" type="curve" smooth="yes"/>
      <point x="85" y="2"/>
      <point x="91" y="0"/>
      <point x="100" y="0" type="curve" smooth="yes"/>
    </contour>
    <contour>
      <point x="274" y="544" type="move" name="top"/>
    </contour>
  </outline>
</glyph>
<glyph name="braceleft" format="1">
  <advance width="500"/>
  <unicode hex="007B"/>
  <outline>
    <contour>
      <point x="386" y="672" type="curve" smooth="yes"/>
      <point x="412" y="672"/>
      <point x="433" y="670"/>
      <point x="451" y="664" type="curve"/>
      <point x="455" y="664" type="line"/>
      <point x="457" y="674"/>
      <point x="459" y="683"/>
      <point x="459" y="698" type="curve"/>
      <point x="459" y="737"/>
      <point x="434" y="770"/>
      <point x="397" y="770" type="curve" smooth="yes"/>
      <point x="392" y="770" type="line" smooth="yes"/>
      <point x="269" y="770"/>
      <point x="178" y="727"/>
      <point x="178" y="653" type="curve" smooth="yes"/>
      <point x="178" y="650" type="line" smooth="yes"/>
      <point x="178" y="627"/>
      <point x="205" y="604"/>
      <point x="234" y="602" type="curve"/>
      <point x="257" y="655"/>
      <point x="312" y="672"/>
    </contour>
    <contour>
      <point x="318" y="450" type="curve" smooth="yes"/>
      <point x="318" y="546"/>
      <point x="256" y="605"/>
      <point x="256" y="643" type="curve" smooth="yes"/>
      <point x="256" y="662"/>
      <point x="261" y="676"/>
      <point x="271" y="694" type="curve"/>
      <point x="226" y="702"/>
      <point x="178" y="694"/>
      <point x="178" y="652" type="curve" smooth="yes"/>
      <point x="178" y="647" type="line" smooth="yes"/>
      <point x="178" y="593"/>
      <point x="224" y="543"/>
      <point x="224" y="463" type="curve" smooth="yes"/>
      <point x="224" y="391"/>
      <point x="175" y="345"/>
      <point x="61" y="345" type="curve" smooth="yes"/>
      <point x="55" y="345" type="line"/>
      <point x="55" y="335" type="line" smooth="yes"/>
      <point x="55" y="308"/>
      <point x="62" y="285"/>
      <point x="87" y="285" type="curve" smooth="yes"/>
      <point x="102" y="285" type="line" smooth="yes"/>
      <point x="222" y="285"/>
      <point x="318" y="345"/>
    </contour>
    <contour>
      <point x="318" y="149" type="curve" smooth="yes"/>
      <point x="318" y="258"/>
      <point x="226" y="315"/>
      <point x="103" y="315" type="curve" smooth="yes"/>
      <point x="76" y="315"/>
      <point x="65" y="328"/>
      <point x="55" y="338" type="curve"/>
      <point x="55" y="330" type="line" smooth="yes"/>
      <point x="55" y="289"/>
      <point x="70" y="253"/>
      <point x="96" y="253" type="curve" smooth="yes"/>
      <point x="98" y="253" type="line" smooth="yes"/>
      <point x="176" y="253"/>
      <point x="224" y="206"/>
      <point x="224" y="136" type="curve" smooth="yes"/>
      <point x="224" y="56"/>
      <point x="178" y="1"/>
      <point x="178" y="-53" type="curve" smooth="yes"/>
      <point x="178" y="-57" type="line" smooth="yes"/>
      <point x="178" y="-104"/>
      <point x="229" y="-110"/>
      <point x="274" y="-102" type="curve"/>
      <point x="260" y="-83"/>
      <point x="256" y="-68"/>
      <point x="256" y="-47" type="curve" smooth="yes"/>
      <point x="256" y="-8"/>
      <point x="318" y="56"/>
    </contour>
    <contour>
      <point x="378" y="-73" type="curve" smooth="yes"/>
      <point x="296" y="-73"/>
      <point x="251" y="-58"/>
      <point x="230" y="-4" type="curve"/>
      <point x="199" y="-9"/>
      <point x="178" y="-34"/>
      <point x="178" y="-54" type="curve" smooth="yes"/>
      <point x="178" y="-58" type="line" smooth="yes"/>
      <point x="178" y="-136"/>
      <point x="255" y="-172"/>
      <point x="393" y="-172" type="curve" smooth="yes"/>
      <point x="398" y="-172" type="line" smooth="yes"/>
      <point x="436" y="-172"/>
      <point x="457" y="-132"/>
      <point x="457" y="-71" type="curve"/>
      <point x="457" y="-63" type="line"/>
      <point x="453" y="-63" type="line"/>
      <point x="428" y="-70"/>
      <point x="409" y="-73"/>
    </contour>
  </outline>
</glyph>
<glyph name="bar" format="1">
  <advance width="300"/>
  <unicode hex="007C"/>
  <outline>
    <contour>
      <point x="93" y="759" type="curve"/>
      <point x="101" y="724"/>
      <point x="103" y="688"/>
      <point x="103" y="649" type="curve" smooth="yes"/>
      <point x="103" y="-118" type="line" smooth="yes"/>
      <point x="103" y="-149"/>
      <point x="132" y="-162"/>
      <point x="184" y="-162" type="curve" smooth="yes"/>
      <point x="193" y="-162"/>
      <point x="201" y="-161"/>
      <point x="207" y="-160" type="curve"/>
      <point x="207" y="699" type="line" smooth="yes"/>
      <point x="207" y="723"/>
      <point x="204" y="738"/>
      <point x="192" y="749" type="curve" smooth="yes"/>
      <point x="182" y="760"/>
      <point x="166" y="764"/>
      <point x="135" y="764" type="curve" smooth="yes"/>
      <point x="119" y="764"/>
      <point x="108" y="762"/>
    </contour>
  </outline>
</glyph>
<glyph name="braceright" format="1">
  <advance width="500"/>
  <unicode hex="007D"/>
  <outline>
    <contour>
      <point x="114" y="-74" type="curve" smooth="yes"/>
      <point x="88" y="-74"/>
      <point x="67" y="-72"/>
      <point x="49" y="-66" type="curve"/>
      <point x="45" y="-66" type="line"/>
      <point x="43" y="-76"/>
      <point x="41" y="-85"/>
      <point x="41" y="-100" type="curve"/>
      <point x="41" y="-139"/>
      <point x="66" y="-172"/>
      <point x="103" y="-172" type="curve" smooth="yes"/>
      <point x="108" y="-172" type="line" smooth="yes"/>
      <point x="231" y="-172"/>
      <point x="322" y="-129"/>
      <point x="322" y="-55" type="curve" smooth="yes"/>
      <point x="322" y="-52" type="line" smooth="yes"/>
      <point x="322" y="-29"/>
      <point x="295" y="-6"/>
      <point x="266" y="-4" type="curve"/>
      <point x="243" y="-57"/>
      <point x="188" y="-74"/>
    </contour>
    <contour>
      <point x="182" y="148" type="curve" smooth="yes"/>
      <point x="182" y="52"/>
      <point x="244" y="-7"/>
      <point x="244" y="-45" type="curve" smooth="yes"/>
      <point x="244" y="-64"/>
      <point x="239" y="-78"/>
      <point x="229" y="-96" type="curve"/>
      <point x="274" y="-104"/>
      <point x="322" y="-96"/>
      <point x="322" y="-54" type="curve" smooth="yes"/>
      <point x="322" y="-49" type="line" smooth="yes"/>
      <point x="322" y="5"/>
      <point x="276" y="55"/>
      <point x="276" y="135" type="curve" smooth="yes"/>
      <point x="276" y="207"/>
      <point x="325" y="253"/>
      <point x="439" y="253" type="curve" smooth="yes"/>
      <point x="445" y="253" type="line"/>
      <point x="445" y="263" type="line" smooth="yes"/>
      <point x="445" y="290"/>
      <point x="438" y="313"/>
      <point x="413" y="313" type="curve" smooth="yes"/>
      <point x="398" y="313" type="line" smooth="yes"/>
      <point x="278" y="313"/>
      <point x="182" y="253"/>
    </contour>
    <contour>
      <point x="182" y="449" type="curve" smooth="yes"/>
      <point x="182" y="340"/>
      <point x="274" y="283"/>
      <point x="397" y="283" type="curve" smooth="yes"/>
      <point x="424" y="283"/>
      <point x="435" y="270"/>
      <point x="445" y="260" type="curve"/>
      <point x="445" y="268" type="line" smooth="yes"/>
      <point x="445" y="309"/>
      <point x="430" y="345"/>
      <point x="404" y="345" type="curve" smooth="yes"/>
      <point x="402" y="345" type="line" smooth="yes"/>
      <point x="324" y="345"/>
      <point x="276" y="392"/>
      <point x="276" y="462" type="curve" smooth="yes"/>
      <point x="276" y="542"/>
      <point x="322" y="597"/>
      <point x="322" y="651" type="curve" smooth="yes"/>
      <point x="322" y="655" type="line" smooth="yes"/>
      <point x="322" y="702"/>
      <point x="271" y="708"/>
      <point x="226" y="700" type="curve"/>
      <point x="240" y="681"/>
      <point x="244" y="666"/>
      <point x="244" y="645" type="curve" smooth="yes"/>
      <point x="244" y="606"/>
      <point x="182" y="542"/>
    </contour>
    <contour>
      <point x="122" y="671" type="curve" smooth="yes"/>
      <point x="204" y="671"/>
      <point x="249" y="656"/>
      <point x="270" y="602" type="curve"/>
      <point x="301" y="607"/>
      <point x="322" y="632"/>
      <point x="322" y="652" type="curve" smooth="yes"/>
      <point x="322" y="656" type="line" smooth="yes"/>
      <point x="322" y="734"/>
      <point x="245" y="770"/>
      <point x="107" y="770" type="curve" smooth="yes"/>
      <point x="102" y="770" type="line" smooth="yes"/>
      <point x="64" y="770"/>
      <point x="43" y="730"/>
      <point x="43" y="669" type="curve"/>
      <point x="43" y="661" type="line"/>
      <point x="47" y="661" type="line"/>
      <point x="72" y="668"/>
      <point x="91" y="671"/>
    </contour>
  </outline>
</glyph>
<glyph name="asciitilde" format="1">
  <advance width="600"/>
  <unicode hex="007E"/>
  <outline>
    <contour>
      <point x="424" y="299" type="curve" smooth="yes"/>
      <point x="335" y="299"/>
      <point x="257" y="411"/>
      <point x="167" y="411" type="curve" smooth="yes"/>
      <point x="114" y="411"/>
      <point x="81" y="386"/>
      <point x="64" y="352" type="curve" smooth="yes"/>
      <point x="58" y="338"/>
      <point x="52" y="318"/>
      <point x="52" y="288" type="curve" smooth="yes"/>
      <point x="52" y="274"/>
      <point x="54" y="256"/>
      <point x="60" y="244" type="curve"/>
      <point x="64" y="244" type="line"/>
      <point x="100" y="284"/>
      <point x="131" y="301"/>
      <point x="176" y="301" type="curve" smooth="yes"/>
      <point x="265" y="301"/>
      <point x="343" y="189"/>
      <point x="433" y="189" type="curve" smooth="yes"/>
      <point x="486" y="189"/>
      <point x="519" y="214"/>
      <point x="536" y="248" type="curve" smooth="yes"/>
      <point x="542" y="262"/>
      <point x="548" y="282"/>
      <point x="548" y="312" type="curve" smooth="yes"/>
      <point x="548" y="326"/>
      <point x="546" y="344"/>
      <point x="540" y="356" type="curve"/>
      <point x="536" y="356" type="line"/>
      <point x="500" y="316"/>
      <point x="469" y="299"/>
    </contour>
  </outline>
</glyph>
<glyph name="exclamdown" format="1">
  <advance width="376"/>
  <unicode hex="00A1"/>
  <outline>
    <contour>
      <point x="146" y="271" type="line"/>
      <point x="135" y="199"/>
      <point x="126" y="108"/>
      <point x="126" y="36" type="curve"/>
      <point x="126" y="-121" type="line" smooth="yes"/>
      <point x="126" y="-160"/>
      <point x="160" y="-175"/>
      <point x="216" y="-175" type="curve" smooth="yes"/>
      <point x="232" y="-175"/>
      <point x="245" y="-174"/>
      <point x="259" y="-170" type="curve"/>
      <point x="252" y="-135"/>
      <point x="250" y="-99"/>
      <point x="250" y="-60" type="curve" smooth="yes"/>
      <point x="250" y="34" type="line"/>
      <point x="250" y="135"/>
      <point x="241" y="232"/>
      <point x="223" y="250" type="curve" smooth="yes"/>
      <point x="209" y="264"/>
      <point x="186" y="271"/>
      <point x="156" y="271" type="curve"/>
    </contour>
    <contour>
      <point x="106" y="533" type="curve"/>
      <point x="106" y="434" type="line" smooth="yes"/>
      <point x="106" y="386"/>
      <point x="151" y="371"/>
      <point x="206" y="371" type="curve" smooth="yes"/>
      <point x="229" y="371"/>
      <point x="251" y="374"/>
      <point x="270" y="381" type="curve"/>
      <point x="270" y="480" type="line" smooth="yes"/>
      <point x="270" y="528"/>
      <point x="225" y="543"/>
      <point x="170" y="543" type="curve" smooth="yes"/>
      <point x="147" y="543"/>
      <point x="124" y="539"/>
    </contour>
  </outline>
</glyph>
<glyph name="cent" format="1">
  <advance width="600"/>
  <unicode hex="00A2"/>
  <outline>
    <contour>
      <point x="359" y="401" type="line"/>
      <point x="404" y="694" type="line" smooth="yes"/>
      <point x="414" y="748"/>
      <point x="395" y="778"/>
      <point x="343" y="778" type="curve" smooth="yes"/>
      <point x="331" y="778"/>
      <point x="313" y="775"/>
      <point x="301" y="771" type="curve"/>
      <point x="310" y="745"/>
      <point x="313" y="720"/>
      <point x="313" y="678" type="curve"/>
      <point x="313" y="439" type="line" smooth="yes"/>
      <point x="313" y="415"/>
      <point x="333" y="401"/>
      <point x="355" y="401" type="curve" smooth="yes"/>
    </contour>
    <contour>
      <point x="311" y="293" type="line"/>
      <point x="267" y="0" type="line" smooth="yes"/>
      <point x="257" y="-54"/>
      <point x="276" y="-84"/>
      <point x="328" y="-84" type="curve" smooth="yes"/>
      <point x="340" y="-84"/>
      <point x="358" y="-81"/>
      <point x="369" y="-77" type="curve"/>
      <point x="361" y="-51"/>
      <point x="357" y="-26"/>
      <point x="357" y="16" type="curve"/>
      <point x="357" y="255" type="line" smooth="yes"/>
      <point x="357" y="279"/>
      <point x="338" y="293"/>
      <point x="315" y="293" type="curve" smooth="yes"/>
    </contour>
    <contour>
      <point x="349" y="627" type="curve" smooth="yes"/>
      <point x="183" y="627"/>
      <point x="63" y="511"/>
      <point x="63" y="317" type="curve" smooth="yes"/>
      <point x="63" y="304" type="line" smooth="yes"/>
      <point x="63" y="166"/>
      <point x="171" y="73"/>
      <point x="322" y="73" type="curve" smooth="yes"/>
      <point x="338" y="73"/>
      <point x="347" y="87"/>
      <point x="348" y="120" type="curve"/>
      <point x="205" y="150"/>
      <point x="162" y="221"/>
      <point x="162" y="305" type="curve" smooth="yes"/>
      <point x="162" y="317" type="line" smooth="yes"/>
      <point x="162" y="439"/>
      <point x="231" y="527"/>
      <point x="340" y="527" type="curve" smooth="yes"/>
      <point x="414" y="527"/>
      <point x="451" y="507"/>
      <point x="500" y="463" type="curve"/>
      <point x="504" y="463" type="line"/>
      <point x="510" y="480"/>
      <point x="513" y="496"/>
      <point x="513" y="517" type="curve" smooth="yes"/>
      <point x="513" y="547"/>
      <point x="508" y="569"/>
      <point x="493" y="584" type="curve" smooth="yes"/>
      <point x="466" y="611"/>
      <point x="417" y="627"/>
    </contour>
    <contour>
      <point x="150" y="258" type="curve"/>
      <point x="100" y="183"/>
      <point x="199" y="73"/>
      <point x="322" y="73" type="curve" smooth="yes"/>
      <point x="412" y="73"/>
      <point x="467" y="95"/>
      <point x="493" y="122" type="curve" smooth="yes"/>
      <point x="509" y="138"/>
      <point x="518" y="174"/>
      <point x="518" y="199" type="curve"/>
      <point x="518" y="214"/>
      <point x="517" y="223"/>
      <point x="515" y="232" type="curve"/>
      <point x="511" y="232" type="line"/>
      <point x="460" y="189"/>
      <point x="407" y="169"/>
      <point x="326" y="169" type="curve" smooth="yes"/>
      <point x="240" y="169"/>
      <point x="197" y="191"/>
    </contour>
  </outline>
</glyph>
<glyph name="sterling" format="1">
  <advance width="600"/>
  <unicode hex="00A3"/>
  <outline>
    <contour>
      <point x="321" y="621" type="curve" smooth="yes"/>
      <point x="412" y="621"/>
      <point x="472" y="598"/>
      <point x="520" y="538" type="curve"/>
      <point x="524" y="538" type="line"/>
      <point x="530" y="555"/>
      <point x="531" y="569"/>
      <point x="531" y="590" type="curve" smooth="yes"/>
      <point x="531" y="627"/>
      <point x="526" y="646"/>
      <point x="503" y="669" type="curve" smooth="yes"/>
      <point x="474" y="697"/>
      <point x="410" y="719"/>
      <point x="321" y="719" type="curve" smooth="yes"/>
      <point x="171" y="719"/>
      <point x="85" y="645"/>
      <point x="85" y="544" type="curve" smooth="yes"/>
      <point x="85" y="533" type="line" smooth="yes"/>
      <point x="85" y="499"/>
      <point x="118" y="490"/>
      <point x="170" y="487" type="curve"/>
      <point x="170" y="572"/>
      <point x="216" y="621"/>
    </contour>
    <contour>
      <point x="85" y="533" type="curve" smooth="yes"/>
      <point x="85" y="406"/>
      <point x="186" y="306"/>
      <point x="186" y="178" type="curve" smooth="yes"/>
      <point x="186" y="118"/>
      <point x="149" y="84"/>
      <point x="84" y="84" type="curve" smooth="yes"/>
      <point x="71" y="84"/>
      <point x="62" y="85"/>
      <point x="54" y="91" type="curve"/>
      <point x="50" y="91" type="line"/>
      <point x="46" y="77"/>
      <point x="45" y="68"/>
      <point x="45" y="53" type="curve" smooth="yes"/>
      <point x="45" y="8"/>
      <point x="62" y="-16"/>
      <point x="105" y="-16" type="curve" smooth="yes"/>
      <point x="111" y="-16" type="line" smooth="yes"/>
      <point x="211" y="-16"/>
      <point x="277" y="55"/>
      <point x="277" y="163" type="curve" smooth="yes"/>
      <point x="277" y="294"/>
      <point x="185" y="401"/>
      <point x="185" y="529" type="curve" smooth="yes"/>
      <point x="185" y="560"/>
      <point x="190" y="587"/>
      <point x="209" y="619" type="curve"/>
      <point x="124" y="619"/>
      <point x="85" y="582"/>
    </contour>
    <contour>
      <point x="203" y="84" type="curve"/>
      <point x="294" y="15"/>
      <point x="367" y="-16"/>
      <point x="457" y="-16" type="curve" smooth="yes"/>
      <point x="465" y="-16" type="line" smooth="yes"/>
      <point x="530" y="-16"/>
      <point x="557" y="19"/>
      <point x="557" y="77" type="curve"/>
      <point x="557" y="100"/>
      <point x="552" y="120"/>
      <point x="547" y="135" type="curve"/>
      <point x="543" y="135" type="line"/>
      <point x="520" y="102"/>
      <point x="494" y="88"/>
      <point x="444" y="88" type="curve" smooth="yes"/>
      <point x="373" y="88"/>
      <point x="310" y="107"/>
      <point x="223" y="152" type="curve"/>
      <point x="202" y="136"/>
      <point x="194" y="106"/>
    </contour>
    <contour>
      <point x="50" y="374" type="line"/>
      <point x="50" y="370"/>
      <point x="50" y="365"/>
      <point x="50" y="360" type="curve" smooth="yes"/>
      <point x="50" y="323"/>
      <point x="55" y="301"/>
      <point x="68" y="288" type="curve" smooth="yes"/>
      <point x="77" y="279"/>
      <point x="89" y="276"/>
      <point x="114" y="276" type="curve" smooth="yes"/>
      <point x="452" y="276" type="line"/>
      <point x="454" y="287"/>
      <point x="456" y="301"/>
      <point x="456" y="311" type="curve" smooth="yes"/>
      <point x="456" y="355"/>
      <point x="445" y="374"/>
      <point x="408" y="374" type="curve" smooth="yes"/>
    </contour>
  </outline>
</glyph>
<glyph name="yen" format="1">
  <advance width="600"/>
  <unicode hex="00A5"/>
  <outline>
    <contour>
      <point x="23" y="404" type="line"/>
      <point x="23" y="400"/>
      <point x="23" y="395"/>
      <point x="23" y="390" type="curve" smooth="yes"/>
      <point x="23" y="358"/>
      <point x="29" y="340"/>
      <point x="41" y="328" type="curve" smooth="yes"/>
      <point x="50" y="319"/>
      <point x="62" y="315"/>
      <point x="87" y="315" type="curve"/>
      <point x="198" y="315" type="line"/>
      <point x="200" y="327"/>
      <point x="201" y="340"/>
      <point x="201" y="351" type="curve" smooth="yes"/>
      <point x="201" y="387"/>
      <point x="190" y="404"/>
      <point x="154" y="404" type="curve"/>
    </contour>
    <contour>
      <point x="382" y="404" type="line"/>
      <point x="376" y="390"/>
      <point x="372" y="378"/>
      <point x="372" y="360" type="curve" smooth="yes"/>
      <point x="372" y="336"/>
      <point x="388" y="315"/>
      <point x="412" y="315" type="curve"/>
      <point x="574" y="315" type="line"/>
      <point x="576" y="327"/>
      <point x="577" y="340"/>
      <point x="577" y="351" type="curve" smooth="yes"/>
      <point x="577" y="387"/>
      <point x="566" y="404"/>
      <point x="530" y="404" type="curve"/>
    </contour>
    <contour>
      <point x="571" y="113" type="line"/>
      <point x="572" y="119"/>
      <point x="572" y="127"/>
      <point x="572" y="134" type="curve" smooth="yes"/>
      <point x="572" y="161"/>
      <point x="566" y="178"/>
      <point x="554" y="190" type="curve" smooth="yes"/>
      <point x="545" y="198"/>
      <point x="533" y="202"/>
      <point x="508" y="202" type="curve"/>
      <point x="31" y="202" type="line"/>
      <point x="29" y="190"/>
      <point x="28" y="177"/>
      <point x="28" y="166" type="curve" smooth="yes"/>
      <point x="28" y="130"/>
      <point x="39" y="113"/>
      <point x="75" y="113" type="curve"/>
    </contour>
    <contour>
      <point x="44" y="710" type="line"/>
      <point x="79" y="459"/>
      <point x="132" y="343"/>
      <point x="241" y="234" type="curve"/>
      <point x="263" y="212"/>
      <point x="284" y="210"/>
      <point x="301" y="210" type="curve"/>
      <point x="329" y="210"/>
      <point x="346" y="225"/>
      <point x="347" y="272" type="curve"/>
      <point x="234" y="363"/>
      <point x="185" y="444"/>
      <point x="152" y="676" type="curve"/>
      <point x="149" y="696"/>
      <point x="107" y="710"/>
      <point x="61" y="710" type="curve" smooth="yes"/>
    </contour>
    <contour>
      <point x="453" y="710" type="line"/>
      <point x="426" y="478"/>
      <point x="382" y="385"/>
      <point x="268" y="281" type="curve"/>
      <point x="243" y="259"/>
      <point x="270" y="210"/>
      <point x="301" y="210" type="curve"/>
      <point x="336" y="210" type="line"/>
      <point x="449" y="316"/>
      <point x="527" y="453"/>
      <point x="551" y="660" type="curve"/>
      <point x="554" y="688"/>
      <point x="514" y="710"/>
      <point x="470" y="710" type="curve"/>
    </contour>
    <contour>
      <point x="362" y="-5" type="curve"/>
      <point x="354" y="30"/>
      <point x="352" y="66"/>
      <point x="352" y="105" type="curve" smooth="yes"/>
      <point x="352" y="247" type="line" smooth="yes"/>
      <point x="352" y="276"/>
      <point x="306" y="292"/>
      <point x="248" y="292" type="curve"/>
      <point x="248" y="55" type="line" smooth="yes"/>
      <point x="248" y="31"/>
      <point x="251" y="16"/>
      <point x="263" y="5" type="curve" smooth="yes"/>
      <point x="273" y="-6"/>
      <point x="289" y="-10"/>
      <point x="320" y="-10" type="curve" smooth="yes"/>
      <point x="336" y="-10"/>
      <point x="347" y="-9"/>
    </contour>
  </outline>
</glyph>
<glyph name="brokenbar" format="1">
  <advance width="300"/>
  <unicode hex="00A6"/>
  <outline>
    <contour>
      <point x="88" y="759" type="curve"/>
      <point x="96" y="724"/>
      <point x="98" y="688"/>
      <point x="98" y="649" type="curve" smooth="yes"/>
      <point x="98" y="412" type="line" smooth="yes"/>
      <point x="98" y="381"/>
      <point x="127" y="368"/>
      <point x="179" y="368" type="curve" smooth="yes"/>
      <point x="188" y="368"/>
      <point x="196" y="369"/>
      <point x="202" y="370" type="curve"/>
      <point x="202" y="699" type="line" smooth="yes"/>
      <point x="202" y="723"/>
      <point x="199" y="738"/>
      <point x="187" y="749" type="curve" smooth="yes"/>
      <point x="177" y="760"/>
      <point x="161" y="764"/>
      <point x="130" y="764" type="curve" smooth="yes"/>
      <point x="114" y="764"/>
      <point x="103" y="762"/>
    </contour>
    <contour>
      <point x="98" y="229" type="curve"/>
      <point x="98" y="-118" type="line"/>
      <point x="98" y="-149"/>
      <point x="127" y="-162"/>
      <point x="179" y="-162" type="curve" smooth="yes"/>
      <point x="188" y="-162"/>
      <point x="196" y="-161"/>
      <point x="202" y="-160" type="curve"/>
      <point x="202" y="181" type="line" smooth="yes"/>
      <point x="202" y="218"/>
      <point x="184" y="234"/>
      <point x="134" y="234" type="curve" smooth="yes"/>
      <point x="120" y="234"/>
      <point x="108" y="232"/>
    </contour>
  </outline>
</glyph>
<glyph name="section" format="1">
  <advance width="600"/>
  <unicode hex="00A7"/>
  <outline>
    <contour>
      <point x="377" y="720" type="curve" smooth="yes"/>
      <point x="223" y="720"/>
      <point x="80" y="572"/>
      <point x="80" y="442" type="curve" smooth="yes"/>
      <point x="80" y="431" type="line" smooth="yes"/>
      <point x="80" y="403"/>
      <point x="134" y="377"/>
      <point x="185" y="374" type="curve"/>
      <point x="179" y="397"/>
      <point x="179" y="419"/>
      <point x="179" y="441" type="curve" smooth="yes"/>
      <point x="179" y="524"/>
      <point x="287" y="622"/>
      <point x="378" y="622" type="curve" smooth="yes"/>
      <point x="437" y="622"/>
      <point x="465" y="592"/>
      <point x="465" y="534" type="curve"/>
      <point x="496" y="534"/>
      <point x="512" y="558"/>
      <point x="512" y="573" type="curve" smooth="yes"/>
      <point x="512" y="620"/>
      <point x="503" y="653"/>
      <point x="476" y="680" type="curve" smooth="yes"/>
      <point x="452" y="704"/>
      <point x="421" y="720"/>
    </contour>
    <contour>
      <point x="380" y="318" type="curve" smooth="yes"/>
      <point x="291" y="350" type="line" smooth="yes"/>
      <point x="193" y="385"/>
      <point x="179" y="406"/>
      <point x="179" y="441" type="curve" smooth="yes"/>
      <point x="179" y="465"/>
      <point x="180" y="483"/>
      <point x="186" y="506" type="curve"/>
      <point x="131" y="501"/>
      <point x="80" y="482"/>
      <point x="80" y="431" type="curve" smooth="yes"/>
      <point x="80" y="367"/>
      <point x="118" y="319"/>
      <point x="258" y="267" type="curve" smooth="yes"/>
      <point x="345" y="235" type="line" smooth="yes"/>
      <point x="422" y="206"/>
      <point x="441" y="182"/>
      <point x="441" y="134" type="curve" smooth="yes"/>
      <point x="441" y="129" type="line" smooth="yes"/>
      <point x="441" y="95"/>
      <point x="433" y="73"/>
      <point x="408" y="43" type="curve"/>
      <point x="417" y="32"/>
      <point x="433" y="25"/>
      <point x="451" y="25" type="curve" smooth="yes"/>
      <point x="484" y="25"/>
      <point x="537" y="66"/>
      <point x="537" y="142" type="curve" smooth="yes"/>
      <point x="537" y="149" type="line" smooth="yes"/>
      <point x="537" y="215"/>
      <point x="498" y="275"/>
    </contour>
    <contour>
      <point x="380" y="84" type="curve" smooth="yes"/>
      <point x="291" y="116" type="line" smooth="yes"/>
      <point x="193" y="152"/>
      <point x="179" y="181"/>
      <point x="179" y="220" type="curve" smooth="yes"/>
      <point x="179" y="227" type="line" smooth="yes"/>
      <point x="179" y="256"/>
      <point x="191" y="287"/>
      <point x="218" y="312" type="curve"/>
      <point x="208" y="319"/>
      <point x="194" y="325"/>
      <point x="177" y="325" type="curve" smooth="yes"/>
      <point x="127" y="325"/>
      <point x="80" y="270"/>
      <point x="80" y="210" type="curve" smooth="yes"/>
      <point x="80" y="203" type="line" smooth="yes"/>
      <point x="80" y="139"/>
      <point x="118" y="85"/>
      <point x="262" y="32" type="curve" smooth="yes"/>
      <point x="351" y="-1" type="line" smooth="yes"/>
      <point x="430" y="-30"/>
      <point x="451" y="-63"/>
      <point x="451" y="-127" type="curve" smooth="yes"/>
      <point x="451" y="-131"/>
      <point x="451" y="-137"/>
      <point x="451" y="-141" type="curve"/>
      <point x="488" y="-139"/>
      <point x="537" y="-101"/>
      <point x="537" y="-73" type="curve"/>
      <point x="537" y="-17"/>
      <point x="498" y="41"/>
    </contour>
    <contour>
      <point x="300" y="-250" type="curve" smooth="yes"/>
      <point x="452" y="-250"/>
      <point x="537" y="-186"/>
      <point x="537" y="-83" type="curve" smooth="yes"/>
      <point x="537" y="-73" type="line" smooth="yes"/>
      <point x="537" y="-50"/>
      <point x="500" y="-28"/>
      <point x="473" y="-26" type="curve"/>
      <point x="473" y="-30"/>
      <point x="473" y="-34"/>
      <point x="473" y="-42" type="curve" smooth="yes"/>
      <point x="473" y="-110"/>
      <point x="405" y="-151"/>
      <point x="300" y="-151" type="curve" smooth="yes"/>
      <point x="197" y="-151"/>
      <point x="127" y="-123"/>
      <point x="74" y="-64" type="curve"/>
      <point x="70" y="-64" type="line"/>
      <point x="66" y="-77"/>
      <point x="64" y="-92"/>
      <point x="64" y="-113" type="curve" smooth="yes"/>
      <point x="64" y="-149"/>
      <point x="73" y="-175"/>
      <point x="90" y="-191" type="curve" smooth="yes"/>
      <point x="126" y="-228"/>
      <point x="207" y="-250"/>
    </contour>
    <contour>
      <point x="512" y="445" type="curve"/>
      <point x="512" y="573" type="line" smooth="yes"/>
      <point x="512" y="652"/>
      <point x="461" y="667"/>
      <point x="416" y="657" type="curve"/>
      <point x="416" y="623"/>
      <point x="414" y="583"/>
      <point x="414" y="547" type="curve" smooth="yes"/>
      <point x="414" y="493" type="line" smooth="yes"/>
      <point x="414" y="476"/>
      <point x="418" y="464"/>
      <point x="426" y="455" type="curve" smooth="yes"/>
      <point x="436" y="445"/>
      <point x="451" y="440"/>
      <point x="477" y="440" type="curve" smooth="yes"/>
      <point x="491" y="440"/>
      <point x="503" y="442"/>
    </contour>
  </outline>
</glyph>
<glyph name="dieresis" format="1">
  <advance width="600"/>
  <unicode hex="00A8"/>
  <outline>
    <contour>
      <point x="254" y="641" type="curve"/>
      <point x="254" y="720" type="line" smooth="yes"/>
      <point x="254" y="753"/>
      <point x="221" y="762"/>
      <point x="183" y="762" type="curve" smooth="yes"/>
      <point x="168" y="762"/>
      <point x="151" y="761"/>
      <point x="137" y="759" type="curve"/>
      <point x="137" y="681" type="line" smooth="yes"/>
      <point x="137" y="648"/>
      <point x="170" y="638"/>
      <point x="207" y="638" type="curve" smooth="yes"/>
      <point x="222" y="638"/>
      <point x="239" y="638"/>
    </contour>
    <contour>
      <point x="463" y="641" type="curve"/>
      <point x="463" y="720" type="line" smooth="yes"/>
      <point x="463" y="753"/>
      <point x="430" y="762"/>
      <point x="393" y="762" type="curve" smooth="yes"/>
      <point x="378" y="762"/>
      <point x="361" y="761"/>
      <point x="346" y="759" type="curve"/>
      <point x="346" y="681" type="line" smooth="yes"/>
      <point x="346" y="648"/>
      <point x="380" y="638"/>
      <point x="416" y="638" type="curve" smooth="yes"/>
      <point x="432" y="638"/>
      <point x="449" y="638"/>
    </contour>
  </outline>
</glyph>
<glyph name="copyright" format="1">
  <advance width="600"/>
  <unicode hex="00A9"/>
  <outline>
    <contour>
      <point x="300" y="715" type="curve" smooth="yes"/>
      <point x="121" y="715"/>
      <point x="18" y="592"/>
      <point x="18" y="364" type="curve" smooth="yes"/>
      <point x="18" y="346" type="line" smooth="yes"/>
      <point x="18" y="108"/>
      <point x="118" y="-15"/>
      <point x="300" y="-15" type="curve" smooth="yes"/>
      <point x="331" y="-15"/>
      <point x="341" y="4"/>
      <point x="341" y="22" type="curve"/>
      <point x="173" y="22"/>
      <point x="74" y="119"/>
      <point x="74" y="330" type="curve" smooth="yes"/>
      <point x="74" y="371" type="line" smooth="yes"/>
      <point x="74" y="567"/>
      <point x="155" y="661"/>
      <point x="300" y="661" type="curve" smooth="yes"/>
      <point x="370" y="661"/>
      <point x="431" y="635"/>
      <point x="488" y="595" type="curve"/>
      <point x="529" y="644"/>
      <point x="389" y="715"/>
    </contour>
    <contour>
      <point x="300" y="-15" type="curve" smooth="yes"/>
      <point x="479" y="-15"/>
      <point x="582" y="109"/>
      <point x="582" y="336" type="curve" smooth="yes"/>
      <point x="582" y="354" type="line" smooth="yes"/>
      <point x="582" y="592"/>
      <point x="482" y="715"/>
      <point x="300" y="715" type="curve" smooth="yes"/>
      <point x="269" y="715"/>
      <point x="259" y="696"/>
      <point x="259" y="678" type="curve"/>
      <point x="427" y="678"/>
      <point x="526" y="581"/>
      <point x="526" y="370" type="curve" smooth="yes"/>
      <point x="526" y="329" type="line" smooth="yes"/>
      <point x="526" y="133"/>
      <point x="445" y="39"/>
      <point x="300" y="39" type="curve" smooth="yes"/>
      <point x="230" y="39"/>
      <point x="168" y="64"/>
      <point x="112" y="105" type="curve"/>
      <point x="74" y="54"/>
      <point x="211" y="-15"/>
    </contour>
    <contour>
      <point x="307" y="504" type="curve" smooth="yes"/>
      <point x="351" y="504"/>
      <point x="374" y="483"/>
      <point x="390" y="440" type="curve"/>
      <point x="413" y="440"/>
      <point x="419" y="456"/>
      <point x="419" y="467" type="curve" smooth="yes"/>
      <point x="419" y="490"/>
      <point x="412" y="511"/>
      <point x="390" y="533" type="curve" smooth="yes"/>
      <point x="367" y="556"/>
      <point x="343" y="566"/>
      <point x="306" y="566" type="curve" smooth="yes"/>
      <point x="213" y="566"/>
      <point x="163" y="489"/>
      <point x="163" y="346" type="curve" smooth="yes"/>
      <point x="163" y="335" type="line" smooth="yes"/>
      <point x="163" y="293"/>
      <point x="196" y="166"/>
      <point x="267" y="191" type="curve"/>
      <point x="240" y="238"/>
      <point x="232" y="268"/>
      <point x="232" y="343" type="curve" smooth="yes"/>
      <point x="232" y="354" type="line" smooth="yes"/>
      <point x="232" y="457"/>
      <point x="258" y="504"/>
    </contour>
    <contour>
      <point x="308" y="134" type="curve" smooth="yes"/>
      <point x="354" y="134"/>
      <point x="387" y="150"/>
      <point x="402" y="168" type="curve"/>
      <point x="414" y="183"/>
      <point x="416" y="197"/>
      <point x="416" y="216" type="curve" smooth="yes"/>
      <point x="416" y="229"/>
      <point x="415" y="244"/>
      <point x="411" y="253" type="curve"/>
      <point x="407" y="253" type="line"/>
      <point x="380" y="215"/>
      <point x="352" y="198"/>
      <point x="310" y="198" type="curve" smooth="yes"/>
      <point x="257" y="198"/>
      <point x="217" y="237"/>
      <point x="212" y="360" type="curve"/>
      <point x="178" y="360"/>
      <point x="163" y="360"/>
      <point x="163" y="335" type="curve" smooth="yes"/>
      <point x="163" y="193"/>
      <point x="215" y="134"/>
    </contour>
    <contour>
      <point x="419" y="409" type="curve"/>
      <point x="419" y="467" type="line" smooth="yes"/>
      <point x="419" y="482"/>
      <point x="393" y="538"/>
      <point x="355" y="527" type="curve"/>
      <point x="354" y="494"/>
      <point x="353" y="481"/>
      <point x="353" y="454" type="curve" smooth="yes"/>
      <point x="353" y="437" type="line" smooth="yes"/>
      <point x="353" y="412"/>
      <point x="365" y="402"/>
      <point x="390" y="402" type="curve" smooth="yes"/>
      <point x="404" y="402"/>
      <point x="411" y="404"/>
    </contour>
  </outline>
</glyph>
<glyph name="guillemotleft" format="1">
  <advance width="601"/>
  <unicode hex="00AB"/>
  <outline>
    <contour>
      <point x="322" y="502" type="line"/>
      <point x="300" y="509"/>
      <point x="285" y="512"/>
      <point x="260" y="512" type="curve" smooth="yes"/>
      <point x="234" y="512"/>
      <point x="219" y="508"/>
      <point x="200" y="494" type="curve" smooth="yes"/>
      <point x="140" y="448"/>
      <point x="99" y="402"/>
      <point x="50" y="325" type="curve"/>
      <point x="50" y="305" type="line"/>
      <point x="50" y="285"/>
      <point x="73" y="273"/>
      <point x="113" y="271" type="curve"/>
      <point x="168" y="369"/>
      <point x="214" y="421"/>
      <point x="322" y="498" type="curve"/>
    </contour>
    <contour>
      <point x="322" y="102" type="line"/>
      <point x="215" y="181"/>
      <point x="160" y="238"/>
      <point x="117" y="327" type="curve"/>
      <point x="68" y="320"/>
      <point x="50" y="320"/>
      <point x="50" y="309" type="curve"/>
      <point x="50" y="301" type="line" smooth="yes"/>
      <point x="50" y="276"/>
      <point x="56" y="261"/>
      <point x="79" y="227" type="curve" smooth="yes"/>
      <point x="128" y="159"/>
      <point x="160" y="131"/>
      <point x="191" y="110" type="curve"/>
      <point x="215" y="93"/>
      <point x="232" y="88"/>
      <point x="262" y="88" type="curve" smooth="yes"/>
      <point x="289" y="88"/>
      <point x="303" y="91"/>
      <point x="322" y="98" type="curve"/>
    </contour>
    <contour>
      <point x="557" y="502" type="line"/>
      <point x="536" y="509"/>
      <point x="520" y="512"/>
      <point x="495" y="512" type="curve" smooth="yes"/>
      <point x="469" y="512"/>
      <point x="454" y="508"/>
      <point x="435" y="494" type="curve" smooth="yes"/>
      <point x="375" y="448"/>
      <point x="334" y="402"/>
      <point x="285" y="325" type="curve"/>
      <point x="285" y="305" type="line"/>
      <point x="285" y="285"/>
      <point x="308" y="273"/>
      <point x="349" y="271" type="curve"/>
      <point x="403" y="369"/>
      <point x="449" y="421"/>
      <point x="557" y="498" type="curve"/>
    </contour>
    <contour>
      <point x="557" y="102" type="line"/>
      <point x="451" y="181"/>
      <point x="395" y="238"/>
      <point x="352" y="327" type="curve"/>
      <point x="303" y="320"/>
      <point x="285" y="320"/>
      <point x="285" y="309" type="curve"/>
      <point x="285" y="301" type="line" smooth="yes"/>
      <point x="285" y="276"/>
      <point x="291" y="261"/>
      <point x="314" y="227" type="curve" smooth="yes"/>
      <point x="363" y="159"/>
      <point x="395" y="131"/>
      <point x="426" y="110" type="curve"/>
      <point x="450" y="93"/>
      <point x="467" y="88"/>
      <point x="497" y="88" type="curve" smooth="yes"/>
      <point x="525" y="88"/>
      <point x="538" y="91"/>
      <point x="557" y="98" type="curve"/>
    </contour>
  </outline>
</glyph>
<glyph name="logicalnot" format="1">
  <advance width="600"/>
  <unicode hex="00AC"/>
  <outline>
    <contour>
      <point x="59" y="432" type="line"/>
      <point x="59" y="427"/>
      <point x="59" y="422"/>
      <point x="59" y="417" type="curve" smooth="yes"/>
      <point x="59" y="384"/>
      <point x="65" y="366"/>
      <point x="78" y="353" type="curve" smooth="yes"/>
      <point x="86" y="344"/>
      <point x="98" y="341"/>
      <point x="123" y="341" type="curve"/>
      <point x="532" y="341" type="line"/>
      <point x="532" y="349" type="line"/>
      <point x="532" y="404"/>
      <point x="519" y="432"/>
      <point x="485" y="432" type="curve"/>
    </contour>
    <contour>
      <point x="532" y="137" type="curve"/>
      <point x="532" y="349" type="line" smooth="yes"/>
      <point x="532" y="373"/>
      <point x="499" y="379"/>
      <point x="445" y="379" type="curve"/>
      <point x="433" y="379" type="line"/>
      <point x="433" y="176" type="line" smooth="yes"/>
      <point x="433" y="141"/>
      <point x="460" y="135"/>
      <point x="498" y="135" type="curve" smooth="yes"/>
      <point x="511" y="135"/>
      <point x="523" y="136"/>
    </contour>
  </outline>
</glyph>
<glyph name="registered" format="1">
  <advance width="600"/>
  <unicode hex="00AE"/>
  <outline>
    <contour>
      <point x="261" y="329" type="curve"/>
      <point x="256" y="354"/>
      <point x="254" y="376"/>
      <point x="254" y="403" type="curve"/>
      <point x="254" y="535" type="line"/>
      <point x="254" y="578"/>
      <point x="237" y="595"/>
      <point x="193" y="595" type="curve"/>
      <point x="193" y="373" type="line" smooth="yes"/>
      <point x="193" y="344"/>
      <point x="207" y="325"/>
      <point x="235" y="325" type="curve" smooth="yes"/>
      <point x="244" y="325"/>
      <point x="252" y="325"/>
    </contour>
    <contour>
      <point x="171" y="628" type="curve"/>
      <point x="168" y="621"/>
      <point x="166" y="613"/>
      <point x="166" y="601" type="curve"/>
      <point x="166" y="582"/>
      <point x="172" y="571"/>
      <point x="182" y="571" type="curve"/>
      <point x="186" y="571"/>
      <point x="190" y="572"/>
      <point x="197" y="573" type="curve" smooth="yes"/>
      <point x="225" y="578"/>
      <point x="265" y="583"/>
      <point x="293" y="583" type="curve" smooth="yes"/>
      <point x="340" y="583"/>
      <point x="361" y="577"/>
      <point x="383" y="557" type="curve"/>
      <point x="414" y="590"/>
      <point x="362" y="640"/>
      <point x="310" y="640" type="curve" smooth="yes"/>
      <point x="269" y="640"/>
      <point x="224" y="637"/>
    </contour>
    <contour>
      <point x="424" y="543" type="curve" smooth="yes"/>
      <point x="424" y="552" type="line" smooth="yes"/>
      <point x="424" y="599"/>
      <point x="386" y="640"/>
      <point x="310" y="640" type="curve"/>
      <point x="287" y="640"/>
      <point x="270" y="625"/>
      <point x="270" y="598" type="curve"/>
      <point x="343" y="598"/>
      <point x="363" y="587"/>
      <point x="363" y="547" type="curve" smooth="yes"/>
      <point x="363" y="540" type="line" smooth="yes"/>
      <point x="363" y="502"/>
      <point x="318" y="476"/>
      <point x="242" y="476" type="curve" smooth="yes"/>
      <point x="225" y="476"/>
      <point x="221" y="476"/>
      <point x="217" y="476" type="curve"/>
      <point x="214" y="471"/>
      <point x="214" y="468"/>
      <point x="214" y="459" type="curve" smooth="yes"/>
      <point x="214" y="445"/>
      <point x="224" y="422"/>
      <point x="242" y="422" type="curve" smooth="yes"/>
      <point x="244" y="422" type="line" smooth="yes"/>
      <point x="339" y="422"/>
      <point x="424" y="469"/>
    </contour>
    <contour>
      <point x="352" y="481" type="line"/>
      <point x="329" y="474"/>
      <point x="301" y="454"/>
      <point x="307" y="439" type="curve" smooth="yes"/>
      <point x="331" y="372" type="line" smooth="yes"/>
      <point x="343" y="341"/>
      <point x="364" y="325"/>
      <point x="387" y="325" type="curve" smooth="yes"/>
      <point x="391" y="325" type="line" smooth="yes"/>
      <point x="414" y="325"/>
      <point x="425" y="338"/>
      <point x="425" y="363" type="curve"/>
      <point x="425" y="375"/>
      <point x="424" y="383"/>
      <point x="421" y="390" type="curve"/>
      <point x="419" y="390" type="line"/>
      <point x="414" y="386"/>
      <point x="408" y="384"/>
      <point x="400" y="384" type="curve"/>
      <point x="391" y="384"/>
      <point x="386" y="389"/>
      <point x="375" y="418" type="curve" smooth="yes"/>
    </contour>
    <contour>
      <point x="300" y="760" type="curve" smooth="yes"/>
      <point x="137" y="760"/>
      <point x="43" y="665"/>
      <point x="43" y="490" type="curve" smooth="yes"/>
      <point x="43" y="474" type="line" smooth="yes"/>
      <point x="43" y="295"/>
      <point x="134" y="201"/>
      <point x="300" y="201" type="curve" smooth="yes"/>
      <point x="329" y="201"/>
      <point x="338" y="219"/>
      <point x="338" y="236" type="curve"/>
      <point x="186" y="236"/>
      <point x="92" y="307"/>
      <point x="92" y="461" type="curve" smooth="yes"/>
      <point x="92" y="499" type="line" smooth="yes"/>
      <point x="92" y="641"/>
      <point x="169" y="711"/>
      <point x="300" y="711" type="curve" smooth="yes"/>
      <point x="365" y="711"/>
      <point x="423" y="689"/>
      <point x="474" y="652" type="curve"/>
      <point x="502" y="697"/>
      <point x="382" y="760"/>
    </contour>
    <contour>
      <point x="300" y="201" type="curve" smooth="yes"/>
      <point x="464" y="201"/>
      <point x="557" y="295"/>
      <point x="557" y="468" type="curve" smooth="yes"/>
      <point x="557" y="484" type="line" smooth="yes"/>
      <point x="557" y="666"/>
      <point x="466" y="760"/>
      <point x="300" y="760" type="curve" smooth="yes"/>
      <point x="271" y="760"/>
      <point x="262" y="742"/>
      <point x="262" y="725" type="curve"/>
      <point x="414" y="725"/>
      <point x="508" y="654"/>
      <point x="508" y="498" type="curve" smooth="yes"/>
      <point x="508" y="460" type="line" smooth="yes"/>
      <point x="508" y="319"/>
      <point x="431" y="250"/>
      <point x="300" y="250" type="curve" smooth="yes"/>
      <point x="235" y="250"/>
      <point x="176" y="271"/>
      <point x="126" y="309" type="curve"/>
      <point x="102" y="262"/>
      <point x="218" y="201"/>
    </contour>
  </outline>
</glyph>
<glyph name="degree" format="1">
  <advance width="600"/>
  <unicode hex="00B0"/>
  <outline>
    <contour>
      <point x="317" y="420" type="curve"/>
      <point x="249" y="420"/>
      <point x="208" y="462"/>
      <point x="208" y="530" type="curve" smooth="yes"/>
      <point x="208" y="537" type="line" smooth="yes"/>
      <point x="208" y="601"/>
      <point x="243" y="638"/>
      <point x="307" y="638" type="curve" smooth="yes"/>
      <point x="337" y="638"/>
      <point x="358" y="632"/>
      <point x="386" y="610" type="curve"/>
      <point x="404" y="656"/>
      <point x="364" y="710"/>
      <point x="302" y="710" type="curve"/>
      <point x="203" y="710"/>
      <point x="133" y="639"/>
      <point x="133" y="538" type="curve" smooth="yes"/>
      <point x="133" y="531" type="line" smooth="yes"/>
      <point x="133" y="432"/>
      <point x="202" y="366"/>
      <point x="296" y="366" type="curve"/>
      <point x="310" y="366"/>
      <point x="317" y="389"/>
    </contour>
    <contour>
      <point x="281" y="651" type="curve"/>
      <point x="349" y="651"/>
      <point x="390" y="610"/>
      <point x="390" y="546" type="curve" smooth="yes"/>
      <point x="390" y="539" type="line" smooth="yes"/>
      <point x="390" y="475"/>
      <point x="355" y="438"/>
      <point x="291" y="438" type="curve" smooth="yes"/>
      <point x="261" y="438"/>
      <point x="240" y="444"/>
      <point x="212" y="466" type="curve"/>
      <point x="194" y="420"/>
      <point x="234" y="366"/>
      <point x="296" y="366" type="curve"/>
      <point x="395" y="366"/>
      <point x="465" y="437"/>
      <point x="465" y="538" type="curve" smooth="yes"/>
      <point x="465" y="545" type="line" smooth="yes"/>
      <point x="465" y="644"/>
      <point x="396" y="710"/>
      <point x="302" y="710" type="curve"/>
      <point x="288" y="710"/>
      <point x="281" y="691"/>
    </contour>
  </outline>
</glyph>
<glyph name="plusminus" format="1">
  <advance width="600"/>
  <unicode hex="00B1"/>
  <outline>
    <contour>
      <point x="54" y="429" type="line"/>
      <point x="54" y="424"/>
      <point x="54" y="419"/>
      <point x="54" y="414" type="curve" smooth="yes"/>
      <point x="54" y="381"/>
      <point x="60" y="363"/>
      <point x="72" y="350" type="curve" smooth="yes"/>
      <point x="81" y="341"/>
      <point x="93" y="337"/>
      <point x="118" y="337" type="curve"/>
      <point x="546" y="337" type="line"/>
      <point x="548" y="348"/>
      <point x="550" y="361"/>
      <point x="550" y="371" type="curve" smooth="yes"/>
      <point x="550" y="410"/>
      <point x="539" y="429"/>
      <point x="502" y="429" type="curve"/>
    </contour>
    <contour>
      <point x="349" y="222" type="curve"/>
      <point x="349" y="465" type="line" smooth="yes"/>
      <point x="349" y="499"/>
      <point x="345" y="516"/>
      <point x="329" y="530" type="curve" smooth="yes"/>
      <point x="313" y="543"/>
      <point x="288" y="547"/>
      <point x="267" y="547" type="curve" smooth="yes"/>
      <point x="258" y="547"/>
      <point x="248" y="546"/>
      <point x="239" y="544" type="curve"/>
      <point x="248" y="518"/>
      <point x="251" y="501"/>
      <point x="251" y="463" type="curve" smooth="yes"/>
      <point x="251" y="261" type="line" smooth="yes"/>
      <point x="251" y="225"/>
      <point x="277" y="219"/>
      <point x="316" y="219" type="curve" smooth="yes"/>
      <point x="329" y="219"/>
      <point x="340" y="220"/>
    </contour>
    <contour>
      <point x="54" y="160" type="line"/>
      <point x="54" y="155"/>
      <point x="54" y="150"/>
      <point x="54" y="145" type="curve" smooth="yes"/>
      <point x="54" y="111"/>
      <point x="60" y="91"/>
      <point x="72" y="78" type="curve" smooth="yes"/>
      <point x="81" y="70"/>
      <point x="93" y="66"/>
      <point x="118" y="66" type="curve"/>
      <point x="546" y="66" type="line"/>
      <point x="548" y="77"/>
      <point x="550" y="90"/>
      <point x="550" y="99" type="curve" smooth="yes"/>
      <point x="550" y="141"/>
      <point x="539" y="160"/>
      <point x="502" y="160" type="curve"/>
    </contour>
  </outline>
</glyph>
<glyph name="twosuperior" format="1">
  <advance width="600"/>
  <unicode hex="00B2"/>
  <outline>
    <contour>
      <point x="295" y="637" type="curve" smooth="yes"/>
      <point x="355" y="637"/>
      <point x="375" y="621"/>
      <point x="390" y="586" type="curve"/>
      <point x="426" y="596"/>
      <point x="435" y="608"/>
      <point x="435" y="620" type="curve" smooth="yes"/>
      <point x="435" y="663"/>
      <point x="407" y="710"/>
      <point x="302" y="710" type="curve" smooth="yes"/>
      <point x="244" y="710"/>
      <point x="203" y="697"/>
      <point x="185" y="679" type="curve" smooth="yes"/>
      <point x="174" y="668"/>
      <point x="171" y="651"/>
      <point x="171" y="631" type="curve" smooth="yes"/>
      <point x="171" y="619"/>
      <point x="172" y="610"/>
      <point x="175" y="601" type="curve"/>
      <point x="177" y="601" type="line"/>
      <point x="216" y="627"/>
      <point x="251" y="637"/>
    </contour>
    <contour>
      <point x="343" y="649" type="curve"/>
      <point x="351" y="636"/>
      <point x="354" y="625"/>
      <point x="354" y="611" type="curve" smooth="yes"/>
      <point x="354" y="593"/>
      <point x="344" y="583"/>
      <point x="279" y="557" type="curve" smooth="yes"/>
      <point x="177" y="518"/>
      <point x="161" y="475"/>
      <point x="161" y="422" type="curve" smooth="yes"/>
      <point x="161" y="402"/>
      <point x="169" y="404"/>
      <point x="215" y="404" type="curve"/>
      <point x="215" y="457"/>
      <point x="225" y="480"/>
      <point x="315" y="509" type="curve" smooth="yes"/>
      <point x="407" y="538"/>
      <point x="435" y="566"/>
      <point x="435" y="618" type="curve" smooth="yes"/>
      <point x="435" y="620" type="line" smooth="yes"/>
      <point x="435" y="643"/>
      <point x="411" y="657"/>
    </contour>
    <contour>
      <point x="436" y="368" type="line"/>
      <point x="438" y="378"/>
      <point x="440" y="388"/>
      <point x="440" y="399" type="curve" smooth="yes"/>
      <point x="440" y="436"/>
      <point x="425" y="448"/>
      <point x="378" y="448" type="curve" smooth="yes"/>
      <point x="357" y="448" type="line" smooth="yes"/>
      <point x="297" y="448"/>
      <point x="226" y="443"/>
      <point x="161" y="422" type="curve"/>
      <point x="161" y="421"/>
      <point x="161" y="420"/>
      <point x="161" y="419" type="curve" smooth="yes"/>
      <point x="161" y="392"/>
      <point x="178" y="368"/>
      <point x="200" y="368" type="curve" smooth="yes"/>
    </contour>
  </outline>
</glyph>
<glyph name="acute" format="1">
  <advance width="600"/>
  <unicode hex="00B4"/>
  <outline>
    <contour>
      <point x="294" y="626" type="curve" smooth="yes"/>
      <point x="316" y="626"/>
      <point x="334" y="632"/>
      <point x="349" y="641" type="curve" smooth="yes"/>
      <point x="398" y="669"/>
      <point x="430" y="707"/>
      <point x="449" y="761" type="curve"/>
      <point x="454" y="775"/>
      <point x="451" y="791"/>
      <point x="436" y="798" type="curve" smooth="yes"/>
      <point x="412" y="809"/>
      <point x="392" y="812"/>
      <point x="362" y="812" type="curve"/>
      <point x="345" y="741"/>
      <point x="307" y="696"/>
      <point x="244" y="639" type="curve"/>
      <point x="262" y="629"/>
      <point x="277" y="626"/>
    </contour>
  </outline>
</glyph>
<glyph name="paragraph" format="1">
  <advance width="600"/>
  <unicode hex="00B6"/>
  <outline>
    <contour>
      <point x="346" y="-154" type="curve"/>
      <point x="346" y="534" type="line"/>
      <point x="346" y="627"/>
      <point x="320" y="649"/>
      <point x="284" y="649" type="curve" smooth="yes"/>
      <point x="275" y="649"/>
      <point x="269" y="647"/>
      <point x="262" y="643" type="curve"/>
      <point x="262" y="-87" type="line" smooth="yes"/>
      <point x="262" y="-135"/>
      <point x="278" y="-160"/>
      <point x="319" y="-160" type="curve" smooth="yes"/>
      <point x="331" y="-160"/>
      <point x="339" y="-158"/>
    </contour>
    <contour>
      <point x="527" y="-155" type="curve"/>
      <point x="520" y="-120"/>
      <point x="517" y="-84"/>
      <point x="517" y="-45" type="curve" smooth="yes"/>
      <point x="517" y="602" type="line" smooth="yes"/>
      <point x="517" y="632"/>
      <point x="492" y="646"/>
      <point x="446" y="646" type="curve" smooth="yes"/>
      <point x="440" y="646"/>
      <point x="436" y="646"/>
      <point x="432" y="646" type="curve"/>
      <point x="432" y="-85" type="line" smooth="yes"/>
      <point x="432" y="-133"/>
      <point x="450" y="-160"/>
      <point x="491" y="-160" type="curve" smooth="yes"/>
      <point x="506" y="-160"/>
      <point x="515" y="-159"/>
    </contour>
    <contour>
      <point x="365" y="710" type="line" smooth="yes"/>
      <point x="180" y="710"/>
      <point x="49" y="596"/>
      <point x="49" y="410" type="curve" smooth="yes"/>
      <point x="49" y="397" type="line" smooth="yes"/>
      <point x="49" y="272"/>
      <point x="119" y="194"/>
      <point x="243" y="194" type="curve" smooth="yes"/>
      <point x="253" y="194" type="line" smooth="yes"/>
      <point x="285" y="194"/>
      <point x="337" y="216"/>
      <point x="338" y="273" type="curve"/>
      <point x="324" y="273" type="line" smooth="yes"/>
      <point x="231" y="273"/>
      <point x="190" y="324"/>
      <point x="190" y="401" type="curve" smooth="yes"/>
      <point x="190" y="413" type="line" smooth="yes"/>
      <point x="190" y="533"/>
      <point x="247" y="618"/>
      <point x="361" y="618" type="curve" smooth="yes"/>
      <point x="446" y="618"/>
      <point x="499" y="608"/>
      <point x="557" y="572" type="curve"/>
      <point x="561" y="572" type="line"/>
      <point x="565" y="587"/>
      <point x="567" y="599"/>
      <point x="567" y="613" type="curve" smooth="yes"/>
      <point x="567" y="635"/>
      <point x="562" y="650"/>
      <point x="549" y="663" type="curve" smooth="yes"/>
      <point x="522" y="690"/>
      <point x="466" y="710"/>
      <point x="370" y="710" type="curve" smooth="yes"/>
    </contour>
  </outline>
</glyph>
<glyph name="guillemotright" format="1">
  <advance width="601"/>
  <unicode hex="00BB"/>
  <outline>
    <contour>
      <point x="279" y="98" type="line"/>
      <point x="300" y="91"/>
      <point x="316" y="88"/>
      <point x="341" y="88" type="curve" smooth="yes"/>
      <point x="366" y="88"/>
      <point x="381" y="92"/>
      <point x="400" y="106" type="curve" smooth="yes"/>
      <point x="461" y="152"/>
      <point x="502" y="198"/>
      <point x="550" y="275" type="curve"/>
      <point x="550" y="295" type="line"/>
      <point x="550" y="315"/>
      <point x="528" y="327"/>
      <point x="487" y="329" type="curve"/>
      <point x="432" y="231"/>
      <point x="387" y="179"/>
      <point x="279" y="102" type="curve"/>
    </contour>
    <contour>
      <point x="279" y="498" type="line"/>
      <point x="385" y="419"/>
      <point x="440" y="362"/>
      <point x="484" y="273" type="curve"/>
      <point x="533" y="280"/>
      <point x="550" y="280"/>
      <point x="550" y="291" type="curve"/>
      <point x="550" y="299" type="line" smooth="yes"/>
      <point x="550" y="324"/>
      <point x="544" y="339"/>
      <point x="521" y="373" type="curve" smooth="yes"/>
      <point x="473" y="441"/>
      <point x="441" y="469"/>
      <point x="410" y="490" type="curve"/>
      <point x="385" y="507"/>
      <point x="368" y="512"/>
      <point x="339" y="512" type="curve" smooth="yes"/>
      <point x="311" y="512"/>
      <point x="298" y="509"/>
      <point x="279" y="502" type="curve"/>
    </contour>
    <contour>
      <point x="44" y="98" type="line"/>
      <point x="65" y="91"/>
      <point x="80" y="88"/>
      <point x="106" y="88" type="curve" smooth="yes"/>
      <point x="131" y="88"/>
      <point x="146" y="92"/>
      <point x="165" y="106" type="curve" smooth="yes"/>
      <point x="226" y="152"/>
      <point x="266" y="198"/>
      <point x="315" y="275" type="curve"/>
      <point x="315" y="295" type="line"/>
      <point x="315" y="315"/>
      <point x="293" y="327"/>
      <point x="252" y="329" type="curve"/>
      <point x="197" y="231"/>
      <point x="152" y="179"/>
      <point x="44" y="102" type="curve"/>
    </contour>
    <contour>
      <point x="44" y="498" type="line"/>
      <point x="150" y="419"/>
      <point x="205" y="362"/>
      <point x="248" y="273" type="curve"/>
      <point x="297" y="280"/>
      <point x="315" y="280"/>
      <point x="315" y="291" type="curve"/>
      <point x="315" y="299" type="line" smooth="yes"/>
      <point x="315" y="324"/>
      <point x="309" y="339"/>
      <point x="286" y="373" type="curve" smooth="yes"/>
      <point x="238" y="441"/>
      <point x="206" y="469"/>
      <point x="175" y="490" type="curve"/>
      <point x="150" y="507"/>
      <point x="133" y="512"/>
      <point x="104" y="512" type="curve" smooth="yes"/>
      <point x="76" y="512"/>
      <point x="63" y="509"/>
      <point x="44" y="502" type="curve"/>
    </contour>
  </outline>
</glyph>
